<svg width="40" height="41" viewBox="0 0 40 41" fill="none" xmlns="http://www.w3.org/2000/svg">
<g clip-path="url(#clip0_155_939)">
<path d="M39.9999 20.3672C39.9999 21.2302 39.3005 21.9297 38.4374 21.9297H36.0937V24.2734C36.0937 25.1365 35.3942 25.8359 34.5312 25.8359C33.6682 25.8359 32.9687 25.1365 32.9687 24.2734V21.9297H30.6249C29.7619 21.9297 29.0624 21.2302 29.0624 20.3672C29.0624 19.5042 29.7619 18.8047 30.6249 18.8047H32.9687V16.4609C32.9687 15.5979 33.6682 14.8984 34.5312 14.8984C35.3942 14.8984 36.0937 15.5979 36.0937 16.4609V18.8047H38.4374C39.3005 18.8047 39.9999 19.5042 39.9999 20.3672ZM36.1367 29.1163C35.4229 28.631 34.4512 28.8163 33.966 29.5298C30.8157 34.1633 25.5947 36.9297 19.9999 36.9297C10.6951 36.9297 3.12494 29.3595 3.12494 20.0547C3.12494 10.7499 10.6951 3.17969 19.9999 3.17969C25.7141 3.17969 30.9963 6.03796 34.1302 10.8259C34.6029 11.5479 35.5712 11.7499 36.2933 11.2772C37.0153 10.8048 37.2177 9.83618 36.7449 9.11414C33.0316 3.44153 26.7718 0.0546875 19.9999 0.0546875C14.6578 0.0546875 9.63525 2.13507 5.85779 5.91254C2.08032 9.69 -6.10352e-05 14.7126 -6.10352e-05 20.0547C-6.10352e-05 25.3968 2.08032 30.4194 5.85779 34.1968C9.63525 37.9743 14.6578 40.0547 19.9999 40.0547C26.6305 40.0547 32.8176 36.7771 36.5502 31.287C37.0355 30.5732 36.8502 29.6015 36.1367 29.1163V29.1163ZM11.6406 27.4766C12.5036 27.4766 13.2031 26.7771 13.2031 25.9141V14.2734C13.2031 13.6854 12.8729 13.147 12.3486 12.8806C11.8243 12.6139 11.1947 12.6646 10.7195 13.0112L7.82892 15.1206C7.1319 15.6293 6.979 16.6068 7.48773 17.3038C7.99646 18.0009 8.97394 18.1534 9.67096 17.645L10.0781 17.3478V25.9141C10.0781 26.7771 10.7775 27.4766 11.6406 27.4766ZM16.3281 22.7891C16.3281 21.5388 16.8212 20.402 17.622 19.5606C17.0565 18.8331 16.7187 17.9203 16.7187 16.9297C16.7187 14.5603 18.6462 12.6328 21.0156 12.6328C23.3849 12.6328 25.3124 14.5603 25.3124 16.9297C25.3124 17.9203 24.9746 18.8331 24.4091 19.5606C25.2099 20.402 25.7031 21.5388 25.7031 22.7891C25.7031 25.3739 23.6004 27.4766 21.0156 27.4766C18.4307 27.4766 16.3281 25.3739 16.3281 22.7891ZM22.5781 22.7891C22.5781 21.9276 21.8771 21.2266 21.0156 21.2266C20.1541 21.2266 19.4531 21.9276 19.4531 22.7891C19.4531 23.6506 20.1541 24.3516 21.0156 24.3516C21.8771 24.3516 22.5781 23.6506 22.5781 22.7891ZM19.8437 16.9297C19.8437 17.5757 20.3695 18.1016 21.0156 18.1016C21.6616 18.1016 22.1874 17.5757 22.1874 16.9297C22.1874 16.2836 21.6616 15.7578 21.0156 15.7578C20.3695 15.7578 19.8437 16.2836 19.8437 16.9297Z" fill="#FBB03B"/>
</g>
<defs>
<clipPath id="clip0_155_939">
<rect width="40" height="40" fill="white" transform="translate(-6.10352e-05 0.0546875)"/>
</clipPath>
</defs>
</svg>
