<svg width="154" height="41" viewBox="0 0 154 41" fill="none" xmlns="http://www.w3.org/2000/svg">
<g clip-path="url(#clip0_155_809)">
<path d="M50.3834 3.00968C48.9784 3.43418 47.6212 3.84075 46.2639 4.25927C46.0902 4.30992 45.9055 4.30992 45.7318 4.25927C39.8282 2.65981 33.5715 2.95257 27.8429 5.09633C25.1239 6.07995 22.6758 7.69219 20.6982 9.80173C20.5838 9.92326 20.4684 10.0719 20.3155 10.1425L19.9029 8.94673C19.4605 7.66128 19.03 6.36383 18.5697 5.08434C18.4617 4.88852 18.553 4.63449 18.761 4.55224C21.7591 2.70038 25.073 1.41736 28.5365 0.767587C31.3976 0.199454 34.3146 -0.0372718 37.2298 0.0620833C41.7028 0.196328 46.1122 1.15928 50.2339 2.90206L50.3834 3.00968Z" fill="#FE0000"/>
<path fill-rule="evenodd" clip-rule="evenodd" d="M113.371 8.48611C114.412 14.4419 110.287 19.082 104.594 19.9895C103.18 20.2185 101.763 20.1569 100.338 20.1569C100.086 20.139 100.033 20.2167 100.033 20.4619V30.7276C100.039 31.0087 99.9668 31.0744 99.6918 31.0744H94.5617C94.251 31.0744 94.1791 30.9967 94.1791 30.6918V1.93923C94.1791 1.68214 94.2332 1.55658 94.502 1.51473C97.777 1.07029 101.133 0.669006 104.439 1.00652C108.732 1.37542 112.735 3.95837 113.371 8.48611ZM107.261 12.4322V12.4143C108.731 9.01738 106.452 5.98453 102.914 5.99891C102.053 5.95407 101.19 5.97203 100.332 6.05269C100.068 6.08259 100.015 6.14238 100.015 6.38754V14.5846C100.003 14.9792 100.182 15.0629 100.505 15.0629C103.009 15.0629 106.033 15.0222 107.261 12.4322Z" fill="white"/>
<path fill-rule="evenodd" clip-rule="evenodd" d="M26.0974 30.4114C22.8618 20.7857 19.5181 11.1968 16.3039 1.56322C16.237 1.25433 15.9434 1.0361 15.6283 1.061H10.618C10.3555 1.03517 10.1097 1.22016 10.062 1.47952C6.92732 11.1156 3.30952 20.5919 0.24458 30.25C0.0592338 30.8479 0.142939 31.0871 0.842469 31.0691C2.37898 31.0392 3.91569 31.0691 5.45819 31.0691C6.0561 31.0691 6.09793 31.0273 6.27727 30.4712C7.12232 27.9123 7.96334 25.3533 8.80038 22.7943C8.85676 22.5215 9.12222 22.3331 9.39829 22.3698H16.7762C17.0219 22.3405 17.2684 22.5166 17.3203 22.7584C18.1602 25.3776 19.0653 27.9766 19.9391 30.5848C20.0287 30.8539 20.1364 31.0871 20.537 31.0871H25.7027C25.8621 31.0899 26.0176 31.0025 26.098 30.8649C26.1784 30.7272 26.1781 30.5488 26.0974 30.4114ZM14.8032 17.3296H11.3175C10.4805 17.3296 10.4984 17.0247 10.6837 16.4926C11.3095 14.675 11.9314 12.8554 12.5492 11.0338C12.6307 10.7891 12.7201 10.4281 13.0514 10.4778C13.2905 10.5136 13.3623 10.6572 13.4281 10.8604C14.0683 12.755 14.7345 14.6409 15.3951 16.5284C15.6044 17.1263 15.437 17.3236 14.8032 17.3296Z" fill="white"/>
<path d="M45.5647 14.2507C45.5647 13.9996 45.5049 13.9219 45.2478 13.9279H42.7606C42.5394 13.9279 42.4736 13.8741 42.4796 13.6469V9.15074C42.4796 8.92951 42.5334 8.86375 42.7546 8.86972H45.2837C45.5049 8.86972 45.5707 8.81589 45.5647 8.59472V5.71288C45.5647 5.50956 45.5647 5.43783 45.8277 5.36609C47.5533 4.88324 49.3884 4.43674 51.0593 3.76374C51.3326 3.65434 51.3311 3.77513 51.3285 3.93384C51.3285 3.94861 51.3285 3.96371 51.3285 3.97898V8.31967C51.3285 8.84579 51.3285 8.84579 51.8306 8.84579H56.1714C56.4403 8.84579 56.5541 8.84579 56.5479 9.19257V13.5692C56.5479 13.8621 56.4643 13.9099 56.201 13.904H51.699C51.4362 13.904 51.3224 13.9339 51.3224 14.2567V23.6795C51.3214 24.5942 51.4433 26.1473 52.6439 26.2265C53.7122 26.295 54.7831 26.1234 55.7765 25.7243C56.0372 25.6241 56.1183 25.891 56.1296 26.1069C56.1852 27.2094 56.3745 29.6325 56.3745 30.3878C56.3745 30.6449 56.2791 30.7286 56.0638 30.8003C55.126 31.1288 54.1525 31.3455 53.1637 31.446C50.3719 31.8586 47.1944 30.7148 46.1984 27.8826C45.5202 25.9589 45.5405 23.925 45.5719 21.911C45.6115 19.3588 45.5647 16.8035 45.5647 14.2507Z" fill="white"/>
<path d="M39.4953 14.7617C39.7347 14.913 39.9744 15.0645 40.2196 15.2071C40.6893 13.774 41.1393 12.3341 41.6486 10.9142C41.792 10.5137 41.7861 10.3462 41.3915 10.0712C39.9337 9.11929 38.2462 8.57812 36.5067 8.50475C35.3422 8.3951 34.1675 8.49638 33.0389 8.80368C30.7849 9.43745 29.0331 10.6811 28.1063 12.8992C27.4995 14.2848 27.4271 15.846 27.9031 17.2818C28.2737 18.3789 28.955 19.3447 29.8641 20.0619C30.8282 20.8334 31.8997 21.4598 33.0449 21.9214C34.0843 22.2543 35.0648 22.7486 35.9507 23.3862C36.4258 23.7679 36.6589 24.3952 36.5486 24.9945C36.4775 25.5459 36.0962 26.0379 35.5799 26.2441C34.6545 26.6221 33.6332 26.6974 32.6622 26.4594C31.34 26.1972 30.0824 25.6771 28.9613 24.9288C28.4053 24.5701 28.4053 24.5701 28.2139 25.168C27.7773 26.5437 27.3479 27.9217 26.8986 29.2934C26.8448 29.4608 26.8388 29.5565 26.9942 29.6402C27.5604 29.9781 28.1453 30.2835 28.7461 30.5549C30.7399 31.3641 32.9001 31.678 35.0418 31.4697C36.3782 31.3626 37.6774 30.9777 38.8564 30.3397C39.991 29.739 40.9198 28.8123 41.523 27.6791C42.2141 26.3635 42.4675 24.8617 42.2464 23.3922C42.0859 22.0966 41.5162 20.8859 40.6202 19.9364C39.5102 18.8333 38.1653 17.9954 36.6861 17.4851C35.7539 17.1604 34.8598 16.7354 34.0195 16.2175C33.5388 15.9218 33.303 15.3744 33.3839 14.8233C33.4781 14.182 33.981 13.656 34.6173 13.533C35.5074 13.3467 36.4308 13.3961 37.2959 13.6765C38.1095 13.8855 38.801 14.3226 39.4953 14.7617Z" fill="white"/>
<path d="M142.531 22.1309C140.9 17.8086 139.319 13.4693 137.759 9.1208C137.719 8.96193 137.55 8.85249 137.389 8.88167H131.547C131.29 8.88167 131.212 8.89361 131.356 9.18657C131.501 9.48315 131.571 9.80881 131.697 10.1133L135.96 20.7558C136.134 21.1909 136.309 21.6261 136.483 22.0612L136.509 22.1267C137.389 24.324 138.268 26.52 139.164 28.7077C139.517 29.4479 139.003 30.1442 138.627 30.7585C137.915 31.9702 136.956 33.0176 135.81 33.8316C134.886 34.4324 133.879 34.8937 132.821 35.2008L132.811 35.2045C132.668 35.2617 132.601 35.2885 132.671 35.4758C133.18 36.9839 133.581 38.5374 134.053 40.0556C134.094 40.1812 134.16 40.3068 134.357 40.2709C135.635 40.0591 136.867 39.6347 138.005 39.0153C139.809 37.9919 141.347 36.5581 142.495 34.8301C143.338 33.5627 144.078 32.229 144.707 30.8422C146.097 27.7922 147.266 24.6496 148.45 21.5151C150.001 17.4123 151.585 13.3192 153.167 9.22841C153.287 8.92351 153.209 8.88167 152.922 8.88167H147.284C147.106 8.85341 146.934 8.97892 146.907 9.15667C145.464 13.4866 143.988 17.8059 142.531 22.1309Z" fill="white"/>
<path d="M64.8765 9.4852C64.4321 9.75382 64.0291 10.0862 63.6806 10.4717C63.5913 9.95754 63.6689 9.55693 63.5673 9.16234C63.5132 8.88729 63.4296 8.88729 63.2265 8.88729H58.749C58.4459 8.88729 58.3 8.88724 58.2301 8.96004C58.1097 9.08596 58.1683 9.35673 58.1683 9.533C58.1791 10.0425 58.2132 10.5508 58.2474 11.0583C58.2888 11.6706 58.3296 12.2819 58.3296 12.8932V30.6864C58.3296 30.9973 58.4076 31.069 58.7122 31.069H63.8842C64.1949 31.069 64.2607 30.9853 64.2607 30.6804V18.8482C64.2469 17.9111 64.4755 16.9863 64.9245 16.1636C65.2081 15.5685 65.6536 15.065 66.2097 14.7109C66.7658 14.3567 67.4102 14.1661 68.0694 14.1607C68.777 14.1645 69.4806 14.2631 70.1617 14.4537C70.4189 14.5194 70.4189 14.4238 70.4189 14.2444V8.95306C70.4189 8.85142 70.5209 8.64816 70.2934 8.64816C69.3204 8.49851 68.3326 8.46841 67.352 8.55846C66.475 8.70596 65.6347 9.02061 64.8765 9.4852Z" fill="white"/>
<path fill-rule="evenodd" clip-rule="evenodd" d="M89.5275 12.576C87.5265 9.84885 84.1683 8.39226 80.8163 8.4865C78.8913 8.36242 76.8377 9.03084 75.202 9.99318C73.6255 10.9379 72.3311 12.2882 71.4535 13.9034C70.4551 15.8425 69.9403 17.9942 69.9525 20.1753C69.9193 22.3764 70.5025 24.619 71.5969 26.5249C73.3127 29.4395 76.4066 31.2713 79.7642 31.4933C82.6658 31.7389 85.6408 30.8268 87.8836 28.9643C88.9898 28.0395 89.8862 26.89 90.5142 25.5921C91.2653 23.9949 91.6841 22.262 91.7459 20.4981C91.8806 17.7195 91.1765 14.8394 89.5275 12.576ZM85.7428 19.9242C85.7943 21.2648 85.5086 22.5969 84.9122 23.7985C84.2739 25.2573 82.8989 26.3116 81.3244 26.5487C78.4637 26.9246 76.3097 24.1106 76.0571 21.4846C75.6586 19.2989 76.1357 17.0442 77.3846 15.2068C78.3984 13.7289 80.4035 13.0959 82.1071 13.5934C84.7153 14.3549 85.8142 17.4292 85.7428 19.9242Z" fill="white"/>
<path fill-rule="evenodd" clip-rule="evenodd" d="M131.296 28.8507C131.34 29.49 131.44 30.1242 131.595 30.746C131.649 30.9373 131.613 31.0688 131.38 31.0987H126.411C126.136 31.1047 126.041 31.021 126.041 30.74C126.029 30.4377 126.001 30.1364 125.957 29.8372C124.704 30.7719 123.225 31.3574 121.671 31.5339C120.118 31.7103 118.545 31.4715 117.114 30.8416C115.944 30.2929 114.972 29.3946 114.334 28.2707C113.78 27.3222 113.463 26.2533 113.413 25.1557C113.265 23.4623 113.714 21.7705 114.681 20.3726C115.61 19.0998 116.875 18.1103 118.334 17.5146C119.292 17.0961 120.295 16.7872 121.323 16.5939C121.979 16.4604 122.641 16.3686 123.308 16.3189C123.766 16.2984 124.222 16.2528 124.68 16.2068C124.892 16.1857 125.104 16.1644 125.317 16.1455C125.112 14.8158 124.32 13.6168 122.89 13.4729C121.215 13.2666 119.517 13.5621 118.011 14.3219C117.446 14.6396 116.901 14.991 116.379 15.3742C116.109 15.547 116.083 15.4662 116.023 15.2816C115.685 14.2374 115.335 13.1974 114.98 12.1586L114.98 12.1575C114.86 11.7988 114.722 11.4461 114.585 11.0933C114.512 10.9567 114.567 10.7814 114.705 10.7107C117.285 9.06381 120.38 8.31453 123.428 8.50443C126.408 8.61784 129.239 10.2901 130.352 13.1262C130.888 14.4692 131.135 15.9216 131.135 17.3652V25.6938C131.139 26.7461 131.192 27.7984 131.296 28.8507ZM125.347 23.0481C125.345 22.8546 125.344 22.6675 125.365 22.4891L125.377 21.4787C125.375 21.4156 125.378 21.3516 125.381 21.289C125.387 21.1318 125.393 20.9834 125.329 20.8808C125.274 20.7929 125.179 20.8328 125.073 20.877C125.007 20.9049 124.936 20.9346 124.869 20.9346C123.992 20.9191 123.117 21.0216 122.268 21.2395C121.492 21.3859 120.761 21.7114 120.134 22.1901C119.71 22.5466 119.407 23.0247 119.265 23.5595C119.122 24.0943 119.148 24.6599 119.338 25.1796C119.428 25.5069 119.609 25.8019 119.86 26.0305C120.111 26.2591 120.421 26.4119 120.755 26.4711C121.343 26.6229 121.961 26.6229 122.549 26.4711C123.116 26.3393 123.645 26.0788 124.095 25.7096C124.545 25.3405 124.904 24.8727 125.144 24.3425C125.355 23.896 125.351 23.4576 125.347 23.0481Z" fill="white"/>
</g>
<defs>
<clipPath id="clip0_155_809">
<rect width="152.857" height="40" fill="white" transform="translate(0.159668 0.0546875)"/>
</clipPath>
</defs>
</svg>
