<svg width="331" height="120" viewBox="0 0 331 120" fill="none" xmlns="http://www.w3.org/2000/svg">
<path d="M97.4619 32.2793C97.4619 32.3586 97.4619 32.438 97.5412 32.5173C98.2554 36.2468 99.2076 40.5318 98.9695 45.1341C99.2869 40.5318 98.4934 36.0881 97.4619 32.2793Z" fill="#D5C9B1"/>
<path d="M98.7315 46.8804C98.7315 47.0391 98.6522 47.1978 98.6522 47.3565C98.7315 46.8011 98.8109 46.325 98.8109 45.7695C98.8109 46.1663 98.8109 46.563 98.7315 46.8804Z" fill="#D5C9B1"/>
<path d="M118.649 47.8322C121.505 45.9277 124.441 43.3092 124.759 39.8971C124.917 38.6275 124.362 36.0089 123.806 34.898C122.854 32.8349 121.108 31.4066 119.521 29.8196C115.395 25.7727 109.999 22.9954 104.127 22.8367C99.049 22.678 95.7162 25.852 96.9858 32.7555C98.0174 36.5644 99.287 40.6906 98.9696 45.2929C98.9696 45.3723 98.9696 45.531 98.9696 45.6103C98.9696 45.6897 98.9696 45.8484 98.9696 45.9277C98.8903 46.4038 98.8903 46.9593 98.8109 47.5148C96.9858 60.2108 88.3366 72.2721 88.0986 82.191C87.7812 92.4272 88.2573 105.203 97.6206 112.424C102.461 116.232 111.745 117.581 116.506 119.486C121.267 120.2 124.124 119.962 124.124 119.962C124.124 119.962 108.809 115.915 103.731 106.472C100.715 100.918 101.747 93.4588 101.35 89.888C101.429 90.2847 101.509 90.6815 101.668 91.0782C103.81 98.0611 109.523 102.901 109.523 102.901C109.523 102.901 104.603 89.8086 110.237 80.7627C115.871 71.7167 125.314 66.4002 121.188 57.5923C117.934 50.5301 110.555 49.4192 110.555 49.4192C111.19 49.2605 111.824 49.2605 112.459 49.1811C114.522 48.9431 116.585 49.1018 118.649 47.8322ZM104.048 36.9611C101.826 33.8664 102.223 29.6609 105 27.7565C107.778 25.7727 111.824 26.7249 114.046 29.8989C116.268 32.9936 115.871 37.1992 113.094 39.1036C110.317 41.0874 106.27 40.1351 104.048 36.9611Z" fill="white"/>
<path d="M113.065 39.0778C115.816 37.1226 116.234 32.9897 113.999 29.8467C111.765 26.7036 107.724 25.7406 104.974 27.6957C102.224 29.6509 101.806 33.7838 104.04 36.9269C106.275 40.07 110.315 41.033 113.065 39.0778Z" fill="#1A1A1A"/>
<path d="M97.462 111.551C88.0986 104.251 87.4638 89.809 89.6062 79.9695C90.4791 75.8433 93.0183 70.1301 94.764 65.369C96.8271 59.7351 97.7 54.2599 98.7316 47.3564C98.1761 50.8479 93.9705 61.957 91.7487 67.0354C85.8768 80.6837 77.1484 79.4934 81.0364 87.8252C84.9246 96.1571 85.4007 112.186 98.8903 117.582C103.889 119.565 114.84 119.089 118.331 119.645C113.015 118.137 102.302 115.36 97.462 111.551Z" fill="#DDDAD7"/>
<path d="M38.2662 13.156C39.9326 18.4725 32.9497 23.0748 30.2518 23.8683C27.7126 24.6618 22.5548 29.0261 22.0787 29.4229C27.7919 26.8043 43.8207 20.1389 58.3419 20.6943C69.0542 21.0911 84.6071 26.6456 85.6387 26.963C86.6702 27.3598 87.9398 20.6943 90.9552 18.7899C92.1454 18.0757 95.2401 16.8061 97.4619 14.5843C97.3826 13.6321 95.7955 12.0451 94.1292 10.7755C90.003 7.60145 73.8946 -0.809714 55.9614 0.0631464C38.7423 0.856649 26.5223 7.76015 26.5223 7.76015C26.5223 7.76015 36.5998 7.8395 38.2662 13.156Z" fill="#FBB03B"/>
<path d="M81.91 24.2655C80.8785 23.8687 69.0549 21.0915 58.2632 20.6947C43.6627 20.2186 27.7132 26.8047 22 29.4233H21.9206C21.9206 29.4233 38.5843 21.2502 55.4066 23.7894C72.2289 26.3286 81.5133 30.2168 84.4492 31.8831C87.3852 33.5495 91.9082 35.7713 91.9082 35.7713C91.9082 35.7713 88.5755 27.7569 92.8604 21.0121C95.3996 16.8859 97.7008 16.013 97.4627 14.6641C95.1616 16.8859 91.0353 17.2033 89.8451 17.9174C86.8298 19.7425 82.9416 24.6622 81.91 24.2655Z" fill="#E08814"/>
<path d="M49.5341 89.729C55.2474 80.0482 69.4511 66.2412 77.8623 62.7498C86.2734 59.3377 86.4321 65.4477 86.4321 65.4477C88.892 60.8454 92.5421 51.0059 93.1769 48.0699C94.6053 40.611 92.4628 38.5479 92.4628 38.5479C92.4628 38.5479 70.0066 47.9112 58.8975 58.7029C46.5981 70.5261 42.4719 85.6821 42.4719 94.6487C42.4719 103.377 43.5828 106.551 43.5828 106.551C43.5828 106.551 44.1383 104.488 45.5666 101.394C46.0427 97.7434 47.233 93.5378 49.5341 89.729Z" fill="#FBB03B"/>
<path d="M80.8776 56.5606C71.3554 58.9411 55.4853 72.5894 49.3753 87.7454C47.7089 91.8716 46.0426 97.7435 45.4871 101.394C48.0263 95.8391 53.8983 85.8409 63.4997 78.9374C73.3392 71.7959 83.4169 70.7643 83.4169 70.7643C83.4169 70.7643 84.7658 68.5425 86.5115 65.4478C86.4322 65.5272 89.6856 54.3388 80.8776 56.5606Z" fill="#E08814"/>
<path d="M28.0302 12.2033C28.0302 12.2033 27.5541 9.90218 22.9518 11.2511C18.3494 12.6001 9.46217 21.8048 6.52623 26.0104C-0.69468 36.802 0.0194753 43.2294 0.0194753 43.2294C0.0194753 43.2294 2.5587 32.1997 13.3504 23.1537C17.3972 19.7417 23.0311 17.6785 25.5703 16.1709C28.9824 14.1871 28.0302 12.2033 28.0302 12.2033Z" fill="white"/>
<path d="M108.902 33.3984C109.867 32.7127 110.01 31.2592 109.223 30.152C108.435 29.0448 107.016 28.7031 106.051 29.3888C105.087 30.0745 104.943 31.5279 105.73 32.6351C106.517 33.7424 107.938 34.084 108.902 33.3984Z" fill="white"/>
<path d="M117.618 74.0179C112.619 80.604 113.412 85.7618 115.634 93.4588C112.063 88.9358 109.524 84.6509 111.19 78.4615C111.19 78.4615 119.681 68.384 119.125 60.5283C118.57 52.6726 110.397 49.3398 110.397 49.3398C110.397 49.3398 122.934 51.7997 123.331 59.338C123.728 66.8763 119.522 71.558 117.618 74.0179Z" fill="#DDDAD7"/>
<path d="M119.045 60.5283C119.68 68.384 113.887 74.4147 111.11 78.4616C109.603 80.6834 107.698 84.7303 107.222 88.3804C105.952 97.9025 109.285 102.822 109.285 102.822C109.285 102.822 107.143 96.3948 108.968 88.6978C110.317 82.9052 113.094 81.7943 114.602 77.7474C115.871 74.4147 119.363 69.8123 119.839 66.3209C120.315 62.8295 119.045 60.5283 119.045 60.5283Z" fill="#DDDAD7"/>
<path d="M62.6273 43.6266L56.9141 39.1829C56.9141 39.1829 54.6923 36.4057 53.7401 34.2632C52.7879 32.1207 51.677 30.137 51.677 30.137L53.0259 29.4228C52.6292 29.1054 52.1531 28.788 51.677 28.4706C48.2649 27.6771 44.2973 27.7564 39.9331 28.6293C39.7744 28.788 39.6157 29.0261 39.457 29.2641C39.3776 29.3435 39.3776 29.4228 39.2983 29.5022C41.8375 32.8349 43.7419 36.7231 44.8528 41.0873C45.0908 42.0395 45.2496 42.9918 45.4083 43.944C47.7888 44.4994 51.3595 45.531 51.3595 45.531C51.3595 45.531 51.5976 47.118 52.3911 49.8159C53.1846 52.5138 52.3118 56.7194 52.3118 56.7194C52.3118 56.7194 50.6454 57.989 47.4714 59.2586C45.2495 60.1315 43.6625 60.7663 42.869 61.0837C41.044 64.8925 38.5047 68.3046 35.2514 71.0819C36.9177 70.7645 38.346 70.4471 38.346 70.4471L42.3136 74.3352C43.2658 71.4786 45.4082 67.5904 48.1062 63.6229C52.9466 56.4814 59.2946 51.3236 63.5002 48.1495C63.4208 46.9593 63.1828 45.6897 62.8654 44.4201C62.786 44.182 62.7067 43.944 62.6273 43.6266Z" fill="#DDDAD7"/>
<path d="M42.8692 61.1636C42.5518 61.3223 42.3931 61.3223 42.3931 61.3223C42.3931 61.3223 40.6474 58.7037 39.5365 57.1167C38.4256 55.5297 35.9657 52.0382 35.9657 52.0382C35.9657 52.0382 37.156 50.5306 38.3462 48.4675C39.5365 46.4837 41.3616 43.389 41.3616 43.389C41.3616 43.389 42.2344 43.6271 43.8214 43.7064C44.1388 43.7064 44.7736 43.8651 45.4084 44.0238C45.2497 43.0716 45.091 42.1194 44.853 41.1672C43.8214 36.8029 41.917 32.8354 39.2984 29.582C38.1082 31.169 35.807 33.867 35.807 33.867C35.807 33.867 32.871 33.5496 30.4905 33.7876C28.1894 34.0257 25.0947 34.6605 25.0947 34.6605C25.0947 34.6605 24.936 33.6289 24.6186 32.2006C21.2065 33.3909 18.0325 34.7398 14.7791 36.4062C11.129 42.1988 9.70066 49.4197 11.367 56.6406C13.4301 65.3692 19.6988 72.114 27.4752 75.2086C27.4752 74.9706 27.4752 74.8119 27.4752 74.6532C27.872 72.5107 27.7926 71.5585 27.7926 71.5585C27.7926 71.5585 29.5383 71.8759 31.8395 71.6379C32.7917 71.5585 34.0613 71.3998 35.1722 71.1617C38.4256 68.3845 41.0441 64.9724 42.8692 61.1636ZM22.5555 57.5928C21.8413 59.0211 20.2543 62.1158 20.2543 62.1158L13.5095 59.0211C13.5095 59.0211 12.6366 56.8786 12.2399 53.5459C11.8431 50.2132 12.1605 47.5153 12.1605 47.5153C12.1605 47.5153 12.954 47.1185 15.1759 46.087C17.477 45.0554 19.1434 44.5793 19.1434 44.5793C19.1434 44.5793 20.0956 46.325 21.2065 48.6262C22.3174 50.9273 24.3012 53.4666 24.3012 53.4666C24.3012 53.4666 23.349 56.1645 22.5555 57.5928Z" fill="white"/>
<path d="M154.913 76.9541C158.483 77.9857 160.229 79.8107 160.229 82.5086V94.7286C160.229 99.569 157.769 101.95 152.849 101.95H139.757V53.3076H150.866C156.658 53.3076 159.515 56.2436 159.515 62.1155V71.4789C159.515 74.2562 157.928 76.0019 154.833 76.6367V76.9541H154.913ZM146.343 73.7801H149.358C151.818 73.7801 153.088 72.5898 153.088 70.2886V62.671C153.088 60.2905 152.135 59.1796 150.152 59.1796H146.263V73.7801H146.343ZM146.343 95.9982H151.183C152.929 95.9982 153.722 95.2841 153.722 93.9351V83.1434C153.722 80.8423 152.453 79.652 149.834 79.652H146.263V95.9982H146.343Z" fill="white"/>
<path d="M165.704 101.95V53.3076H172.211V101.95H165.704Z" fill="white"/>
<path d="M184.51 101.95H178.004V61.6394C178.004 56.0849 180.622 53.3076 185.78 53.3076H190.62C195.778 53.3076 198.397 56.0849 198.397 61.6394V101.95H191.89V84.0957H184.431V101.95H184.51ZM191.969 78.2237V62.0362C191.969 60.1318 191.017 59.1796 189.113 59.1796H187.288C185.383 59.1796 184.431 60.1318 184.431 62.0362V78.2237H191.969Z" fill="white"/>
<path d="M217.361 81.8738L223.391 53.3076H230.533V101.95H224.026L224.74 70.1299L219.9 93.1416H214.901L210.06 70.1299L210.775 101.95H204.268V53.3076H211.409L217.361 81.8738Z" fill="white"/>
<path d="M244.26 101.95C239.023 101.95 236.405 99.1723 236.405 93.6971V61.6394C236.405 56.0849 239.023 53.3076 244.181 53.3076H250.45C255.608 53.3076 258.226 56.0849 258.226 61.6394V93.6971C258.226 99.1723 255.608 101.95 250.37 101.95H244.26ZM245.768 95.9982H249.101C250.847 95.9982 251.64 95.046 251.64 93.1416V62.0362C251.64 60.1318 250.688 59.1796 248.704 59.1796H245.689C243.784 59.1796 242.832 60.1318 242.832 62.0362V93.221C242.832 95.046 243.864 95.9982 245.768 95.9982Z" fill="white"/>
<path d="M280.524 76.9541C284.095 77.9857 285.84 79.8107 285.84 82.5086V94.7286C285.84 99.569 283.38 101.95 278.461 101.95H265.368V53.3076H276.477C282.269 53.3076 285.126 56.2436 285.126 62.1155V71.4789C285.126 74.2562 283.539 76.0019 280.444 76.6367V76.9541H280.524ZM271.954 73.7801H274.969C277.429 73.7801 278.699 72.5898 278.699 70.2886V62.671C278.699 60.2905 277.746 59.1796 275.763 59.1796H271.875V73.7801H271.954ZM271.954 95.9982H276.794C278.54 95.9982 279.334 95.2841 279.334 93.9351V83.1434C279.334 80.8423 278.064 79.652 275.445 79.652H271.875V95.9982H271.954Z" fill="#FBB03B"/>
<path d="M291.316 101.95V53.3076H307.424V59.1796H297.823V73.9388H306.393V79.8107H297.823V95.9982H307.424V101.87H291.316V101.95Z" fill="#FBB03B"/>
<path d="M324.326 59.1796V101.95H317.819V59.1796H311.551V53.3076H330.516V59.1796H324.326Z" fill="#FBB03B"/>
</svg>
