<svg width="90" height="41" viewBox="0 0 90 41" fill="none" xmlns="http://www.w3.org/2000/svg">
<g clip-path="url(#clip0_155_707)">
<path fill-rule="evenodd" clip-rule="evenodd" d="M7.27222 0.580078H11.4609V39.7778H7.27222V0.580078Z" fill="white"/>
<path fill-rule="evenodd" clip-rule="evenodd" d="M12.78 0.580078H14.0751V39.7778H12.78V0.580078Z" fill="white"/>
<path fill-rule="evenodd" clip-rule="evenodd" d="M15.2079 0.580078H17.5306V39.7778H15.2079V0.580078Z" fill="white"/>
<path fill-rule="evenodd" clip-rule="evenodd" d="M19.7692 0.580078H21.0642V39.7778H19.7692V0.580078Z" fill="white"/>
<path fill-rule="evenodd" clip-rule="evenodd" d="M21.6292 0.580078H22.6298V39.7778H21.6292V0.580078Z" fill="white"/>
<path fill-rule="evenodd" clip-rule="evenodd" d="M4.09009 0.580078H5.38817V39.7778H4.09009V0.580078Z" fill="white"/>
<path fill-rule="evenodd" clip-rule="evenodd" d="M1.22949 0.580078H3.55221V39.7778H1.22949V0.580078Z" fill="white"/>
<path fill-rule="evenodd" clip-rule="evenodd" d="M29.5618 0.580078H33.7505V39.7778H29.5618V0.580078Z" fill="white"/>
<path fill-rule="evenodd" clip-rule="evenodd" d="M35.0696 0.580078H36.3647V39.7778H35.0696V0.580078Z" fill="white"/>
<path fill-rule="evenodd" clip-rule="evenodd" d="M37.4976 0.580078H39.8203V39.7778H37.4976V0.580078Z" fill="white"/>
<path fill-rule="evenodd" clip-rule="evenodd" d="M42.0588 0.580078H43.3539V39.7778H42.0588V0.580078Z" fill="white"/>
<path fill-rule="evenodd" clip-rule="evenodd" d="M43.9188 0.580078H44.9194V39.7778H43.9188V0.580078Z" fill="white"/>
<path fill-rule="evenodd" clip-rule="evenodd" d="M26.3798 0.580078H27.6778V39.7778H26.3798V0.580078Z" fill="white"/>
<path fill-rule="evenodd" clip-rule="evenodd" d="M23.5192 0.580078H25.8419V39.7778H23.5192V0.580078Z" fill="white"/>
<path fill-rule="evenodd" clip-rule="evenodd" d="M46.563 0.580078H48.8857V39.7778H46.563V0.580078Z" fill="white"/>
<path fill-rule="evenodd" clip-rule="evenodd" d="M51.1243 0.580078H52.4223V39.7778H51.1243V0.580078Z" fill="white"/>
<path fill-rule="evenodd" clip-rule="evenodd" d="M52.9873 0.580078H53.9849V39.7778H52.9873V0.580078Z" fill="white"/>
<path fill-rule="evenodd" clip-rule="evenodd" d="M57.7349 0.580078H59.0329V39.7778H57.7349V0.580078Z" fill="white"/>
<path fill-rule="evenodd" clip-rule="evenodd" d="M54.8743 0.580078H57.197V39.7778H54.8743V0.580078Z" fill="white"/>
<path fill-rule="evenodd" clip-rule="evenodd" d="M60.7577 0.580078H62.0558V39.7778H60.7577V0.580078Z" fill="white"/>
<path fill-rule="evenodd" clip-rule="evenodd" d="M62.6207 0.580078H63.6213V39.7778H62.6207V0.580078Z" fill="white"/>
<path fill-rule="evenodd" clip-rule="evenodd" d="M67.3713 0.580078H68.6664V39.7778H67.3713V0.580078Z" fill="white"/>
<path fill-rule="evenodd" clip-rule="evenodd" d="M64.5077 0.580078H66.8304V39.7778H64.5077V0.580078Z" fill="white"/>
<path fill-rule="evenodd" clip-rule="evenodd" d="M69.7992 0.580078H73.9849V39.7778H69.7992V0.580078Z" fill="white"/>
<path fill-rule="evenodd" clip-rule="evenodd" d="M75.304 0.580078H76.602V39.7778H75.304V0.580078Z" fill="white"/>
<path fill-rule="evenodd" clip-rule="evenodd" d="M77.7319 0.580078H80.0546V39.7778H77.7319V0.580078Z" fill="white"/>
<path fill-rule="evenodd" clip-rule="evenodd" d="M82.2932 0.580078H83.5913V39.7778H82.2932V0.580078Z" fill="white"/>
<path fill-rule="evenodd" clip-rule="evenodd" d="M84.1532 0.580078H85.1538V39.7778H84.1532V0.580078Z" fill="white"/>
<path fill-rule="evenodd" clip-rule="evenodd" d="M86.8004 0.580078H89.1201V39.7778H86.8004V0.580078Z" fill="white"/>
<path fill-rule="evenodd" clip-rule="evenodd" d="M5.96509 40.6368L86.2085 39.8676V17.8994H5.96509V37.5599" fill="black"/>
<path d="M7.47644 39.0263V19.1465H14.9344C16.4548 19.1465 17.6718 19.3478 18.5912 19.7505C19.5077 20.1531 20.2228 20.7721 20.7427 21.6104C21.2655 22.4428 21.5239 23.3172 21.5239 24.2336C21.5239 25.078 21.2925 25.8803 20.8358 26.6285C20.3761 27.3797 19.682 27.9836 18.7535 28.4464C19.9554 28.7979 20.8809 29.4019 21.5239 30.2523C22.173 31.0996 22.4945 32.1032 22.4945 33.2601C22.4945 34.1946 22.2962 35.0599 21.9025 35.8592C21.5119 36.6615 21.0251 37.2745 20.4452 37.7102C19.8683 38.1399 19.1411 38.4704 18.2727 38.6928C17.3983 38.9151 16.3286 39.0263 15.0606 39.0263H7.47644ZM10.1147 27.5029H14.4115C15.5774 27.5029 16.4157 27.4247 16.9205 27.2715C17.5906 27.0732 18.0954 26.7396 18.435 26.2769C18.7715 25.8142 18.9428 25.2372 18.9428 24.5371C18.9428 23.8761 18.7865 23.2931 18.465 22.7943C18.1525 22.2895 17.6988 21.941 17.1099 21.7577C16.5239 21.5714 15.5143 21.4782 14.09 21.4782H10.1147V27.5029ZM10.1147 36.6916H15.0666C15.9169 36.6916 16.5149 36.6615 16.8605 36.5954C17.4614 36.4902 17.9722 36.3099 18.3779 36.0545C18.7865 35.7991 19.1171 35.4295 19.3815 34.9428C19.6459 34.459 19.7751 33.8971 19.7751 33.2631C19.7751 32.5209 19.5858 31.8748 19.2012 31.325C18.8226 30.7751 18.2937 30.3905 17.6207 30.1681C16.9476 29.9458 15.977 29.8346 14.715 29.8346H10.1147V36.6916Z" fill="white"/>
<path d="M24.8833 31.8215C24.8833 29.1623 25.6225 27.1911 27.1099 25.9081C28.3448 24.8444 29.8563 24.3125 31.6381 24.3125C33.6153 24.3125 35.2349 24.9585 36.4909 26.2566C37.7469 27.5457 38.3749 29.3365 38.3749 31.6172C38.3749 33.4681 38.0984 34.9225 37.5426 35.9802C36.9867 37.0409 36.1784 37.8642 35.1147 38.4531C34.054 39.0391 32.8941 39.3305 31.6381 39.3305C29.6219 39.3305 27.9933 38.6875 26.7493 37.3954C25.5053 36.1064 24.8833 34.2464 24.8833 31.8215ZM27.3833 31.8245C27.3833 33.6665 27.7859 35.0457 28.5882 35.9591C29.3995 36.8726 30.4121 37.3323 31.6381 37.3323C32.8521 37.3323 33.8587 36.8726 34.67 35.9531C35.4752 35.0337 35.8779 33.6304 35.8779 31.7464C35.8779 29.9706 35.4692 28.6244 34.6609 27.7139C33.8496 26.7975 32.843 26.3377 31.6381 26.3377C30.4121 26.3377 29.3995 26.7915 28.5882 27.7049C27.7859 28.6154 27.3833 29.9886 27.3833 31.8245Z" fill="white"/>
<path d="M41.1844 39.0263V19.1465H43.6274V39.0263H41.1844Z" fill="white"/>
<path d="M57.2361 34.3606L59.7601 34.6941C59.3665 36.1605 58.6333 37.3053 57.5576 38.1136C56.4849 38.9249 55.1147 39.3305 53.444 39.3305C51.3436 39.3305 49.679 38.6845 48.447 37.3864C47.218 36.0974 46.6021 34.2794 46.6021 31.9417C46.6021 29.5258 47.221 27.6478 48.468 26.3167C49.712 24.9796 51.3256 24.3125 53.3118 24.3125C55.2319 24.3125 56.8004 24.9645 58.0173 26.2746C59.2343 27.5817 59.8442 29.4237 59.8442 31.7975C59.8442 31.9417 59.8382 32.1581 59.8292 32.4465H49.1021C49.1922 34.024 49.6369 35.235 50.4422 36.0733C51.2415 36.9117 52.2481 37.3323 53.444 37.3323C54.3394 37.3323 55.1026 37.095 55.7307 36.6232C56.3647 36.1514 56.8635 35.3972 57.2361 34.3606ZM49.2403 30.4483H57.2631C57.1549 29.2344 56.8454 28.3269 56.3406 27.723C55.5684 26.7825 54.5588 26.3107 53.3238 26.3107C52.206 26.3107 51.2655 26.6863 50.5023 27.4345C49.7451 28.1857 49.3214 29.1893 49.2403 30.4483Z" fill="white"/>
<path d="M68.1496 36.8455L68.4831 39.0029C67.798 39.1472 67.182 39.2193 66.6472 39.2193C65.7608 39.2193 65.0787 39.0811 64.5859 38.7986C64.1021 38.5162 63.7596 38.1496 63.5582 37.6928C63.3599 37.2361 63.2638 36.2716 63.2638 34.8052V26.5059H61.4579V24.6159H63.2638V21.0552L65.7067 19.5889V24.6159H68.1496V26.5059H65.7067V34.9434C65.7067 35.6436 65.7488 36.0913 65.8359 36.2896C65.92 36.4909 66.0582 36.6472 66.2536 36.7674C66.4459 36.8815 66.7253 36.9446 67.0859 36.9446C67.3533 36.9446 67.7109 36.9116 68.1496 36.8455Z" fill="white"/>
<path d="M69.6429 31.8215C69.6429 29.1623 70.3851 27.1911 71.8695 25.9081C73.1045 24.8444 74.6189 24.3125 76.3978 24.3125C78.3749 24.3125 79.9945 24.9585 81.2535 26.2566C82.5065 27.5457 83.1375 29.3365 83.1375 31.6172C83.1375 33.4681 82.8581 34.9225 82.3022 35.9802C81.7463 37.0409 80.938 37.8642 79.8743 38.4531C78.8136 39.0391 77.6538 39.3305 76.3978 39.3305C74.3815 39.3305 72.7529 38.6875 71.5089 37.3954C70.2649 36.1064 69.6429 34.2464 69.6429 31.8215ZM72.1429 31.8245C72.1429 33.6665 72.5456 35.0457 73.3509 35.9591C74.1592 36.8726 75.1748 37.3323 76.3978 37.3323C77.6117 37.3323 78.6213 36.8726 79.4296 35.9531C80.2349 35.0337 80.6375 33.6304 80.6375 31.7464C80.6375 29.9706 80.2319 28.6244 79.4206 27.7139C78.6093 26.7975 77.6027 26.3377 76.3978 26.3377C75.1748 26.3377 74.1592 26.7915 73.3509 27.7049C72.5456 28.6154 72.1429 29.9886 72.1429 31.8245Z" fill="white"/>
</g>
<defs>
<clipPath id="clip0_155_707">
<rect width="89.2308" height="40" fill="white" transform="translate(0.5354 0.0546875)"/>
</clipPath>
</defs>
</svg>
