<svg width="174" height="41" viewBox="0 0 174 41" fill="none" xmlns="http://www.w3.org/2000/svg">
<g clip-path="url(#clip0_155_819)">
<path d="M76.1327 28.4025C73.6979 28.4025 71.7269 27.6489 70.2776 26.0836C68.8283 24.5184 68.1327 22.4315 68.1327 19.7068C68.1327 17.1561 68.8863 15.0692 70.3936 13.5039C71.9588 11.9387 74.1037 11.0692 76.3066 11.1851C78.0457 11.1271 79.7849 11.5909 81.2921 12.5764L80.3066 14.9532C79.1472 14.1996 77.7559 13.7938 76.3646 13.7358C74.9733 13.6778 73.582 14.3155 72.7124 15.417C71.7849 16.6923 71.3211 18.2576 71.3791 19.8228C71.3791 21.7358 71.7849 23.2431 72.6544 24.3445C73.582 25.446 74.9153 26.0257 76.3646 25.9677C77.8139 25.9677 79.2631 25.6199 80.5385 24.9242L80.9443 27.359C79.495 28.0547 77.8139 28.4605 76.1327 28.4025Z" fill="white"/>
<path d="M88.8284 28.403C87.1472 28.461 85.524 27.8233 84.4226 26.6059C83.3211 25.2726 82.7414 23.5914 82.7994 21.8523C82.7994 19.8233 83.3211 18.2001 84.4226 17.0407C85.466 15.8813 86.9733 15.3016 88.9443 15.3016C90.6255 15.1857 92.2486 15.8813 93.3501 17.0987C94.4515 18.432 95.0313 20.1132 94.9733 21.8523C95.0313 23.5914 94.4515 25.2726 93.3501 26.6059C92.1907 27.8233 90.5095 28.519 88.8284 28.403ZM88.9443 26.1422C89.8718 26.2001 90.7414 25.7943 91.2631 25.0407C91.8428 24.0552 92.0747 22.9538 92.0168 21.8523C92.0747 20.7509 91.7849 19.5914 91.2052 18.6059C90.1617 17.3306 88.3066 17.0987 87.0313 18.1422C86.8573 18.2581 86.6834 18.432 86.5675 18.6059C85.9878 19.5914 85.7559 20.6929 85.8139 21.8523C85.7559 22.9538 86.0457 24.0552 86.6255 24.9828C87.0892 25.7364 88.0168 26.2001 88.9443 26.1422Z" fill="white"/>
<path d="M97.4661 13.7353V11.1846H100.481V13.7353H97.4661ZM97.4661 28.1701V15.5904H100.481V28.1701H97.4661Z" fill="white"/>
<path d="M103.611 28.1706V15.5909H106.046L106.394 17.1561C107.495 15.9967 109.06 15.3011 110.683 15.2431C111.901 15.1272 113.118 15.5909 113.988 16.5185C114.741 17.388 115.089 18.6054 115.089 20.1706V28.1127H112.075V20.5764C112.133 19.7648 111.959 19.0112 111.553 18.3156C111.147 17.7938 110.51 17.504 109.814 17.5619C109.176 17.5619 108.539 17.7358 108.017 18.0837C107.495 18.3735 107.089 18.8373 106.857 19.359C106.683 20.2866 106.625 21.2141 106.625 22.1416V28.2866H103.611V28.1706Z" fill="white"/>
<path d="M121.988 28.4026C120.423 28.4606 118.915 28.1707 117.524 27.4751L117.814 25.2142C118.452 25.5041 119.089 25.7939 119.727 25.9678C120.423 26.1417 121.118 26.2577 121.872 26.3157C122.394 26.3157 122.973 26.1997 123.437 25.9678C123.785 25.7359 124.017 25.3301 124.017 24.8664C124.017 24.4606 123.843 24.0548 123.495 23.8229C122.857 23.4171 122.22 23.1272 121.524 22.8954L120.886 22.6635C119.959 22.3736 119.089 21.8519 118.394 21.1562C117.872 20.5186 117.582 19.707 117.64 18.8954C117.582 17.8519 118.046 16.8664 118.857 16.2287C119.901 15.533 121.118 15.2432 122.336 15.3012C123.785 15.2432 125.234 15.591 126.568 16.2287L125.814 18.3157C124.77 17.7939 123.553 17.5041 122.394 17.5041C121.93 17.5041 121.408 17.562 121.002 17.7939C120.654 17.9678 120.481 18.3157 120.481 18.7214C120.481 19.0693 120.654 19.4171 121.002 19.649C121.64 19.9968 122.278 20.2867 122.915 20.5185L123.205 20.6345L123.611 20.8084C124.539 21.0983 125.408 21.62 126.162 22.3157C126.741 22.9533 127.031 23.7649 126.973 24.6345C127.031 25.7359 126.568 26.8374 125.698 27.533C124.597 28.1128 123.321 28.4606 121.988 28.4026Z" fill="white"/>
<path d="M129.466 28.171V11.3594H135.089C136.249 11.3594 137.408 11.5333 138.51 11.8811C139.379 12.171 140.191 12.7507 140.712 13.5623C141.292 14.4318 141.582 15.4173 141.524 16.4608C141.524 17.2144 141.408 17.9101 141.234 18.6058C141.002 19.2434 140.654 19.8231 140.191 20.2869C139.611 20.8666 138.973 21.2144 138.22 21.4463C137.234 21.7362 136.191 21.8521 135.089 21.8521C134.046 21.8521 133.176 21.8521 132.539 21.7362V28.171H129.466ZM134.741 19.5333C135.321 19.5333 135.843 19.4753 136.423 19.3594C136.828 19.2434 137.176 19.1275 137.524 18.8956C137.756 18.7217 137.988 18.4898 138.162 18.2C138.336 17.9681 138.394 17.6782 138.452 17.3884C138.51 17.0985 138.51 16.8086 138.51 16.5188C138.568 15.7072 138.22 14.9536 137.64 14.4318C136.886 13.9101 136.017 13.6782 135.089 13.7362H132.539V19.5913C132.654 19.5333 133.35 19.5333 134.741 19.5333Z" fill="white"/>
<path d="M146.625 28.4033C145.582 28.4613 144.596 28.1135 143.785 27.4178C143.031 26.7222 142.625 25.6787 142.683 24.6352C142.625 23.5338 143.089 22.4323 143.959 21.7367C145.118 20.983 146.452 20.5772 147.843 20.5193C148.075 20.4613 148.365 20.4613 148.596 20.4033L149.524 20.2874L150.336 20.2294V19.5338C150.394 18.9541 150.22 18.3164 149.814 17.8526C149.35 17.4468 148.77 17.2729 148.191 17.3309C146.857 17.3888 145.582 17.6787 144.423 18.2004C144.423 18.2004 144.307 17.8526 144.017 17.157L143.669 16.1135C145.176 15.4758 146.857 15.128 148.481 15.1859C150.162 15.1859 151.437 15.5338 152.191 16.2874C152.944 17.041 153.35 18.2004 153.35 19.8816V28.1135H151.147C151.147 28.1135 151.031 27.8236 150.915 27.3599C150.799 26.8961 150.683 26.6062 150.683 26.6062C150.162 27.128 149.524 27.5917 148.828 27.9396C148.133 28.2874 147.379 28.4033 146.625 28.4033ZM147.437 26.2584C148.075 26.2584 148.712 26.0845 149.234 25.7367C149.698 25.4468 150.104 25.041 150.336 24.5193V22.0845L149.756 22.1425L149.118 22.2004C148.191 22.2584 147.263 22.4903 146.452 22.8961C145.872 23.2439 145.582 23.9396 145.582 24.5772C145.582 25.041 145.698 25.5048 146.046 25.7946C146.452 26.1425 146.973 26.3164 147.437 26.2584Z" fill="white"/>
<path d="M156.423 13.7353V11.1846H159.437V13.7353H156.423ZM156.423 28.1701V15.5904H159.437V28.1701H156.423Z" fill="white"/>
<path d="M167.263 28.4021C165.756 28.4601 164.307 27.7645 163.379 26.605C162.394 25.2137 161.872 23.4746 161.988 21.7934C161.93 20.1123 162.394 18.4311 163.379 17.0978C164.307 15.9384 165.756 15.2427 167.263 15.3007C169.06 15.3007 170.336 15.9384 171.031 17.2137C170.973 16.5181 170.915 15.7645 170.915 15.0688V11.0108L173.93 10.8369V28.2282H171.321L170.973 26.4891C170.857 26.721 170.741 26.8949 170.625 27.0108C170.509 27.1847 170.336 27.3587 170.162 27.5326C169.93 27.7065 169.698 27.8804 169.466 27.9963C169.176 28.1123 168.828 28.2282 168.538 28.2862C168.133 28.3442 167.669 28.4021 167.263 28.4021ZM167.959 26.1413C169.988 26.1413 170.973 24.75 171.031 22.0253C171.031 20.4601 170.741 19.3587 170.22 18.663C169.698 17.9674 168.828 17.5616 167.901 17.6195C167.031 17.5616 166.22 17.9674 165.756 18.663C165.176 19.5905 164.886 20.75 164.944 21.8514C164.886 22.9529 165.176 24.1123 165.756 25.0398C166.278 25.7355 167.089 26.1413 167.959 26.1413Z" fill="white"/>
<path d="M43.8429 17.504H14.0458C13.1182 17.446 12.1907 17.0982 11.495 16.5185C10.9153 15.8808 10.6255 15.0112 10.6835 14.1416C10.6835 11.1272 13.0603 10.7793 14.0458 10.7214H24.6545L21.8139 0.0546875H14.1037C9.23418 0.0546875 0.0167847 3.01121 0.0167847 14.1416C0.0167847 25.2721 9.23418 28.2286 14.1037 28.2286L46.6835 28.1706L43.8429 17.504Z" fill="white"/>
<path d="M27.7849 39.7653H38.5675L37.1182 34.49H39.9588C44.8284 34.49 53.9878 31.5334 53.9878 20.403C53.9878 9.27257 44.8284 6.37402 39.9588 6.37402H18.8574L21.8719 17.5045H39.7269C40.7704 17.5045 43.4371 17.2146 43.611 20.2871C43.7269 23.1276 41.0603 23.3016 40.0168 23.3595H23.3791L27.7849 39.7653Z" fill="#0C97FA"/>
</g>
<defs>
<clipPath id="clip0_155_819">
<rect width="173.913" height="40" fill="white" transform="translate(0.0167847 0.0546875)"/>
</clipPath>
</defs>
</svg>
