<svg width="125" height="41" viewBox="0 0 125 41" fill="none" xmlns="http://www.w3.org/2000/svg">
<g clip-path="url(#clip0_155_831)">
<path d="M23.5696 4.93531C24.8468 4.96578 25.9254 3.90136 25.9709 2.56565C26.0137 1.3116 24.9559 0.206195 23.6742 0.16533C22.3507 0.123134 21.2469 1.13968 21.1985 2.44545C21.1485 3.79282 22.2055 4.90281 23.5696 4.93531Z" fill="#97CF00"/>
<path d="M78.3811 7.69965C78.3807 6.14155 78.3807 4.58348 78.3811 3.02539C78.3815 1.43163 79.5972 0.181412 81.146 0.179689C82.7283 0.177926 83.951 1.41388 83.9534 3.01894C83.9534 3.19098 83.9539 3.36303 83.9547 3.53508C83.9563 4.17288 83.958 4.8107 83.9485 5.44831C83.9456 5.65227 84.005 5.70394 84.2046 5.7015L84.2466 5.70101C85.0223 5.69165 85.7988 5.68229 86.5741 5.70699C87.906 5.74942 88.927 6.81433 88.9308 8.13441C88.9349 9.44216 87.8615 10.514 86.5134 10.5345C85.744 10.5462 84.9745 10.5429 84.205 10.5323C84.0079 10.5296 83.9473 10.5783 83.9485 10.7852C83.953 11.6836 83.953 12.5821 83.9526 13.4806C83.9522 14.2735 83.9522 15.0664 83.9555 15.8593C83.9596 16.9227 84.5617 17.5371 85.6194 17.5036C86.8788 17.4639 87.8446 17.9305 88.4227 19.0595C89.3262 20.8239 88.0574 22.9642 86.0767 23.0641C83.9295 23.1724 82.0112 22.6251 80.4677 21.069C79.0743 19.664 78.4108 17.9349 78.3868 15.9721C78.3691 14.5166 78.3732 13.0608 78.3774 11.6051C78.379 10.9696 78.3811 10.3341 78.3811 9.6987V7.69965Z" fill="#97CF00"/>
<path d="M69.4644 23.3551C65.1122 23.3546 61.2817 19.9266 60.7881 15.4401C60.2673 10.7071 63.5201 6.4132 68.2442 5.66973C70.7378 5.27724 73.0281 5.84742 75.0467 7.39089C76.2702 8.3266 76.5139 10.0324 75.6141 11.223C74.6706 12.472 72.9704 12.7273 71.7056 11.8098C69.5881 10.2735 66.8099 11.3623 66.3126 13.9233C65.9745 15.6652 67.3345 17.5221 69.1159 17.7717C70.0834 17.9072 70.9328 17.661 71.7168 17.0911C72.8376 16.276 74.3184 16.3826 75.2957 17.3236C76.2405 18.2332 76.4133 19.7084 75.7044 20.8165C75.3209 21.4166 74.7308 21.7764 74.1423 22.1285C72.7563 22.9579 71.2425 23.3368 69.4644 23.3551Z" fill="#97CF00"/>
<path d="M28.9715 12.5463C28.9721 13.1272 28.9727 13.7081 28.9727 14.289C28.9727 14.8918 28.9726 15.4945 28.9725 16.0972C28.9722 17.4933 28.972 18.8895 28.973 20.2856C28.9741 21.8544 30.1743 23.0669 31.7235 23.0681C33.2809 23.0692 34.4728 21.8671 34.4731 20.2936C34.4733 19.3391 34.4733 18.3847 34.4733 17.4302C34.4733 16.1193 34.4732 14.8084 34.4738 13.4975C34.4739 13.2518 34.4788 13.0059 34.5411 12.7656C34.7906 11.8036 35.6449 11.1592 36.7362 11.1236C37.3351 11.1041 37.8854 10.9381 38.3863 10.6144C39.3494 9.99222 39.7988 8.89692 39.5635 7.76302C39.3284 6.62937 38.4837 5.765 37.3435 5.637C36.0406 5.49082 34.7712 5.71049 33.5671 6.24443C33.3975 6.31964 33.2847 6.31243 33.1277 6.20335C32.2534 5.59618 31.3196 5.50958 30.3734 6.0029C29.4357 6.49177 28.9804 7.30467 28.9754 8.35403C28.9687 9.75144 28.9701 11.1489 28.9715 12.5463Z" fill="#97CF00"/>
<path d="M20.8235 14.2855C20.8235 13.6824 20.8234 13.0793 20.8233 12.4762V12.4701C20.8232 11.0655 20.8231 9.66096 20.8236 8.25638C20.8242 6.75572 22.0117 5.53407 23.5086 5.49234C25.0389 5.4497 26.328 6.61758 26.3719 8.13878C26.3976 9.02735 26.3933 9.9168 26.3889 10.8062C26.3872 11.1576 26.3855 11.509 26.3856 11.8603L26.3859 12.6178C26.3869 15.1543 26.3879 17.6908 26.3848 20.2273C26.3835 21.3362 25.9004 22.1894 24.9331 22.7235C24.0098 23.2333 23.0541 23.2111 22.1541 22.6598C21.2919 22.1316 20.8265 21.3429 20.8246 20.3146C20.8218 18.8935 20.8224 17.4723 20.823 16.0511C20.8232 15.4626 20.8235 14.8741 20.8235 14.2855Z" fill="#97CF00"/>
<path fill-rule="evenodd" clip-rule="evenodd" d="M13.208 6.00075C13.208 5.68149 13.2077 5.36174 13.2074 5.0417V5.04116C13.2067 4.31964 13.206 3.59645 13.2089 2.8733C13.2141 1.54063 14.0522 0.453044 15.304 0.145454C17.1341 -0.304271 18.7698 0.96778 18.77 2.84276C18.7701 3.95861 18.7703 5.07444 18.7704 6.19032C18.7711 10.8868 18.7718 15.5832 18.768 20.2797C18.767 21.4273 18.2312 22.2766 17.1854 22.7301C16.1593 23.1749 15.1775 23.0259 14.336 22.2543C14.2028 22.1322 14.1176 22.1753 14.0131 22.2281C14.0058 22.2319 13.9983 22.2356 13.9907 22.2394C13.9833 22.2431 13.9758 22.2468 13.9682 22.2504C10.9032 23.7002 7.88201 23.6391 5.01387 21.8012C2.48168 20.1784 1.09277 17.7965 0.941635 14.7791C0.70754 10.1054 4.00997 6.13452 8.62808 5.47815C10.0839 5.27126 11.5081 5.43926 12.8942 5.93225C12.9164 5.94013 12.9383 5.95011 12.9606 5.96029C13.0318 5.99275 13.107 6.02702 13.208 6.00075ZM13.2078 14.3298C13.2052 16.2012 11.6903 17.7081 9.82486 17.695C7.96539 17.6818 6.47616 16.1832 6.47492 14.3239C6.47368 12.4467 7.97187 10.9461 9.84614 10.9473C11.7207 10.9485 13.2105 12.4475 13.2078 14.3298Z" fill="#97CF00"/>
<path fill-rule="evenodd" clip-rule="evenodd" d="M107.569 16.155C107.569 15.5659 107.57 14.9768 107.57 14.3877C107.57 13.7874 107.571 13.1871 107.572 12.5868C107.575 11.147 107.578 9.70712 107.564 8.26745C107.553 7.15438 106.983 6.36506 105.982 5.91112C105.028 5.47825 103.9 5.67731 103.193 6.40361C102.975 6.62749 102.831 6.61495 102.58 6.49166C100.847 5.63912 99.0256 5.36609 97.1151 5.6971C92.3687 6.51937 89.1072 11.0931 89.8788 15.854C90.8417 21.7943 97.2916 25.094 102.685 22.3994C102.912 22.286 103.053 22.2804 103.267 22.4492C104.126 23.1286 105.088 23.2918 106.085 22.8052C107.075 22.3226 107.571 21.4976 107.57 20.385C107.569 18.975 107.569 17.565 107.569 16.155ZM98.6742 11.0915C96.8041 11.1007 95.3175 12.5858 95.3159 14.4472C95.3142 16.3105 96.8 17.8078 98.6615 17.8181C100.518 17.8284 102.058 16.2943 102.048 14.4451C102.038 12.5942 100.517 11.0825 98.6742 11.0915Z" fill="#97CF00"/>
<path fill-rule="evenodd" clip-rule="evenodd" d="M46.4413 16.4749C47.2004 17.5763 48.1806 18.2589 49.4462 18.5042C50.7349 18.7539 51.951 18.5239 53.0945 17.8916C54.2392 17.2588 55.6462 17.6371 56.3023 18.756C56.9489 19.86 56.6091 21.3453 55.5114 21.9958C51.2437 24.5241 45.2512 23.511 42.433 19.0407C40.3869 15.7955 40.8376 11.2871 43.5011 8.42223C45.1699 6.62743 47.2351 5.68071 49.692 5.57118C54.1068 5.37444 58.1303 8.53992 58.8165 13.1736C59.0058 14.4514 58.5765 15.4755 57.6309 16.0148C57.0264 16.3593 56.3662 16.4744 55.6804 16.4745C53.4825 16.4751 51.2846 16.4751 49.0862 16.475C48.5291 16.4749 47.9724 16.4749 47.4153 16.4749H46.4413ZM49.9922 12.5058C49.7048 12.5058 49.4173 12.5054 49.1299 12.505C48.3402 12.5039 47.5505 12.5028 46.7608 12.5101C46.5114 12.5124 46.4656 12.4593 46.5559 12.2167C47.2301 10.4075 49.5592 9.4518 51.4301 10.2348C52.367 10.627 53.0623 11.2716 53.4553 12.2236C53.5464 12.4449 53.5159 12.5153 53.254 12.5118C52.4586 12.5014 51.6631 12.503 50.8677 12.5046C50.5757 12.5052 50.2841 12.5058 49.9922 12.5058Z" fill="#97CF00"/>
<path fill-rule="evenodd" clip-rule="evenodd" d="M109.485 12.8673C109.484 13.3798 109.483 13.8923 109.483 14.4047C109.483 14.9028 109.484 15.4008 109.485 15.8989C109.488 17.2764 109.492 18.654 109.47 20.0312C109.463 20.4528 109.595 20.7134 109.899 20.9871C112.502 23.3323 116.373 23.9145 119.548 22.4276C119.752 22.3319 119.798 22.2154 119.797 22.01C119.792 20.7839 119.793 19.5577 119.793 18.3314C119.793 17.9383 119.793 17.5451 119.793 17.152C119.793 16.6064 119.609 16.4192 119.054 16.414C118.701 16.4107 118.346 16.4114 117.993 16.4122C117.823 16.4126 117.654 16.4129 117.485 16.4128C116.722 16.4125 116.355 16.0468 116.355 15.2839C116.355 12.2194 116.355 9.15494 116.355 6.09049C116.355 5.99853 116.355 5.87837 116.369 5.81701C116.474 5.59305 116.346 5.58892 116.191 5.58398L116.181 5.58365C115.326 5.55577 114.478 5.61358 113.651 5.83548C112.312 6.19457 111.07 6.75787 109.985 7.63564C109.645 7.91136 109.464 8.23923 109.471 8.71668C109.492 10.1 109.488 11.4837 109.485 12.8673ZM113.74 16.4225C113.521 16.4226 113.302 16.4226 113.08 16.4226C113.092 16.3996 113.098 16.385 113.102 16.3769C113.105 16.3723 113.107 16.3698 113.109 16.3692C113.138 16.3617 113.167 16.3567 113.196 16.3508C113.207 16.3486 113.217 16.3463 113.228 16.3437C113.942 16.1688 114.622 15.9142 115.18 15.4206C115.929 14.7589 116.28 13.9375 116.011 12.9452C115.754 12.0006 115.055 11.571 114.117 11.4464C112.932 11.2888 111.925 11.7014 111.399 12.5883C111.264 12.816 111.23 13.0491 111.261 13.3212C111.304 13.6989 111.576 13.8067 111.839 13.9105C111.944 13.9521 112.048 13.993 112.134 14.0504C112.282 14.1479 112.505 13.8593 112.669 13.6465L112.669 13.6462C112.687 13.6227 112.705 13.6001 112.722 13.5791C112.73 13.5679 112.739 13.5565 112.748 13.5452V13.5451C112.764 13.5238 112.78 13.5024 112.797 13.4823C113.118 13.113 113.768 12.9268 114.2 13.0801C114.512 13.1905 114.584 13.4665 114.351 13.6993C114.259 13.7923 114.146 13.8686 114.033 13.9375C113.673 14.1572 113.281 14.3077 112.889 14.4577C112.302 14.6817 111.837 15.0489 111.559 15.6235C111.309 16.1413 111.206 16.6918 111.238 17.2638C111.267 17.788 111.638 18.1335 112.161 18.1348C113.156 18.1373 114.15 18.1365 115.146 18.1352C115.741 18.1345 116.101 17.7708 116.099 17.1759C116.097 16.5929 115.896 16.423 115.205 16.4227C114.718 16.4224 114.231 16.4225 113.74 16.4225Z" fill="white"/>
<path d="M121.395 21.228L121.395 18.5976C121.395 16.4871 121.395 14.3766 121.394 12.2661C121.394 11.6862 121.118 11.4183 120.542 11.4294C120.039 11.4391 119.774 11.6974 119.762 12.2176C119.755 12.5276 119.756 12.8377 119.758 13.1479V13.1487C119.758 13.351 119.76 13.5533 119.758 13.7555C119.753 14.4897 119.355 14.8026 118.642 14.6377C118.267 14.5508 118.084 14.3059 118.082 13.834C118.08 13.3832 118.088 12.9325 118.095 12.4817C118.098 12.2665 118.102 12.0513 118.104 11.836C118.106 11.6156 118.109 11.3952 118.112 11.1748L118.114 10.9651C118.124 10.1385 118.134 9.31187 118.14 8.48519C118.144 7.89867 118.143 7.31212 118.142 6.72078V6.72032V6.70985C118.142 6.4489 118.141 6.18704 118.141 5.92383C120.468 6.4534 123.475 8.57867 124.386 12.2936C125.236 15.7628 123.897 19.2328 121.395 21.228Z" fill="white"/>
<path d="M102.108 27.7674C102.338 28.0044 102.569 28.2426 102.801 28.4826C102.692 28.5178 102.58 28.5548 102.465 28.5925C102.21 28.6763 101.943 28.7642 101.674 28.8477C92.8351 31.5901 83.8099 33.3764 74.5839 34.1478C71.1794 34.4325 67.7695 34.5795 64.3542 34.5944C62.2008 34.6038 60.0483 34.5487 57.8965 34.446C55.7452 34.3434 53.5959 34.2079 51.4544 33.9896C47.9159 33.6288 44.3901 33.171 40.8862 32.5479C35.3521 31.5637 29.905 30.2349 24.5652 28.4776L24.4255 28.4316C22.3135 27.7367 20.2007 27.0415 18.1709 26.1226C17.9646 26.0293 17.7476 25.9656 17.5188 25.9609C17.1162 25.9526 16.675 26.2497 16.583 26.5864C16.5076 26.8625 16.6521 27.0858 17.0886 27.3372C17.2297 27.4185 17.3736 27.4948 17.5176 27.5711C17.6904 27.6627 17.8632 27.7543 18.031 27.8545C24.8332 31.9156 32.0972 34.8537 39.7775 36.7764C44.2982 37.9081 48.8825 38.6708 53.52 39.1322C56.3373 39.4125 59.1608 39.5772 61.9893 39.6571C64.3175 39.7229 66.6425 39.654 68.9687 39.5079C72.7889 39.2679 76.5848 38.8473 80.3575 38.2054C85.1023 37.3982 89.7584 36.2426 94.3043 34.6602C97.567 33.5244 100.772 32.2492 103.789 30.5471C104.404 30.2004 104.444 30.2152 104.577 30.9106C104.661 31.3461 104.743 31.7819 104.825 32.2177C104.951 32.8885 105.077 33.5592 105.21 34.2287C105.236 34.3638 105.259 34.5001 105.281 34.6364C105.337 34.9756 105.393 35.315 105.516 35.637C105.763 36.2854 106.542 36.4003 106.972 35.8572C107.091 35.707 107.187 35.5376 107.282 35.37L107.301 35.3386C108.043 34.0322 108.784 32.7251 109.525 31.4179C109.774 30.9792 110.023 30.5404 110.272 30.1017C110.412 29.8552 110.554 29.6098 110.696 29.3645C111.011 28.8205 111.325 28.2765 111.617 27.7201C112.211 26.5826 111.592 25.3332 110.328 25.1397C109.838 25.0647 109.341 25.0355 108.845 25.0064C108.635 24.9941 108.424 24.9817 108.215 24.9659C107.631 24.9219 107.047 24.8785 106.464 24.8352C105.483 24.7623 104.503 24.6895 103.523 24.6137C103.16 24.5856 102.798 24.5534 102.435 24.5212C101.981 24.4809 101.526 24.4405 101.071 24.4083C100.556 24.3718 100.234 24.5872 100.089 25.0184C99.9518 25.4272 100.135 25.7319 100.405 26.0109C100.971 26.5935 101.536 27.1766 102.108 27.7674Z" fill="white"/>
</g>
<defs>
<clipPath id="clip0_155_831">
<rect width="123.711" height="40" fill="white" transform="translate(0.929932 0.0546875)"/>
</clipPath>
</defs>
</svg>
