<svg width="101" height="41" viewBox="0 0 101 41" fill="none" xmlns="http://www.w3.org/2000/svg">
<g clip-path="url(#clip0_155_745)">
<path d="M48.1516 19.5967V31.3217H44.4589V2.3662H54.2526C55.4216 2.34161 56.5839 2.55045 57.6723 2.98069C58.7606 3.41095 59.7539 4.05405 60.5943 4.87291C61.4433 5.64208 62.1189 6.58538 62.5756 7.63941C63.0326 8.69341 63.2603 9.83378 63.2433 10.9838C63.2676 12.1399 63.0436 13.2877 62.5863 14.3485C62.1289 15.4092 61.4496 16.3578 60.5943 17.1293C58.8816 18.7742 56.7679 19.5959 54.2526 19.5944H48.1516V19.5967ZM48.1516 5.93105V16.0388H54.3443C55.0233 16.0591 55.6989 15.9364 56.3279 15.6786C56.9569 15.4208 57.5259 15.0336 57.9979 14.5417C58.4676 14.0818 58.8409 13.5317 59.0956 12.924C59.3506 12.3162 59.4819 11.6632 59.4819 11.0034C59.4819 10.3436 59.3506 9.69061 59.0956 9.08285C58.8409 8.47511 58.4676 7.92501 57.9979 7.46511C57.5319 6.96288 56.9649 6.56618 56.3349 6.30128C55.7053 6.03641 55.0266 5.90945 54.3443 5.92875H48.1516V5.93105ZM71.7526 10.8636C74.4819 10.8636 76.6366 11.5983 78.2159 13.0677C79.7956 14.5371 80.5846 16.5517 80.5829 19.1115V31.3217H77.0509V28.5724H76.8903C75.3613 30.8365 73.3276 31.9686 70.7893 31.9686C68.6226 31.9686 66.8099 31.3217 65.3513 30.0279C64.6513 29.4341 64.0916 28.6904 63.7129 27.8511C63.3343 27.0118 63.1466 26.0979 63.1633 25.1762C63.1633 23.1261 63.9323 21.4958 65.4706 20.2852C67.0086 19.0746 69.0623 18.4677 71.6309 18.4646C73.8236 18.4646 75.6296 18.869 77.0486 19.6776V18.8274C77.0526 18.199 76.9179 17.5776 76.6543 17.0081C76.3903 16.4387 76.0039 15.9355 75.5233 15.5351C74.5469 14.6477 73.2743 14.1635 71.9589 14.179C69.8963 14.179 68.2639 15.0554 67.0623 16.8081L63.8099 14.745C65.5989 12.1574 68.2466 10.8636 71.7526 10.8636ZM66.9749 25.257C66.9726 25.7304 67.0826 26.1976 67.2956 26.6195C67.5086 27.0415 67.8186 27.4061 68.1999 27.6829C69.0166 28.33 70.0303 28.6728 71.0693 28.6533C72.6273 28.6506 74.1209 28.0259 75.2229 26.9159C76.4459 25.7561 77.0576 24.3953 77.0576 22.8335C75.9063 21.9094 74.3009 21.4473 72.2413 21.4473C70.7413 21.4473 69.4903 21.8116 68.4889 22.5401C67.4773 23.2794 66.9749 24.1781 66.9749 25.257ZM100.858 11.5105L88.5279 40.0547H84.7159L89.2916 30.0672L81.1839 11.5105H85.1976L91.0579 25.7422H91.1383L96.8376 11.5105H100.858Z" fill="#5F6368"/>
<path d="M33.2292 17.0689C33.2306 15.9353 33.1355 14.8037 32.9448 13.6865H17.3713V20.0931H26.2911C26.1086 21.1163 25.7223 22.0917 25.1554 22.9605C24.5886 23.8293 23.853 24.5734 22.9929 25.1481V29.3067H28.3164C31.4333 26.4119 33.2292 22.1308 33.2292 17.0689Z" fill="#4285F4"/>
<path d="M17.3715 33.3248C21.8279 33.3248 25.5802 31.8508 28.3165 29.3095L22.9931 25.1509C21.5114 26.1628 19.6031 26.7404 17.3715 26.7404C13.0641 26.7404 9.4081 23.8155 8.10076 19.874H2.61676V24.1597C3.99124 26.9148 6.09883 29.2308 8.7043 30.8492C11.3097 32.4676 14.3105 33.3247 17.3715 33.3248Z" fill="#34A853"/>
<path d="M8.10071 19.8737C7.40954 17.8084 7.40954 15.5717 8.10071 13.5064V9.2207H2.61671C1.46045 11.5383 0.858276 14.0962 0.858276 16.6901C0.858276 19.2839 1.46045 21.8418 2.61671 24.1594L8.10071 19.8737Z" fill="#FBBC04"/>
<path d="M17.3715 6.64025C19.7265 6.60149 22.0021 7.49779 23.7064 9.13542L28.4197 4.38765C25.431 1.55998 21.4715 0.00754116 17.3715 0.0557789C14.3105 0.0559194 11.3097 0.913041 8.7043 2.53145C6.09883 4.14985 3.99124 6.46589 2.61676 9.22089L8.10073 13.5066C9.4081 9.56515 13.0641 6.64025 17.3715 6.64025Z" fill="#EA4335"/>
</g>
<defs>
<clipPath id="clip0_155_745">
<rect width="100" height="40" fill="white" transform="translate(0.858276 0.0546875)"/>
</clipPath>
</defs>
</svg>
