<svg width="111" height="41" viewBox="0 0 111 41" fill="none" xmlns="http://www.w3.org/2000/svg">
<g clip-path="url(#clip0_155_844)">
<path d="M9.87957 37.1329C9.87957 37.1242 9.87957 37.1155 9.87957 37.1067C9.87957 37.098 9.87957 37.0657 9.87957 37.0447C9.87957 37.0395 9.87957 37.0333 9.87957 37.0281C9.87957 37.0045 9.87957 36.9801 9.87258 36.9565V36.9504C9.82631 36.5903 9.65686 36.2573 9.393 36.0079C9.12914 35.7585 8.78712 35.6081 8.425 35.5823H8.23193C7.94155 35.5634 7.65139 35.6223 7.3914 35.753C7.1314 35.8837 6.91098 36.0814 6.75289 36.3257C6.60683 36.0899 6.401 35.8969 6.15628 35.7664C5.91156 35.6358 5.63666 35.5723 5.35946 35.5823C5.11174 35.561 4.86284 35.6065 4.63866 35.714C4.41449 35.8216 4.22325 35.9872 4.08485 36.1938V35.6967H4.07088V35.6836H3.16493V39.9207H4.09272V39.9076H4.10582V37.5925C4.08315 37.3409 4.15731 37.0903 4.31317 36.8915C4.46902 36.6928 4.69482 36.5611 4.9445 36.5232H5.13757C5.74298 36.5232 6.05225 36.9224 6.05225 37.644V40.0028H6.93897V39.9381H6.97741V37.5925V37.5759C6.95967 37.4493 6.96845 37.3204 7.00319 37.1974C7.03793 37.0744 7.09787 36.96 7.17921 36.8614C7.26054 36.7628 7.36149 36.6822 7.47564 36.6247C7.5898 36.5673 7.71466 36.5342 7.84229 36.5275H8.02226C8.65301 36.5275 8.94917 36.9268 8.94917 37.6484V40.0071H9.87608V37.2649C9.87608 37.2509 9.87608 37.2378 9.87608 37.2247C9.87608 37.2116 9.87608 37.2011 9.87608 37.1897C9.87608 37.1784 9.87957 37.1504 9.87957 37.1329Z" fill="white"/>
<path d="M18.2724 37.3352H17.8356C17.4364 37.2837 17.114 37.2068 17.114 36.9229C17.1141 36.8309 17.1477 36.7421 17.2084 36.673C17.3429 36.5568 17.5666 36.4852 17.861 36.4852C18.3137 36.4952 18.7566 36.6193 19.1487 36.846L19.1827 36.7848L19.2002 36.7944L19.6126 36.0475C19.0913 35.7393 18.4923 35.5877 17.8872 35.6107C17.5271 35.6037 17.1708 35.686 16.8502 35.85C16.3592 36.0702 16.0709 36.4756 16.0709 37.0146C16.0709 37.8515 16.5864 38.1354 17.5264 38.3023H17.9632C18.4655 38.3669 18.7101 38.5085 18.7101 38.7391C18.7101 38.8719 18.6 39.0204 18.3895 39.1244C18.1972 39.182 17.997 39.2085 17.7963 39.203C17.2929 39.2171 16.799 39.0634 16.3924 38.7662L16.3548 38.8273L16.3409 38.8177L15.9521 39.4861C16.4879 39.8637 17.1314 40.058 17.7867 40.0399C19.0098 40.0399 19.7183 39.4607 19.7183 38.6622C19.721 38.499 19.6913 38.3369 19.6309 38.1852C19.4466 37.6908 18.9521 37.4767 18.2724 37.3352Z" fill="white"/>
<path d="M22.7288 39.1631C22.292 39.1631 22.1233 38.88 22.1233 38.4546V36.523H23.6819V35.6861H22.098V34.3975H21.1702V35.6852H20.3333V36.5221H21.1938V38.4668C21.1938 39.4584 21.58 40.0393 22.6624 40.0393C23.0692 40.043 23.4688 39.9312 23.8147 39.717L23.5439 38.9307C23.2961 39.0757 23.0157 39.1557 22.7288 39.1631V39.1631Z" fill="white"/>
<path d="M35.7623 38.7645L35.7239 38.6999C35.4078 38.9497 35.0189 39.0899 34.6161 39.0991C34.2779 39.084 33.9586 38.939 33.7246 38.6943C33.4906 38.4497 33.36 38.1242 33.36 37.7856C33.36 37.4471 33.4906 37.1216 33.7246 36.8769C33.9586 36.6322 34.2779 36.4872 34.6161 36.4721C35.0174 36.4776 35.4061 36.6131 35.7239 36.8583L36.2131 36.0336C35.7876 35.6841 35.1944 35.5321 34.6406 35.5312C33.4621 35.5312 32.4565 36.3638 32.3866 37.5406V37.7336C32.3866 37.7773 32.3866 37.821 32.3866 37.8629C32.3803 38.4258 32.5975 38.9681 32.9906 39.371C33.3837 39.7739 33.9205 40.0044 34.4833 40.012C34.4833 40.012 34.6283 40.012 34.6764 40.012C35.2273 40.0346 35.7675 39.8561 36.1965 39.5097L35.7597 38.7628L35.7623 38.7645Z" fill="white"/>
<path d="M44.2119 35.5703C43.9937 35.5692 43.7788 35.6235 43.5873 35.7281C43.3958 35.8328 43.2341 35.9844 43.1173 36.1688V35.6988H43.1042V35.6734H42.1895V39.8983H42.2026V39.9236H43.1173V37.5535C43.1173 36.8546 43.4257 36.4719 44.0049 36.4719C44.199 36.4694 44.3919 36.5044 44.5727 36.575H44.5841L44.8689 35.6865C44.6582 35.6105 44.436 35.5712 44.2119 35.5703Z" fill="white"/>
<path d="M14.0869 35.6597V36.1516C13.9253 35.9685 13.7273 35.8211 13.5057 35.7187C13.284 35.6162 13.0434 35.5611 12.7992 35.5566C12.2134 35.6015 11.6693 35.8772 11.2868 36.3232C10.9042 36.7691 10.7145 37.3488 10.7593 37.9346C10.7832 38.2606 10.8757 38.5778 11.0308 38.8656C11.1859 39.1533 11.4 39.405 11.6591 39.6041C11.9929 39.8662 12.4026 39.9789 12.8508 40.0139C13.0849 40.0166 13.3168 39.9682 13.5303 39.872C13.7438 39.7759 13.9337 39.6344 14.0869 39.4574V39.9108H15.0532V35.6982H15.0016L14.0869 35.6597ZM12.9818 39.0992H12.9303C12.5887 39.0992 12.2612 38.9635 12.0197 38.722C11.7782 38.4805 11.6425 38.153 11.6425 37.8115C11.64 37.7728 11.64 37.734 11.6425 37.6953C11.6596 37.3541 11.8114 37.0337 12.0647 36.8044C12.318 36.5752 12.652 36.456 12.9932 36.4731C13.3343 36.4901 13.6548 36.642 13.884 36.8953C14.1132 37.1485 14.2324 37.4825 14.2154 37.8237C14.1778 38.5086 13.665 39.0992 12.9818 39.0992Z" fill="white"/>
<path d="M48.6255 33.9453V36.1608C48.4729 35.9656 48.2773 35.8082 48.054 35.7009C47.8306 35.5936 47.5855 35.5394 47.3377 35.5423C46.7813 35.5852 46.2615 35.8365 45.8823 36.246C45.5032 36.6556 45.2925 37.1931 45.2925 37.7512C45.2925 38.3093 45.5032 38.8469 45.8823 39.2564C46.2615 39.6659 46.7813 39.9173 47.3377 39.9602C47.5853 39.9634 47.8303 39.9095 48.0536 39.8027C48.2769 39.6959 48.4726 39.539 48.6255 39.3443V39.8597H49.5139V33.9453H48.6255ZM48.6255 37.8347C48.5914 38.5196 47.9982 39.097 47.3404 39.097C46.9988 39.097 46.6713 38.9614 46.4298 38.7199C46.1883 38.4784 46.0527 38.1508 46.0527 37.8093C46.0504 37.775 46.0504 37.7406 46.0527 37.7062C46.067 37.3751 46.2086 37.0622 46.4478 36.8328C46.687 36.6033 47.0055 36.4749 47.337 36.4744C47.6684 36.4738 47.9874 36.6011 48.2274 36.8297C48.4674 37.0584 48.61 37.3708 48.6255 37.7019C48.6278 37.747 48.6278 37.7922 48.6255 37.8373V37.8347Z" fill="white"/>
<path d="M40.0771 36.162C39.9269 35.9642 39.7318 35.8049 39.5079 35.6973C39.284 35.5898 39.0377 35.537 38.7894 35.5435C37.6266 35.595 36.746 36.6006 36.7434 37.7459C36.7416 37.8217 36.7436 37.8975 36.7495 37.973C36.8368 39.0633 37.6974 39.9649 38.7894 40.0129C39.0377 40.0194 39.284 39.9667 39.5079 39.8591C39.7318 39.7516 39.9269 39.5923 40.0771 39.3944V39.9099H40.9918V35.6466H40.0771V36.162ZM40.1383 37.8368C40.1299 38.1727 39.9912 38.4922 39.7516 38.7278C39.5119 38.9634 39.1901 39.0965 38.854 39.0991C38.1429 39.0991 37.5663 38.4631 37.5663 37.7083C37.5663 36.9972 38.2058 36.4853 38.9169 36.4853C39.6019 36.4861 40.1383 37.1256 40.1383 37.8368V37.8368Z" fill="white"/>
<path d="M26.7579 35.6051C26.6859 35.5977 26.6136 35.5942 26.5412 35.5946C26.4657 35.5888 26.3899 35.5867 26.3141 35.5885C25.7412 35.5893 25.1909 35.8119 24.7788 36.2098C24.3666 36.6077 24.1247 37.1498 24.1038 37.7223C24.0829 38.2948 24.2846 38.8531 24.6666 39.28C25.0486 39.7069 25.5812 39.9691 26.1525 40.0117C26.2171 40.0169 26.2818 40.0187 26.3473 40.0178C26.4128 40.0169 26.4775 40.0178 26.5421 40.0117H26.6705C27.2621 40.0107 27.8352 39.8062 28.2937 39.4325L27.8569 38.7502L27.822 38.7764L27.8054 38.7502C27.4399 39.041 26.9846 39.1954 26.5177 39.187C26.4845 39.187 26.4513 39.1922 26.4189 39.1931C26.1366 39.1861 25.8662 39.0775 25.6576 38.8872C25.4489 38.6968 25.316 38.4375 25.2832 38.157H28.4283L28.5567 37.8075C28.5834 37.5448 28.558 37.2793 28.482 37.0264C28.406 36.7734 28.2809 36.538 28.1139 36.3334C27.9468 36.1289 27.7411 35.9592 27.5084 35.8343C27.2757 35.7093 27.0207 35.6314 26.7579 35.6051V35.6051ZM25.3951 37.4397C25.4081 37.1609 25.5286 36.898 25.7312 36.706C25.9337 36.514 26.2027 36.4078 26.4818 36.4097C26.7549 36.4083 27.0177 36.514 27.2137 36.7041C27.4097 36.8942 27.5233 37.1536 27.5302 37.4266C27.5302 37.4313 27.5302 37.4356 27.5302 37.4397H25.3951Z" fill="white"/>
<path d="M30.3144 36.1496V35.6997H30.2891V35.6744H29.3744V39.8992H29.3998V39.9245H30.3144V37.5535C30.3144 36.859 30.6228 36.4729 31.2011 36.472C31.3915 36.4709 31.5803 36.5059 31.7576 36.5751V36.5663L31.7803 36.5751L32.0634 35.6866C31.8527 35.6106 31.6304 35.5713 31.4064 35.5704C31.1904 35.5676 30.9772 35.6192 30.7864 35.7204C30.5956 35.8216 30.4333 35.9692 30.3144 36.1496V36.1496Z" fill="white"/>
<path d="M33.2244 3.47559H19.2893V28.5126H33.2244V3.47559Z" fill="#E7621D"/>
<path d="M26.2608 28.5119C23.9122 30.3568 21.0919 31.5038 18.1223 31.8219C15.1527 32.1399 12.1535 31.6162 9.46739 30.3105C6.78132 29.0048 4.51673 26.9698 2.9324 24.4381C1.34807 21.9063 0.507904 18.9799 0.507904 15.9933C0.507904 13.0067 1.34807 10.0803 2.9324 7.54859C4.51673 5.01684 6.78132 2.98185 9.46739 1.67615C12.1535 0.370443 15.1527 -0.153304 18.1223 0.164756C21.0919 0.482815 23.9122 1.62985 26.2608 3.47479C24.3646 4.96431 22.8316 6.86511 21.7774 9.03372C20.7233 11.2023 20.1755 13.5821 20.1755 15.9933C20.1755 18.4046 20.7233 20.7843 21.7774 22.9529C22.8316 25.1215 24.3646 27.0223 26.2608 28.5119V28.5119Z" fill="#E11622"/>
<path d="M52.016 15.9944C52.0163 18.9813 51.1761 21.9081 49.5917 24.4402C48.0072 26.9723 45.7423 29.0075 43.0558 30.3132C40.3694 31.619 37.3697 32.1425 34.3998 31.8241C31.4298 31.5057 28.6094 30.3581 26.2608 28.5125C28.157 27.023 29.69 25.1221 30.7442 22.9535C31.7983 20.7849 32.3461 18.4052 32.3461 15.9939C32.3461 13.5827 31.7983 11.2029 30.7442 9.03434C29.69 6.86573 28.157 4.96493 26.2608 3.47541C28.6094 1.62874 31.4303 0.480267 34.4009 0.161303C37.3714 -0.157661 40.3718 0.365763 43.0589 1.67172C45.746 2.97768 48.0114 5.01347 49.596 7.54629C51.1806 10.0791 52.0204 13.0067 52.0195 15.9944H52.016Z" fill="#F49B21"/>
<path d="M50.1744 25.2412V25.3443H50.4059V25.8597H50.4932V25.3443H50.7248V25.2412H50.1744ZM51.359 25.2412L51.179 25.678L50.9991 25.2412H50.8575V25.8597H50.9737V25.3958L51.1415 25.7951H51.2577L51.4254 25.3958V25.8597H51.5128V25.2412H51.359Z" fill="#F49B21"/>
<path d="M78.1153 39.7329H73.4695L76.3725 21.8857H81.0201L78.1153 39.7329Z" fill="#0E66AF"/>
<path d="M69.56 21.8896L65.1307 34.1649L64.6066 31.5222L63.0402 23.4936C63.0402 23.4936 62.855 21.8896 60.8387 21.8896H53.5177L53.4304 22.1919C53.4304 22.1919 55.6694 22.6567 58.2912 24.2318L62.3273 39.7359H67.168L74.5615 21.8896H69.56Z" fill="#0E66AF"/>
<path d="M106.11 39.7333H110.376L106.655 21.8896H102.92C101.195 21.8896 100.774 23.2193 100.774 23.2193L93.844 39.7333H98.6839L99.6527 37.0828H105.559L106.11 39.7333ZM100.995 33.4214L103.436 26.7409L104.81 33.4214H100.995Z" fill="#0E66AF"/>
<path d="M94.2074 26.1775L94.8705 22.3449C94.8705 22.3449 92.8236 21.5674 90.692 21.5674C88.3856 21.5674 82.9098 22.5755 82.9098 27.4757C82.9098 32.0866 89.337 32.1443 89.337 34.5642C89.337 36.9841 83.5711 36.5526 81.6692 35.0255L80.9791 39.0319C80.9791 39.0319 83.0531 40.0409 86.2208 40.0409C89.3885 40.0409 94.176 38.3985 94.176 33.9317C94.176 29.2919 87.6911 28.8586 87.6911 26.8414C87.6911 24.8242 92.2191 25.0819 94.2074 26.1775Z" fill="#0E66AF"/>
<path d="M64.6039 31.4994L63.0445 23.4927C63.0445 23.4927 62.8567 21.8896 60.8465 21.8896H53.5405L53.4531 22.191C53.4531 22.191 56.9677 22.9188 60.3319 25.6462C63.5556 28.2513 64.6039 31.4994 64.6039 31.4994Z" fill="#F6A335"/>
</g>
<defs>
<clipPath id="clip0_155_844">
<rect width="109.869" height="40" fill="white" transform="translate(0.504761 0.0546875)"/>
</clipPath>
</defs>
</svg>
