<svg width="175" height="41" viewBox="0 0 175 41" fill="none" xmlns="http://www.w3.org/2000/svg">
<g clip-path="url(#clip0_155_669)">
<path fill-rule="evenodd" clip-rule="evenodd" d="M8.98426 3.76254C12.2221 1.59908 16.0288 0.444336 19.9229 0.444336C22.5085 0.444336 25.0688 0.953608 27.4575 1.94308C29.8463 2.93254 32.0168 4.38283 33.8451 6.21113C35.6735 8.03942 37.1237 10.2099 38.1132 12.5987C39.1027 14.9875 39.612 17.5478 39.612 20.1334C39.612 24.0275 38.4572 27.8342 36.2938 31.0721C34.1303 34.3099 31.0553 36.8335 27.4575 38.3237C23.8599 39.8139 19.9011 40.2038 16.0818 39.4441C12.2625 38.6844 8.75417 36.8092 6.00063 34.0557C3.24706 31.3021 1.37186 27.7939 0.612154 23.9746C-0.147552 20.1552 0.242357 16.1964 1.73257 12.5987C3.22279 9.00099 5.74639 5.92597 8.98426 3.76254ZM18.194 27.6918L20.242 20.7811L23.3997 19.8619L24.0712 17.5901L20.9421 18.5427L24.276 7.1931C24.2996 7.10939 24.3034 7.02134 24.2872 6.93589C24.271 6.85044 24.2352 6.76986 24.1825 6.70064C24.1299 6.63136 24.0619 6.57531 23.9839 6.53676C23.9059 6.49826 23.82 6.47838 23.7331 6.47867H19.4942C19.331 6.47896 19.1724 6.5327 19.0425 6.63154C18.9127 6.73044 18.8188 6.8691 18.7751 7.02638L14.803 20.4477L11.6691 21.4003L10.9785 23.634L14.1076 22.6815L11.2786 32.2354H28.01C28.1732 32.2357 28.3321 32.1829 28.4627 32.0849C28.5932 31.987 28.6884 31.8493 28.7339 31.6925L29.6865 28.411C29.7108 28.3274 29.7154 28.2392 29.6999 28.1535C29.6843 28.0678 29.649 27.9868 29.5968 27.9171C29.5447 27.8474 29.477 27.7907 29.3991 27.7516C29.3212 27.7125 29.2354 27.6921 29.1483 27.6918H18.194Z" fill="#A5A8A9"/>
<path d="M72.1399 33.2433H68.7828V14.4736H72.1399V33.2433Z" fill="#A5A8A9"/>
<path d="M70.4431 11.0804C69.842 11.0804 69.3243 10.8879 68.8912 10.5029C68.482 10.0938 68.2779 9.55235 68.2779 8.87855C68.2779 8.20482 68.482 7.67537 68.8912 7.29038C69.3243 6.88128 69.842 6.67676 70.4431 6.67676C71.0449 6.67676 71.5504 6.88128 71.9596 7.29038C72.3927 7.67537 72.6095 8.20482 72.6095 8.87855C72.6095 9.55235 72.3927 10.0938 71.9596 10.5029C71.5504 10.8879 71.0449 11.0804 70.4431 11.0804Z" fill="#A5A8A9"/>
<path d="M65.3341 30.2107V33.2427H50.2821V8.22852H53.7833V30.2107H65.3341Z" fill="#A5A8A9"/>
<path d="M88.1637 14.4735H81.053V8.66211L77.6959 9.23962V25.988C77.6959 27.2393 77.7927 28.3462 77.9851 29.3088C78.2014 30.2472 78.5625 31.0414 79.068 31.691C79.573 32.3409 80.235 32.8341 81.053 33.1709C81.8953 33.4837 82.9538 33.6404 84.2292 33.6404C85.3121 33.6404 86.275 33.5078 87.1173 33.2432C87.9591 33.0026 88.5486 32.7981 88.8854 32.6295L88.2362 29.8502C87.9956 29.9465 87.562 30.1149 86.9365 30.3556C86.3347 30.5721 85.5289 30.6804 84.5179 30.6804C83.9405 30.6804 83.4356 30.6082 83.002 30.4638C82.5689 30.3194 82.2083 30.0788 81.9196 29.7419C81.6304 29.381 81.4141 28.8997 81.2698 28.2981C81.1249 27.6724 81.053 26.8903 81.053 25.9518V17.289H88.1637V14.4735Z" fill="#A5A8A9"/>
<path fill-rule="evenodd" clip-rule="evenodd" d="M91.0361 23.894C91.0361 22.2337 91.2767 20.7899 91.7585 19.5626C92.239 18.3113 92.8767 17.2765 93.6709 16.4584C94.4657 15.6402 95.3799 15.0266 96.4147 14.6175C97.4489 14.2084 98.508 14.0039 99.5909 14.0039C102.117 14.0039 104.055 14.798 105.403 16.3862C106.75 17.9503 107.424 20.3447 107.424 23.5692V24.1467C107.424 24.3633 107.412 24.5678 107.387 24.7604H94.5376C94.6819 26.7095 95.2471 28.1895 96.2338 29.2001C97.2205 30.2108 98.7608 30.7161 100.854 30.7161C102.033 30.7161 103.02 30.6199 103.814 30.4274C104.632 30.2108 105.246 30.0063 105.655 29.8138L106.124 32.6292C105.715 32.8456 104.993 33.0743 103.958 33.3151C102.948 33.5556 101.793 33.676 100.493 33.676C98.857 33.676 97.4373 33.4355 96.2338 32.9542C95.0553 32.4488 94.0802 31.7629 93.3103 30.8967C92.5399 30.0303 91.9631 29.0076 91.5776 27.8285C91.2164 26.6254 91.0361 25.3138 91.0361 23.894ZM103.923 22.0532C103.946 20.5372 103.561 19.2979 102.767 18.3354C101.997 17.3488 100.927 16.8554 99.555 16.8554C98.7851 16.8554 98.0987 17.0118 97.497 17.3247C96.9202 17.6135 96.4263 17.9985 96.0176 18.4797C95.6083 18.961 95.2837 19.5145 95.0431 20.1401C94.8263 20.7658 94.6819 21.4035 94.6095 22.0532H103.923Z" fill="#A5A8A9"/>
<path d="M116.397 32.9542C117.552 33.4355 118.887 33.676 120.404 33.676C120.885 33.676 121.378 33.64 121.883 33.5678C122.412 33.5196 122.906 33.4474 123.363 33.351C123.82 33.2788 124.229 33.1947 124.59 33.0983C124.952 32.9782 125.228 32.8578 125.42 32.7374L124.952 29.922C124.542 30.1145 123.977 30.295 123.255 30.4635C122.533 30.6319 121.727 30.7161 120.837 30.7161C119.729 30.7161 118.791 30.5597 118.021 30.2469C117.251 29.91 116.613 29.4408 116.108 28.8391C115.627 28.2376 115.266 27.5157 115.025 26.6734C114.809 25.8312 114.7 24.9048 114.7 23.894C114.7 21.6321 115.194 19.9115 116.18 18.7324C117.191 17.5533 118.634 16.9637 120.512 16.9637C121.258 16.9637 121.956 17.0359 122.605 17.1803C123.279 17.3247 123.869 17.5172 124.374 17.7578L125.132 14.9063C124.362 14.5935 123.556 14.3648 122.713 14.2205C121.871 14.0761 121.029 14.0039 120.187 14.0039C118.815 14.0039 117.564 14.2566 116.433 14.7619C115.326 15.2432 114.387 15.929 113.618 16.8193C112.847 17.6856 112.245 18.7204 111.812 19.9236C111.404 21.1267 111.199 22.4503 111.199 23.894C111.199 25.3379 111.392 26.6614 111.776 27.8646C112.161 29.0437 112.739 30.0665 113.509 30.9327C114.303 31.7989 115.266 32.4728 116.397 32.9542Z" fill="#A5A8A9"/>
<path fill-rule="evenodd" clip-rule="evenodd" d="M145.134 23.858C145.134 25.3499 144.918 26.6975 144.484 27.9007C144.051 29.1039 143.438 30.1386 142.644 31.0049C141.874 31.8711 140.947 32.5451 139.864 33.0264C138.782 33.4833 137.602 33.712 136.327 33.712C135.052 33.712 133.873 33.4833 132.789 33.0264C131.707 32.5451 130.768 31.8711 129.974 31.0049C129.204 30.1386 128.602 29.1039 128.169 27.9007C127.736 26.6975 127.52 25.3499 127.52 23.858C127.52 22.3901 127.736 21.0546 128.169 19.8514C128.602 18.6241 129.204 17.5774 129.974 16.7111C130.768 15.8448 131.707 15.183 132.789 14.7258C133.873 14.2445 135.052 14.0039 136.327 14.0039C137.602 14.0039 138.782 14.2445 139.864 14.7258C140.947 15.183 141.874 15.8448 142.644 16.7111C143.438 17.5774 144.051 18.6241 144.484 19.8514C144.918 21.0546 145.134 22.3901 145.134 23.858ZM141.633 23.858C141.633 21.7404 141.151 20.068 140.189 18.8407C139.251 17.5894 137.963 16.9637 136.327 16.9637C134.691 16.9637 133.391 17.5894 132.429 18.8407C131.49 20.068 131.021 21.7404 131.021 23.858C131.021 25.9756 131.49 27.6601 132.429 28.9114C133.391 30.1386 134.691 30.7523 136.327 30.7523C137.963 30.7523 139.251 30.1386 140.189 28.9114C141.151 27.6601 141.633 25.9756 141.633 23.858Z" fill="#A5A8A9"/>
<path d="M149.857 33.2433H153.214V14.4736H149.857V33.2433Z" fill="#A5A8A9"/>
<path d="M149.965 10.5029C150.398 10.8879 150.916 11.0804 151.517 11.0804C152.119 11.0804 152.625 10.8879 153.033 10.5029C153.467 10.0938 153.683 9.55235 153.683 8.87855C153.683 8.20482 153.467 7.67537 153.033 7.29038C152.625 6.88128 152.119 6.67676 151.517 6.67676C150.916 6.67676 150.398 6.88128 149.965 7.29038C149.556 7.67537 149.352 8.20482 149.352 8.87855C149.352 9.55235 149.556 10.0938 149.965 10.5029Z" fill="#A5A8A9"/>
<path d="M158.987 15.0146C159.757 14.8221 160.779 14.6176 162.055 14.401C163.33 14.1844 164.798 14.0762 166.459 14.0762C167.95 14.0762 169.19 14.2928 170.176 14.7259C171.163 15.135 171.945 15.7245 172.523 16.4945C173.124 17.2405 173.545 18.1429 173.786 19.2017C174.026 20.2605 174.147 21.4276 174.147 22.703V33.2429H170.79V23.4249C170.79 22.2699 170.706 21.2832 170.537 20.465C170.393 19.6469 170.141 18.9852 169.779 18.4798C169.418 17.9745 168.937 17.6135 168.335 17.3969C167.734 17.1563 166.988 17.036 166.098 17.036C165.736 17.036 165.364 17.048 164.979 17.0721C164.594 17.0961 164.221 17.1322 163.859 17.1803C163.523 17.2045 163.21 17.2405 162.921 17.2886C162.656 17.3368 162.464 17.3729 162.344 17.3969V33.2429H158.987V15.0146Z" fill="#A5A8A9"/>
</g>
<defs>
<clipPath id="clip0_155_669">
<rect width="173.913" height="40" fill="white" transform="translate(0.233826 0.0546875)"/>
</clipPath>
</defs>
</svg>
