<svg width="165" height="41" viewBox="0 0 165 41" fill="none" xmlns="http://www.w3.org/2000/svg">
<g clip-path="url(#clip0_155_878)">
<path d="M0.157227 20.3932L12.0419 27.3879V0.654297L0.157227 20.3932Z" fill="#D0D0D0"/>
<path d="M12.0419 0.654297V27.3879L23.9265 20.3593L12.0419 0.654297Z" fill="#717171"/>
<path d="M47.0393 23.7549C47.0393 23.893 46.9846 24.0254 46.887 24.123C46.7893 24.2207 46.6569 24.2755 46.5188 24.2755H36.4676C36.533 25.515 37.0548 26.6866 37.9325 27.5642C38.8106 28.442 39.982 28.9639 41.2216 29.0292C42.0345 29.0634 42.8422 28.8862 43.5662 28.5153C44.2902 28.1444 44.9059 27.5922 45.3528 26.9126C45.4168 26.8056 45.518 26.7257 45.6367 26.6882C45.7557 26.6507 45.8842 26.658 45.998 26.7089C46.0713 26.7413 46.1356 26.7913 46.1851 26.8546C46.2344 26.9177 46.2674 26.9921 46.2811 27.0711C46.3016 27.1924 46.2773 27.3171 46.213 27.4219C45.6824 28.2595 44.9409 28.943 44.0629 29.4039C43.1849 29.8648 42.201 30.0867 41.2104 30.0478C39.615 29.9772 38.1117 29.2803 37.027 28.1086C35.9419 26.937 35.3628 25.3848 35.4151 23.7889C35.3628 22.1929 35.9419 20.6407 37.027 19.469C38.1117 18.2973 39.615 17.6005 41.2104 17.5299C42.8105 17.5919 44.3216 18.2829 45.4154 19.4527C46.5089 20.6226 47.0968 22.1768 47.0508 23.7775L47.0393 23.7549ZM45.919 23.2908C45.861 22.0487 45.3416 20.873 44.4622 19.9937C43.5828 19.1144 42.407 18.595 41.165 18.5372C39.9254 18.6026 38.7539 19.1244 37.8762 20.0021C36.9982 20.8798 36.4767 22.0513 36.4113 23.2908H45.919ZM59.207 17.7789C59.3385 17.7818 59.4634 17.8352 59.556 17.9279C59.6486 18.0207 59.7018 18.1457 59.7051 18.2769C59.7067 18.3427 59.6947 18.4081 59.6706 18.4693C59.6459 18.5304 59.6092 18.5859 59.5626 18.6325C59.516 18.679 59.4607 18.7156 59.3993 18.7401C59.3385 18.7646 59.2728 18.7764 59.207 18.7749H56.5582V29.3575C56.5582 29.4909 56.5056 29.6192 56.4108 29.7136C56.3166 29.8079 56.1884 29.861 56.0547 29.861C55.921 29.861 55.7928 29.8079 55.6985 29.7136C55.6043 29.6192 55.5511 29.4909 55.5511 29.3575V18.7636H52.959C52.8934 18.7651 52.8277 18.7533 52.7667 18.7288C52.7055 18.7043 52.65 18.6677 52.6034 18.6211C52.5569 18.5746 52.5203 18.5191 52.4959 18.4579C52.4713 18.3968 52.4596 18.3314 52.4609 18.2656C52.4667 18.1353 52.5209 18.0118 52.613 17.9196C52.7052 17.8274 52.8288 17.7731 52.959 17.7675H55.5511V13.8854C55.5489 13.7663 55.5878 13.6501 55.6623 13.557C55.7369 13.4639 55.8421 13.3999 55.9588 13.3761C56.0322 13.3607 56.1078 13.3622 56.1807 13.3802C56.253 13.3983 56.321 13.4325 56.3785 13.4804C56.436 13.5282 56.4826 13.5885 56.5139 13.6567C56.5451 13.7248 56.5599 13.7992 56.5582 13.8741V17.7562H59.2525L59.207 17.7789ZM75.6985 22.8607V29.2669C75.6952 29.3979 75.6421 29.5229 75.5495 29.6159C75.4563 29.7086 75.3314 29.762 75.2004 29.7647C75.1347 29.7663 75.0689 29.7546 75.0081 29.73C74.9467 29.7056 74.8914 29.669 74.8448 29.6225C74.7982 29.576 74.7615 29.5205 74.7369 29.4592C74.7128 29.3982 74.7007 29.3326 74.7024 29.2669V22.8607C74.7024 20.699 73.4799 18.5372 71.0689 18.5372C67.9791 18.5372 66.6432 21.2423 66.8245 24.0039C66.8245 24.0718 66.8245 24.4 66.8245 24.434V29.2442C66.8267 29.3635 66.7873 29.4797 66.7133 29.5727C66.6388 29.6657 66.5341 29.7297 66.4169 29.7535C66.3434 29.7688 66.2678 29.7674 66.1949 29.7494C66.1221 29.7314 66.0547 29.6972 65.9971 29.6493C65.9391 29.6014 65.893 29.541 65.8618 29.4729C65.8311 29.4047 65.8158 29.3304 65.8169 29.2554V8.22633C65.8169 8.09274 65.87 7.96468 65.9648 7.87016C66.0591 7.77575 66.1873 7.72266 66.321 7.72266C66.4541 7.72266 66.5823 7.77575 66.6771 7.87016C66.7714 7.96468 66.8245 8.09274 66.8245 8.22633V20.1331C67.2289 19.3628 67.8333 18.7156 68.5741 18.2595C69.315 17.8035 70.1654 17.5553 71.035 17.5412C73.9889 17.5412 75.6755 20.1331 75.6755 22.8721L75.6985 22.8607ZM93.7062 23.7549C93.7062 23.893 93.6514 24.0254 93.5539 24.123C93.4563 24.2207 93.3237 24.2755 93.1856 24.2755H83.1462C83.2114 25.515 83.733 26.6866 84.6108 27.5642C85.4886 28.442 86.6602 28.9639 87.9002 29.0292C88.7128 29.0634 89.5204 28.8862 90.2448 28.5153C90.9686 28.1444 91.584 27.5922 92.0311 26.9126C92.0952 26.8056 92.1966 26.7257 92.3149 26.6882C92.4339 26.6507 92.5626 26.658 92.6766 26.7089C92.7495 26.7413 92.8141 26.7913 92.8634 26.8546C92.9128 26.9177 92.9456 26.9921 92.9593 27.0711C92.9802 27.1924 92.956 27.3171 92.8914 27.4219C92.3582 28.2593 91.6147 28.9415 90.7347 29.4004C89.8541 29.8594 88.8689 30.0787 87.8771 30.0366C86.2821 29.9657 84.7791 29.2691 83.6941 28.0973C82.6092 26.9257 82.03 25.3735 82.0821 23.7775C82.0322 22.983 82.1462 22.1868 82.4163 21.4379C82.6859 20.6891 83.1067 20.0034 83.6519 19.4233C84.1966 18.8431 84.8547 18.3807 85.5856 18.0647C86.316 17.7486 87.104 17.5856 87.9002 17.5856C88.6958 17.5856 89.4837 17.7486 90.2141 18.0647C90.9451 18.3807 91.6032 18.8431 92.1484 19.4233C92.6936 20.0034 93.1138 20.6891 93.3834 21.4379C93.6536 22.1868 93.7675 22.983 93.7177 23.7775L93.7062 23.7549ZM92.5856 23.2908C92.5856 22.0301 92.0848 20.821 91.1939 19.9295C90.3018 19.0381 89.093 18.5372 87.8322 18.5372C86.5714 18.5372 85.3621 19.0381 84.4706 19.9295C83.5791 20.821 83.0782 22.0301 83.0782 23.2908H92.5856ZM106.01 18.2543C106.016 18.3206 106.009 18.3875 105.989 18.451C105.969 18.5145 105.936 18.5733 105.892 18.624C105.85 18.6747 105.797 18.7161 105.737 18.7459C105.677 18.7757 105.612 18.7933 105.546 18.7975C102.592 19.2276 101.267 21.6384 101.267 24.4566V29.2669C101.269 29.3859 101.231 29.5021 101.156 29.5954C101.082 29.6884 100.977 29.7524 100.86 29.7762C100.786 29.7915 100.711 29.7902 100.638 29.7721C100.565 29.7541 100.497 29.7199 100.44 29.672C100.382 29.6241 100.336 29.5637 100.305 29.4956C100.274 29.4275 100.259 29.3531 100.26 29.2781V18.3335C100.258 18.2143 100.297 18.0981 100.371 18.005C100.446 17.912 100.551 17.848 100.667 17.8241C100.741 17.8088 100.817 17.8102 100.89 17.8283C100.962 17.8463 101.03 17.8806 101.088 17.9285C101.145 17.9763 101.191 18.0366 101.222 18.1047C101.254 18.1729 101.269 18.2472 101.267 18.3222V20.5858C101.688 19.7981 102.299 19.1277 103.044 18.6356C103.788 18.1434 104.645 17.8451 105.534 17.7675C105.668 17.7582 105.799 17.8015 105.901 17.8884C106.003 17.9752 106.066 18.0984 106.078 18.2316L106.01 18.2543ZM122.603 23.7662C122.603 23.9043 122.548 24.0367 122.451 24.1343C122.353 24.232 122.221 24.2868 122.083 24.2868H112.02C112.085 25.5264 112.607 26.6979 113.485 27.5756C114.363 28.4532 115.535 28.9751 116.774 29.0405C117.587 29.0746 118.394 28.8977 119.119 28.5268C119.843 28.1559 120.459 27.6036 120.905 26.924C120.969 26.817 121.07 26.7371 121.189 26.6995C121.308 26.6619 121.437 26.6693 121.551 26.7202C121.624 26.7526 121.688 26.8027 121.737 26.8658C121.787 26.929 121.82 27.0034 121.833 27.0824C121.854 27.2038 121.829 27.3284 121.765 27.4333C121.235 28.2708 120.494 28.9543 119.615 29.4152C118.737 29.876 117.753 30.0981 116.763 30.059C115.168 29.9885 113.664 29.2918 112.58 28.1201C111.494 26.9483 110.915 25.3961 110.968 23.8001C110.918 23.0057 111.032 22.2095 111.301 21.4606C111.571 20.7117 111.992 20.0261 112.537 19.4459C113.082 18.8657 113.74 18.4034 114.471 18.0873C115.202 17.7713 115.989 17.6082 116.785 17.6082C117.581 17.6082 118.369 17.7713 119.1 18.0873C119.831 18.4034 120.489 18.8657 121.033 19.4459C121.579 20.0261 121.999 20.7117 122.269 21.4606C122.539 22.2095 122.652 23.0057 122.603 23.8001V23.7662ZM121.471 23.3135C121.471 22.0527 120.97 20.8436 120.079 19.9521C119.187 19.0607 117.978 18.5598 116.717 18.5598C115.456 18.5598 114.248 19.0607 113.356 19.9521C112.465 20.8436 111.963 22.0527 111.963 23.3135H121.471ZM138.811 18.3335V29.3235C138.809 29.4545 138.755 29.5795 138.662 29.6722C138.57 29.7652 138.445 29.8186 138.313 29.8213C138.248 29.823 138.182 29.8112 138.121 29.7866C138.06 29.7623 138.004 29.7256 137.958 29.6791C137.912 29.6324 137.875 29.5768 137.85 29.5158C137.826 29.4548 137.814 29.3892 137.815 29.3235V27.2522C137.461 28.0736 136.88 28.7771 136.14 29.28C135.401 29.7833 134.533 30.0653 133.639 30.093C130.651 30.093 128.998 27.5012 128.998 24.7622V18.3335C128.998 18.1999 129.051 18.0718 129.146 17.9773C129.24 17.8829 129.369 17.8298 129.502 17.8298C129.635 17.8298 129.764 17.8829 129.858 17.9773C129.953 18.0718 130.006 18.1999 130.006 18.3335V24.7735C130.006 26.9353 131.228 29.0971 133.639 29.0971C137.034 29.0971 137.815 25.928 137.815 22.4307V18.3335C137.816 18.2554 137.835 18.1784 137.87 18.1087C137.905 18.0389 137.955 17.9781 138.018 17.931C138.08 17.884 138.153 17.8519 138.229 17.8373C138.306 17.8227 138.386 17.8259 138.461 17.8468C138.56 17.8845 138.647 17.9508 138.709 18.0373C138.772 18.1239 138.807 18.2269 138.811 18.3335ZM164.256 22.8607V29.3008C164.253 29.4319 164.2 29.5569 164.107 29.6498C164.014 29.7425 163.889 29.7959 163.758 29.7989C163.692 29.8002 163.627 29.7885 163.565 29.7642C163.505 29.7395 163.449 29.7029 163.402 29.6564C163.356 29.6099 163.319 29.5544 163.295 29.4931C163.27 29.4321 163.258 29.3668 163.26 29.3008V22.8607C163.26 20.699 162.038 18.5825 159.627 18.5825C156.605 18.5825 155.45 21.8195 155.45 24.3434V29.312C155.447 29.4433 155.394 29.5683 155.301 29.6611C155.208 29.7538 155.083 29.8071 154.952 29.8101C154.886 29.8118 154.821 29.7997 154.759 29.7754C154.698 29.7508 154.643 29.7144 154.597 29.6676C154.55 29.6211 154.513 29.5656 154.489 29.5046C154.465 29.4433 154.452 29.3779 154.454 29.312V22.8607C154.454 20.699 153.232 18.5825 150.821 18.5825C147.765 18.5825 146.497 20.9932 146.61 24.2416C146.61 24.3095 146.61 24.4566 146.61 24.4905V29.3348C146.612 29.454 146.573 29.5702 146.499 29.6633C146.424 29.7562 146.319 29.8202 146.203 29.844C146.129 29.8594 146.054 29.858 145.981 29.8399C145.908 29.8219 145.84 29.7877 145.783 29.7398C145.725 29.692 145.679 29.6318 145.648 29.5634C145.617 29.4953 145.601 29.4209 145.603 29.3459V18.3335C145.6 18.2143 145.64 18.0981 145.714 18.005C145.789 17.912 145.894 17.848 146.01 17.8241C146.084 17.8088 146.159 17.8102 146.232 17.8283C146.305 17.8463 146.372 17.8806 146.431 17.9285C146.488 17.9763 146.534 18.0366 146.565 18.1047C146.597 18.1729 146.612 18.2472 146.61 18.3222V20.1557C147.017 19.3902 147.623 18.7486 148.364 18.2984C149.105 17.8482 149.954 17.6062 150.821 17.5978C151.781 17.6086 152.714 17.9249 153.483 18.5007C154.252 19.0765 154.818 19.8821 155.099 20.8009C155.451 19.8783 156.069 19.0811 156.875 18.5108C157.682 17.9405 158.639 17.6227 159.627 17.5978C162.581 17.5978 164.267 20.1444 164.267 22.8834" fill="white"/>
<path d="M12.0419 14.9385L0.157227 20.3938L12.0419 27.3885L23.9265 20.3599L12.0419 14.9385Z" fill="#595959"/>
<path d="M0.157227 22.6455L12.0419 39.4078V29.6515L0.157227 22.6455Z" fill="#D0D0D0"/>
<path d="M12.0419 29.6511V39.3847L23.9378 22.6338L12.0419 29.6511Z" fill="#717171"/>
<path fill-rule="evenodd" clip-rule="evenodd" d="M12.0419 14.9385L0.157227 20.3939L12.0419 27.3884V14.9385Z" fill="#A3A3A3"/>
</g>
<defs>
<clipPath id="clip0_155_878">
<rect width="164.384" height="40" fill="white" transform="translate(0.111694 0.0546875)"/>
</clipPath>
</defs>
</svg>
