<svg width="124" height="41" viewBox="0 0 124 41" fill="none" xmlns="http://www.w3.org/2000/svg">
<path d="M17.8068 36.8239C26.9069 36.8239 34.284 29.4213 34.284 20.2899C34.284 11.1584 26.9069 3.75586 17.8068 3.75586C8.70673 3.75586 1.32965 11.1584 1.32965 20.2899C1.32965 29.4213 8.70673 36.8239 17.8068 36.8239Z" fill="#26A17B"/>
<path d="M19.5632 21.8151V21.8124C19.4493 21.8204 18.8612 21.855 17.5525 21.855C16.5062 21.855 15.7724 21.8257 15.5128 21.8124V21.8151C11.4888 21.637 8.48743 20.9352 8.48743 20.0926C8.48743 19.2526 11.4915 18.5482 15.5128 18.3701V21.116C15.775 21.1346 16.53 21.1798 17.5711 21.1798C18.8215 21.1798 19.4466 21.1266 19.5632 21.116V18.3727C23.5792 18.5535 26.5726 19.2552 26.5726 20.0952C26.5726 20.9352 23.5765 21.637 19.5632 21.8177V21.8151ZM19.5632 18.0883V15.6321H25.1659V11.8867H9.91263V15.6321H15.5154V18.0883C10.9617 18.2983 7.53906 19.2021 7.53906 20.2866C7.53906 21.3712 10.9643 22.275 15.5154 22.4876V30.3612H19.5658V22.4876C24.1116 22.2776 27.5289 21.3738 27.5289 20.2893C27.5289 19.2074 24.1116 18.3009 19.5658 18.0909" fill="white"/>
<path d="M48.2804 12.9106V16.882H52.1266V19.8618H48.2541V25.9039C48.2541 27.2383 48.9877 27.8896 50.0631 27.8896C50.6009 27.8896 51.2235 27.7195 51.732 27.4643L52.6936 30.4149C51.7056 30.8109 50.8846 30.9811 49.838 31.0103C46.8128 31.1246 44.8338 29.3941 44.8338 25.9039V19.8618H42.2326V16.882H44.8338V13.2801L48.2804 12.9106ZM114.594 16.6959L114.849 18.3121C115.924 16.5816 117.365 16.3264 118.78 16.3264C120.221 16.3264 121.607 16.8926 122.37 17.6582L120.814 20.6646C120.107 20.0692 119.458 19.7555 118.327 19.7555C116.518 19.7555 114.849 20.7204 114.849 23.3015V30.678H111.4V16.6906L114.594 16.6959ZM106.141 22.0575C105.916 20.2419 104.501 19.3328 102.523 19.3328C100.658 19.3328 99.1291 20.2419 98.6206 22.0575H106.141ZM98.565 24.923C98.7901 26.6535 100.29 27.9029 102.721 27.9029C103.993 27.9029 105.662 27.4191 106.454 26.5977L108.658 28.7827C107.188 30.3139 104.785 31.0528 102.663 31.0528C97.8578 31.0528 94.9992 28.073 94.9992 23.5913C94.9992 19.3355 97.8842 16.2706 102.409 16.2706C107.074 16.2706 109.988 19.1654 109.45 24.923H98.565ZM83.3538 10.8213V18.5939C84.5992 16.9777 86.125 16.4939 87.7089 16.4939C91.6668 16.4939 93.4202 19.1893 93.4202 23.3042V30.6807H89.9712V23.3334C89.9712 20.7789 88.6417 19.7023 86.8029 19.7023C84.7658 19.7023 83.3538 21.4328 83.3538 23.5328V30.6834H79.9048V10.8239L83.3538 10.8213ZM74.1934 12.7511V16.7225H78.04V19.7023H74.167V25.7444C74.167 27.0789 74.9035 27.7301 75.9761 27.7301C76.5143 27.7301 77.1365 27.56 77.6454 27.3048L78.607 30.2554C77.6186 30.6515 76.7976 30.8216 75.751 30.8508C72.7258 30.9651 70.7472 29.232 70.7472 25.7444V19.7023H68.1456V16.7225H70.7472V13.1206L74.1934 12.7511ZM64.6648 22.0575C64.4396 20.2419 63.0252 19.3328 61.0462 19.3328C59.1811 19.3328 57.6528 20.2419 57.1439 22.0575H64.6648ZM57.0883 24.923C57.3138 26.6535 58.8132 27.9029 61.245 27.9029C62.5163 27.9029 64.1852 27.4191 64.9774 26.5977L67.1815 28.7827C65.7114 30.3139 63.3085 31.0528 61.1864 31.0528C56.3786 31.0528 53.5229 28.073 53.5229 23.5913C53.5229 19.3355 56.4079 16.2706 60.9295 16.2706C65.5947 16.2706 68.506 19.1654 67.9708 24.923H57.0883Z" fill="white"/>
</svg>
