<svg width="178" height="41" viewBox="0 0 178 41" fill="none" xmlns="http://www.w3.org/2000/svg">
<g clip-path="url(#clip0_155_867)">
<path fill-rule="evenodd" clip-rule="evenodd" d="M15.6903 38.9989C26.1419 41.6052 36.7263 35.2452 39.3317 24.7948C41.9371 14.3439 35.578 3.75754 25.1269 1.15211C14.6784 -1.45332 4.09388 4.90724 1.48967 15.3588C-1.11697 25.8086 5.24297 36.3936 15.6903 38.9989ZM24.721 12.3749C27.4233 13.3057 29.3996 14.701 29.0113 17.2967C28.7303 19.1969 27.6769 20.1167 26.2785 20.4392C28.1987 21.439 29.1759 22.9721 28.245 25.6299C27.0899 28.9309 24.3454 29.2095 20.6958 28.5189L19.81 32.0684L17.6697 31.5352L18.5439 28.033C17.9891 27.8952 17.4222 27.7489 16.8382 27.5905L15.961 31.1092L13.8231 30.5756L14.7089 27.0192C14.5091 26.968 14.308 26.9156 14.1055 26.8628C13.8014 26.7835 13.4941 26.7033 13.1831 26.6255L10.3978 25.9311L11.4604 23.4811C11.4604 23.4811 13.0374 23.9005 13.0161 23.8695C13.622 24.0194 13.8908 23.6244 13.9969 23.361L15.3966 17.7497C15.449 17.7623 15.5004 17.7752 15.5499 17.7876C15.5747 17.7938 15.599 17.7999 15.6227 17.8057C15.5374 17.7716 15.4599 17.7497 15.4002 17.7344L16.3987 13.7287C16.4249 13.274 16.2683 12.7004 15.4014 12.4839C15.435 12.4614 13.847 12.0974 13.847 12.0974L14.4163 9.81145L17.368 10.5485L17.3655 10.5595C17.8093 10.6698 18.2665 10.7746 18.7323 10.8807L19.6094 7.36574L21.7486 7.89916L20.889 11.3452C21.4633 11.4763 22.0411 11.6086 22.6039 11.7488L23.4573 8.32527L25.5976 8.85869L24.721 12.3749ZM17.951 25.1232C19.6974 25.5844 23.5143 26.5926 24.1211 24.1542C24.7429 21.6609 21.0412 20.8303 19.2349 20.4249C19.0331 20.3796 18.8549 20.3397 18.7091 20.3033L17.5338 25.0149C17.6536 25.0446 17.7939 25.0817 17.951 25.1232ZM19.5979 18.2385C21.0539 18.627 24.2299 19.4746 24.7831 17.2583C25.3481 14.9915 22.2613 14.3081 20.7537 13.9743C20.5841 13.9368 20.4345 13.9037 20.3123 13.8732L19.2467 18.1465C19.3474 18.1716 19.4655 18.2031 19.5979 18.2385Z" fill="#F7941D"/>
<path fill-rule="evenodd" clip-rule="evenodd" d="M62.4269 10.9985C63.8258 10.9985 65.0346 11.2491 66.0499 11.7412C67.0699 12.2381 67.9117 12.9075 68.5869 13.7493C69.2534 14.5955 69.7493 15.5846 70.0693 16.718C70.3869 17.8547 70.5469 19.0765 70.5469 20.3846C70.5469 22.3939 70.1787 24.2922 69.4358 26.0815C68.6922 27.8736 67.684 29.4279 66.4011 30.7538C65.1193 32.078 63.6064 33.1219 61.8611 33.8933C60.1181 34.6652 58.2239 35.051 56.1899 35.051C55.9269 35.051 55.4644 35.0434 54.8111 35.0299C54.1581 35.0164 53.4072 34.9492 52.5663 34.8355C51.7201 34.7175 50.8254 34.5428 49.8808 34.3087C48.9365 34.0792 48.0394 33.7573 47.1949 33.3489L54.7471 1.61666L61.5111 0.568359L58.8071 11.829C59.3858 11.5682 59.9687 11.366 60.5511 11.2189C61.134 11.0739 61.7587 10.9985 62.4269 10.9985ZM56.7537 29.685C57.7723 29.685 58.7322 29.4344 59.634 28.9423C60.5381 28.4497 61.3187 27.7846 61.9722 26.9562C62.6264 26.124 63.1434 25.1868 63.5211 24.1396C63.8981 23.0924 64.0887 21.9999 64.0887 20.8632C64.0887 19.4667 63.8552 18.3775 63.3905 17.59C62.9252 16.8059 62.0646 16.4113 60.8146 16.4113C60.4052 16.4113 59.8775 16.4895 59.2231 16.629C58.5666 16.7773 57.9793 17.085 57.4525 17.548L54.5735 29.5066C54.7471 29.5373 54.9007 29.5665 55.0316 29.5939C55.1599 29.6236 55.3017 29.6446 55.4426 29.6592C55.5921 29.6759 55.763 29.6845 55.9694 29.6845C56.0612 29.6845 56.1631 29.6846 56.2761 29.6847H56.2812C56.4212 29.6849 56.5782 29.685 56.7537 29.685Z" fill="white"/>
<path d="M77.5612 34.4437H71.1006L76.5565 11.4854H83.0612L77.5612 34.4437Z" fill="white"/>
<path d="M80.7052 8.68814C79.8035 8.68814 78.9858 8.41972 78.2599 7.88184C77.5288 7.34714 77.167 6.52414 77.167 5.41495C77.167 4.80485 77.2905 4.23245 77.5364 3.69241C77.7858 3.15344 78.1117 2.68939 78.5205 2.29487C78.9288 1.90358 79.4011 1.59097 79.9382 1.35544C80.4782 1.12369 81.0529 1.00781 81.6646 1.00781C82.5658 1.00781 83.3793 1.27622 84.1076 1.81411C84.8329 2.35469 85.1976 3.1777 85.1976 4.28096C85.1976 4.89324 85.0746 5.46778 84.8264 6.00672C84.5805 6.54572 84.254 7.00978 83.8458 7.40431C83.4405 7.79608 82.964 8.10767 82.4282 8.34102C81.8876 8.57655 81.3152 8.68814 80.7052 8.68814Z" fill="white"/>
<path d="M95.4906 4.7168L88.7235 5.76507L84.4435 23.8351C84.0953 25.3194 83.8929 26.7288 83.8329 28.0697C83.7753 29.4074 83.9818 30.5947 84.4435 31.6247C84.9118 32.6586 85.6947 33.4751 86.8018 34.0727C87.9106 34.6661 89.4665 34.9641 91.4735 34.9641C92.8694 34.9641 94.0771 34.8511 95.0976 34.6159C96.1159 34.3843 97.0612 34.1088 97.9347 33.7887L97.4529 28.8108C96.7835 29.0463 96.1217 29.2264 95.4694 29.3557C94.8129 29.4872 94.1341 29.5536 93.4371 29.5536C92.5906 29.5536 91.9453 29.4355 91.4953 29.201C91.0423 28.9704 90.73 28.6443 90.5565 28.2212C90.3818 27.7992 90.3082 27.2979 90.34 26.7142C90.3682 26.1332 90.4682 25.508 90.6453 24.8386L92.5641 16.808H99.767L101.076 11.4841H93.8288L95.4906 4.7168Z" fill="white"/>
<path d="M100.791 25.2753C100.791 23.2979 101.111 21.433 101.751 19.6873C102.389 17.94 103.309 16.412 104.503 15.1007C105.693 13.7959 107.142 12.7621 108.848 12.0033C110.545 11.2487 112.446 10.8682 114.541 10.8682C115.853 10.8682 117.023 10.9922 118.055 11.2406C119.089 11.4913 120.025 11.8152 120.872 12.2215L118.644 17.2878C118.062 17.0518 117.458 16.8437 116.833 16.6551C116.208 16.4627 115.445 16.37 114.542 16.37C112.386 16.37 110.681 17.1132 109.412 18.5948C108.148 20.0775 107.512 22.0733 107.512 24.5768C107.512 26.0606 107.832 27.2603 108.474 28.1782C109.113 29.0961 110.294 29.5526 112.009 29.5526C112.855 29.5526 113.671 29.4642 114.453 29.2918C115.241 29.1171 115.937 28.8972 116.55 28.6374L117.032 33.8309C116.215 34.1478 115.314 34.434 114.326 34.6845C113.335 34.9268 112.156 35.0522 110.789 35.0522C108.983 35.0522 107.456 34.7882 106.206 34.2682C104.955 33.7399 103.922 33.0388 103.108 32.1505C102.29 31.2599 101.702 30.2205 101.339 29.0271C100.976 27.8349 100.791 26.5823 100.791 25.2753Z" fill="white"/>
<path fill-rule="evenodd" clip-rule="evenodd" d="M125.474 34.3521C126.609 34.8172 127.949 35.0522 129.491 35.0522C131.615 35.0522 133.487 34.607 135.101 33.7199C136.716 32.8329 138.062 31.6907 139.138 30.2953C140.215 28.8967 141.032 27.3229 141.582 25.5826C142.132 23.8336 142.409 22.0852 142.409 20.3416C142.409 18.9462 142.221 17.6705 141.842 16.5236C141.464 15.3723 140.903 14.379 140.165 13.5329C139.418 12.691 138.474 12.0329 137.328 11.5688C136.176 11.1038 134.844 10.8682 133.329 10.8682C131.266 10.8682 129.429 11.3134 127.832 12.1983C126.234 13.0893 124.876 14.2319 123.776 15.6295C122.666 17.0248 121.828 18.5948 121.264 20.3422C120.696 22.0858 120.415 23.8342 120.415 25.5831C120.415 26.9774 120.599 28.2499 120.979 29.399C121.361 30.5485 121.916 31.5462 122.66 32.388C123.402 33.2343 124.341 33.887 125.474 34.3521ZM130.191 17.1978C130.915 16.6486 131.762 16.3705 132.72 16.3705C133.942 16.3705 134.787 16.779 135.252 17.5913C135.719 18.4068 135.953 19.5439 135.953 20.997C135.953 21.8982 135.828 22.8538 135.584 23.8557C135.334 24.8603 134.962 25.7858 134.467 26.6276C133.971 27.4716 133.359 28.1707 132.636 28.722C131.906 29.2772 131.064 29.5531 130.103 29.5531C128.881 29.5531 128.039 29.1446 127.571 28.3323C127.109 27.5159 126.874 26.3813 126.874 24.9245C126.874 24.0218 126.995 23.0715 127.242 22.0663C127.492 21.0633 127.861 20.1406 128.359 19.2944C128.852 18.452 129.463 17.7535 130.191 17.1978Z" fill="white"/>
<path d="M149.449 34.4437H142.983L148.439 11.4854H154.947L149.449 34.4437Z" fill="white"/>
<path d="M152.588 8.68814C151.687 8.68814 150.87 8.41972 150.145 7.88184C149.418 7.34714 149.052 6.52414 149.052 5.41495C149.052 4.80485 149.178 4.23245 149.424 3.69241C149.67 3.15344 149.999 2.68939 150.407 2.29487C150.813 1.90358 151.29 1.59097 151.826 1.35544C152.363 1.12369 152.937 1.00781 153.547 1.00781C154.45 1.00781 155.266 1.27622 155.993 1.81411C156.72 2.35469 157.087 3.1777 157.087 4.28096C157.087 4.89324 156.957 5.46778 156.713 6.00672C156.469 6.54572 156.14 7.00978 155.733 7.40431C155.323 7.79608 154.853 8.10767 154.316 8.34102C153.775 8.57655 153.201 8.68814 152.588 8.68814Z" fill="white"/>
<path d="M161.237 12.0259C160.642 12.2135 160.094 12.386 159.603 12.5293L154.319 34.4411H160.825L165.059 16.6772C165.934 16.5026 166.791 16.4121 167.633 16.4121C168.507 16.4121 169.151 16.5797 169.578 16.9133C169.998 17.2523 170.268 17.69 170.382 18.2246C170.503 18.7658 170.509 19.3909 170.406 20.1002C170.304 20.816 170.166 21.5485 169.99 22.3062L167.11 34.4417H173.613L176.585 22.0453C177.426 18.6132 177.202 15.9055 175.906 13.9269C174.609 11.9483 172.26 10.9561 168.853 10.9561C167.694 10.9561 166.65 11.0068 165.735 11.1108C164.819 11.2126 163.986 11.3442 163.248 11.5064C162.502 11.6638 161.835 11.8384 161.237 12.0259Z" fill="white"/>
</g>
<defs>
<clipPath id="clip0_155_867">
<rect width="176.471" height="40" fill="white" transform="translate(0.641113 0.0546875)"/>
</clipPath>
</defs>
</svg>
