<svg width="129" height="41" viewBox="0 0 129 41" fill="none" xmlns="http://www.w3.org/2000/svg">
<g clip-path="url(#clip0_155_685)">
<path d="M128.105 11.853C126.946 8.54086 123.788 6.16239 120.079 6.16239H120.002C117.59 6.16239 115.417 7.16567 113.87 8.77626C112.321 7.16567 110.148 6.16239 107.739 6.16239H107.662C105.542 6.16239 103.605 6.93822 102.116 8.22247V7.56967C102.065 6.9195 101.53 6.40856 100.869 6.40856H95.1798C94.4837 6.40856 93.922 6.97039 93.922 7.66864V38.5562C93.922 39.2544 94.4837 39.8163 95.1798 39.8163H100.869C101.504 39.8163 102.025 39.3428 102.108 38.7301L102.106 16.5563C102.105 16.4822 102.109 16.408 102.116 16.3343C102.208 15.3444 102.933 14.5311 104.078 14.4294H105.127C105.606 14.4721 106.01 14.6407 106.329 14.8949C106.824 15.2882 107.099 15.8928 107.099 16.5563L107.121 38.6204C107.121 39.3187 107.685 39.8832 108.379 39.8832H114.068C114.74 39.8832 115.286 39.3481 115.318 38.6819L115.315 16.5269C115.313 15.7992 115.65 15.141 116.241 14.7504C116.533 14.5631 116.884 14.4374 117.287 14.4H118.337C119.568 14.5069 120.312 15.4407 120.309 16.5269L120.33 38.5616C120.33 39.2598 120.895 39.8216 121.588 39.8216H127.278C127.971 39.8216 128.536 39.2598 128.536 38.5616V14.8628C128.536 13.2468 128.354 12.5593 128.105 11.853ZM89.5875 6.48903H86.333V1.20242C86.333 0.568339 85.8194 0.0546875 85.185 0.0546875C85.1101 0.0546875 85.0377 0.0653049 84.9684 0.0787282C81.3607 1.06864 82.0832 6.06367 75.4973 6.48903H74.8577C74.7611 6.48903 74.6705 6.50239 74.582 6.52111H74.5769L74.582 6.52375C74.0198 6.64958 73.5973 7.14716 73.5973 7.74652V13.4344C73.5973 14.1273 74.162 14.6918 74.8577 14.6918H78.2913L78.2858 38.8106C78.2858 39.4982 78.8424 40.0547 79.5301 40.0547H85.1556C85.8407 40.0547 86.3973 39.4982 86.3973 38.8106L86.4003 14.6918H89.5875C90.2807 14.6918 90.8454 14.1273 90.8454 13.4344V7.74652C90.8454 7.05358 90.2807 6.48911 89.5875 6.48911" fill="#00BAF2"/>
<path d="M69.1168 6.48867H63.4275C62.7343 6.48867 62.1722 7.05322 62.1722 7.74607V19.5072C62.159 20.2349 61.57 20.8182 60.8394 20.8182H58.4577C57.719 20.8182 57.1219 20.2242 57.1219 19.4858L57.1007 7.74616C57.1007 7.05322 56.536 6.48875 55.8428 6.48875H50.1534C49.4577 6.48875 48.8956 7.05322 48.8956 7.74616V20.6362C48.8956 25.5322 52.3879 29.0236 57.2879 29.0236C57.2879 29.0236 60.9653 29.0236 61.0777 29.045C61.7415 29.1199 62.2577 29.6764 62.2577 30.3613C62.2577 31.0382 61.7522 31.592 61.0964 31.675C61.0641 31.6802 61.0347 31.6883 60.9998 31.6937L52.6798 31.7231C51.9841 31.7231 51.4219 32.2876 51.4219 32.9805V38.6658C51.4219 39.3614 51.9841 39.9232 52.6798 39.9232H61.9824C66.8849 39.9232 70.3747 36.4345 70.3747 31.5359V7.74616C70.3747 7.05322 69.8126 6.48875 69.1168 6.48875V6.48867ZM14.0456 16.9108V20.4209C14.0456 21.1565 13.4487 21.7559 12.7128 21.7559L9.10262 21.7585V14.7249H12.7128C13.4487 14.7249 14.0456 15.3188 14.0456 16.0573V16.9108ZM14.546 6.4873H2.1097C1.42726 6.4873 0.875977 7.04113 0.875977 7.72067V13.2936C0.875977 13.3042 0.878632 13.315 0.878632 13.3256C0.878632 13.3524 0.875977 13.3792 0.875977 13.4032V38.627C0.875977 39.3119 1.38978 39.8711 2.02679 39.8871H7.8233C8.51645 39.8871 9.08108 39.3253 9.08108 38.6297L9.10253 29.9854H14.5459C19.1007 29.9854 22.2748 26.8258 22.2748 22.2535V14.23C22.2748 9.65773 19.1007 6.48739 14.5459 6.48739L14.546 6.4873ZM37.6525 30.2642V31.1524C37.6525 31.2247 37.6419 31.2942 37.6312 31.3611C37.6178 31.4239 37.5999 31.4856 37.5776 31.5457C37.401 32.0434 36.9032 32.4045 36.3117 32.4045H33.9434C33.2047 32.4045 32.6026 31.8427 32.6026 31.1524V30.0796C32.6026 30.0663 32.5999 30.0528 32.5999 30.0395L32.6026 27.1849V26.2912L32.6053 26.2832C32.6079 25.5956 33.2047 25.0392 33.9434 25.0392H36.3117C37.053 25.0392 37.6526 25.5983 37.6526 26.2913L37.6525 30.2642ZM36.7481 6.51999H28.8533C28.1548 6.51999 27.5902 7.04973 27.5902 7.69982V9.91237C27.5902 9.92573 27.5928 9.94182 27.5928 9.95518C27.5928 9.97122 27.5901 9.98722 27.5901 10.0033V13.0346C27.5901 13.7222 28.1896 14.284 28.9283 14.284H36.4456C37.0398 14.3777 37.5108 14.8111 37.5777 15.4879V16.221C37.5108 16.8658 37.0452 17.3366 36.4777 17.3901H32.7552C27.8043 17.3901 24.277 20.6782 24.277 25.2959V31.9096C24.277 36.5006 27.3092 39.7672 32.2253 39.7672H42.542C44.3939 39.7672 45.8951 38.3653 45.8951 36.6397V15.0572C45.8951 9.82411 43.1977 6.51999 36.748 6.51999H36.7481Z" fill="#1F336B"/>
</g>
<defs>
<clipPath id="clip0_155_685">
<rect width="127.66" height="40" fill="white" transform="translate(0.875977 0.0546875)"/>
</clipPath>
</defs>
</svg>
