<svg width="213" height="41" viewBox="0 0 213 41" fill="none" xmlns="http://www.w3.org/2000/svg">
<g clip-path="url(#clip0_155_752)">
<path d="M131.741 25.2552C131.763 25.412 131.763 25.571 131.741 25.7279C131.741 25.7788 131.603 25.8006 131.399 25.8006C130.497 25.8006 129.61 25.8006 128.73 25.8006C127.85 25.8006 126.977 25.7642 126.105 25.7642C125.45 25.7642 124.774 25.7643 124.076 25.8006L122.236 25.8734C122.117 25.8889 121.996 25.8633 121.894 25.8006C121.843 25.7497 121.821 25.6333 121.821 25.437C121.821 25.2406 121.821 25.0151 121.916 24.9642C122.074 24.8886 122.249 24.8513 122.425 24.8551C122.944 24.8489 123.45 24.6894 123.879 24.397C124.113 24.1625 124.296 23.8814 124.415 23.5721C124.535 23.2626 124.587 22.9317 124.57 22.6006C124.652 21.7474 124.683 20.8902 124.665 20.0333C124.665 19.0297 124.665 17.8516 124.607 16.5643C124.607 16.0042 124.607 15.2042 124.607 14.1642C124.607 13.1242 124.607 12.0261 124.607 10.8697C124.607 9.7133 124.607 8.62246 124.607 7.58246V5.14606C123.254 8.61272 121.833 12.043 120.345 15.4369L115.77 25.6552C115.71 25.7898 115.635 25.9168 115.545 26.0334C115.494 26.0988 115.37 26.1278 115.174 26.1278C115.126 26.1353 115.076 26.1305 115.031 26.114C114.985 26.0974 114.944 26.0697 114.912 26.0334C114.804 25.8564 114.713 25.6687 114.643 25.4734C113.319 22.1473 111.981 18.8867 110.628 15.6915C109.276 12.4964 107.918 9.27213 106.556 6.01879C106.556 6.43333 106.49 7.09515 106.439 8.01883C106.388 8.94246 106.345 9.92421 106.294 10.9643C106.243 12.0043 106.199 12.986 106.163 13.9097C106.127 14.8333 106.09 15.4951 106.068 15.9097C106.017 16.7824 105.981 17.6625 105.952 18.5424C105.923 19.4224 105.901 20.3315 105.879 21.2551C105.803 22.1926 106.014 23.131 106.483 23.946C106.698 24.2614 107.006 24.5028 107.363 24.6369C107.745 24.7665 108.145 24.8281 108.548 24.8188C108.723 24.8188 108.825 24.8188 108.868 24.8916C108.916 25.0064 108.934 25.1316 108.919 25.2552C108.933 25.4073 108.916 25.5608 108.868 25.7061C108.825 25.7716 108.723 25.786 108.548 25.7642H106.723H104.861H103.079L101.297 25.8225C101.072 25.8225 100.956 25.6916 100.956 25.4225C100.956 25.1533 100.956 24.9279 101.05 24.877C101.236 24.8073 101.435 24.7823 101.632 24.8042C102.009 24.855 102.393 24.8155 102.752 24.6891C103.111 24.5626 103.435 24.3529 103.697 24.0769C103.835 23.8848 103.95 23.6774 104.039 23.4588C104.157 23.142 104.238 22.8124 104.279 22.4769C104.345 22.0624 104.41 21.5461 104.468 20.9279C104.527 20.3097 104.585 19.5678 104.636 18.6951C104.636 18.1133 104.716 17.2406 104.788 16.1133C104.861 14.986 104.941 13.7715 105.014 12.5133C105.087 11.2551 105.167 10.0552 105.239 8.87701C105.312 7.69883 105.363 6.87697 105.392 6.29515C105.416 5.94259 105.397 5.58837 105.334 5.24061C105.268 4.9497 105.217 4.71697 105.167 4.5497C105.121 4.34103 105.034 4.144 104.909 3.97119C104.783 3.79837 104.624 3.65358 104.439 3.54606C103.971 3.38662 103.479 3.30792 102.985 3.31333C102.863 3.32896 102.739 3.30875 102.628 3.25515C102.577 3.16206 102.557 3.05511 102.57 2.9497C102.558 2.77787 102.577 2.60526 102.628 2.44061C102.628 2.36788 102.781 2.33152 102.985 2.33152C104.039 2.38243 105.086 2.41879 106.141 2.44061C107.196 2.46243 108.257 2.44061 109.334 2.44061C109.351 2.73968 109.395 3.03663 109.465 3.32788C109.552 3.75807 109.664 4.18299 109.799 4.60061C109.967 5.1097 110.199 5.73515 110.527 6.4697C110.854 7.20424 111.203 8.12792 111.654 9.21883L112.614 11.4879C112.977 12.3534 113.377 13.2769 113.814 14.2733C114.25 15.2697 114.716 16.3169 115.203 17.4152C115.69 18.5134 116.185 19.6551 116.657 20.8188C117.535 18.8551 118.374 16.9327 119.174 15.0516C119.974 13.1752 120.781 11.2916 121.581 9.40064C122.265 7.72792 122.796 6.3097 123.174 5.14606C123.473 4.35886 123.661 3.53405 123.734 2.69515C123.736 2.57293 123.724 2.45086 123.697 2.33152C124.65 2.38243 125.625 2.3897 126.607 2.36788C127.588 2.34606 128.788 2.3097 130.301 2.25879C130.505 2.25879 130.621 2.25879 130.665 2.33152C130.713 2.44638 130.73 2.57158 130.716 2.69515C130.756 2.85011 130.756 3.01293 130.716 3.16788C130.679 3.21879 130.519 3.24061 130.243 3.24061C129.86 3.25908 129.479 3.30037 129.101 3.36424C128.793 3.41067 128.508 3.55918 128.294 3.78606C128.02 4.13793 127.886 4.57789 127.916 5.02243C127.886 5.59175 127.886 6.16219 127.916 6.73152C127.916 7.24061 127.966 7.97519 127.988 8.91337C128.01 9.85155 128.039 10.8988 128.068 11.9897C128.097 13.0806 128.112 14.1715 128.141 15.2406C128.17 16.3097 128.192 17.2478 128.214 18.026C128.265 19.7497 128.33 21.0224 128.425 21.8442C128.463 22.486 128.621 23.115 128.89 23.6988C129.105 24.1044 129.471 24.4097 129.908 24.5497C130.351 24.699 130.815 24.7775 131.283 24.7824C131.479 24.7824 131.61 24.7824 131.654 24.8551C131.726 24.9751 131.757 25.1158 131.741 25.2552Z" fill="#ED0A0A"/>
<path d="M145.712 18.6365C145.721 19.6914 145.511 20.7367 145.094 21.7056C144.697 22.6156 144.115 23.433 143.385 24.1056C142.64 24.7872 141.771 25.3181 140.825 25.6693C139.817 26.0531 138.747 26.2456 137.668 26.2365C136.582 26.2429 135.505 26.0379 134.497 25.6329C133.548 25.2586 132.681 24.7027 131.945 23.9965C131.206 23.2836 130.62 22.4279 130.223 21.4814C129.825 20.535 129.624 19.5176 129.632 18.4911C129.623 17.4651 129.846 16.4504 130.287 15.5238C130.718 14.6196 131.327 13.8109 132.076 13.1456C132.844 12.4713 133.729 11.9416 134.687 11.582C135.692 11.2112 136.756 11.0263 137.828 11.0365C138.899 11.0272 139.961 11.2171 140.963 11.5965C141.894 11.9543 142.744 12.4931 143.465 13.182C144.169 13.8648 144.729 14.6805 145.116 15.582C145.523 16.5482 145.726 17.5881 145.712 18.6365ZM142.367 19.2184C142.364 18.3408 142.257 17.4666 142.047 16.6147C141.852 15.7963 141.536 15.0118 141.108 14.2874C140.714 13.6189 140.175 13.0473 139.53 12.6147C138.882 12.1914 138.122 11.9712 137.348 11.982C136.683 11.9646 136.025 12.1333 135.45 12.4693C134.908 12.8003 134.446 13.2474 134.097 13.7784C133.72 14.3542 133.44 14.9881 133.268 15.6547C133.084 16.3674 132.992 17.1005 132.992 17.8365C132.991 18.7238 133.099 19.608 133.312 20.4693C133.506 21.3128 133.828 22.1219 134.265 22.8693C134.66 23.5529 135.199 24.1432 135.843 24.6002C136.452 24.9982 137.159 25.2234 137.886 25.2515C138.614 25.2797 139.335 25.1098 139.974 24.7602C140.526 24.4358 140.991 23.9814 141.327 23.4365C141.696 22.8427 141.964 22.1913 142.119 21.5093C142.292 20.758 142.375 19.989 142.367 19.2184Z" fill="#ED0A0A"/>
<path d="M162.723 25.2181C162.737 25.3661 162.717 25.5154 162.665 25.6545C162.628 25.7054 162.526 25.7272 162.359 25.7272C161.828 25.7272 161.305 25.7272 160.803 25.7272H159.239C158.585 25.7272 157.945 25.7272 157.305 25.7272C156.665 25.7272 156.025 25.7272 155.399 25.7854C155.315 25.7953 155.23 25.7746 155.159 25.7272C155.113 25.607 155.095 25.4774 155.108 25.349C155.108 25.1527 155.108 25.0363 155.181 24.9854C155.265 24.9258 155.369 24.8998 155.472 24.9127C155.873 24.9359 156.272 24.8342 156.614 24.6218C156.884 24.4373 157.101 24.187 157.246 23.8945C157.397 23.5692 157.489 23.2194 157.516 22.8618C157.552 22.4763 157.574 22.0618 157.574 21.6254V16.8181C157.583 16.1775 157.534 15.5372 157.428 14.9054C157.34 14.429 157.127 13.9847 156.81 13.6181C156.486 13.2898 156.094 13.0354 155.662 12.8722C155.23 12.709 154.769 12.641 154.308 12.6727C153.498 12.6831 152.7 12.8745 151.974 13.2327C151.234 13.5801 150.573 14.0751 150.032 14.6872C149.981 16.0472 149.967 17.4218 149.981 18.8108C149.996 20.1999 149.981 21.5818 149.981 22.9418C149.949 23.2191 149.982 23.5002 150.08 23.7618C150.177 24.0235 150.335 24.2584 150.541 24.4472C151.044 24.7643 151.636 24.9122 152.228 24.869C152.396 24.869 152.483 24.9999 152.483 25.269C152.497 25.4045 152.48 25.5415 152.432 25.669C152.432 25.7199 152.301 25.7418 152.156 25.7418H150.112H148.097H146.919H146.192H145.632H144.905C144.799 25.7552 144.692 25.7348 144.599 25.6836C144.599 25.6836 144.548 25.5599 144.548 25.4145C144.533 25.2671 144.551 25.1181 144.599 24.9781C144.636 24.9272 144.716 24.9054 144.832 24.9054C145.231 24.9175 145.63 24.861 146.01 24.7381C146.319 24.6464 146.58 24.4377 146.737 24.1563C146.918 23.8128 147.029 23.4372 147.065 23.0508C147.13 22.4592 147.159 21.8642 147.152 21.269V17.9454C147.152 17.0727 147.152 16.3818 147.116 15.8727C147.112 15.4686 147.041 15.0679 146.905 14.6872C146.788 14.4203 146.583 14.202 146.323 14.069C145.961 13.9065 145.583 13.7799 145.196 13.6908C145.138 13.6457 145.1 13.581 145.087 13.509C145.075 13.4724 145.072 13.4335 145.078 13.3955C145.084 13.3575 145.1 13.3217 145.123 13.2908C145.436 13.1454 145.85 12.9563 146.287 12.7236C146.723 12.4908 147.188 12.2508 147.625 11.9963C148.061 11.7418 148.468 11.4945 148.839 11.269L149.69 10.7236C149.739 10.6703 149.812 10.6703 149.908 10.7236C150.003 10.7745 150.054 10.8181 150.054 10.869C150.054 11.109 150.017 11.3927 150.017 11.7054V12.6145C150.017 12.9563 150.017 13.3054 149.981 13.669L150.868 12.9418C151.295 12.5966 151.75 12.2876 152.228 12.0181C152.738 11.7259 153.28 11.494 153.843 11.3272C154.426 11.1562 155.031 11.0705 155.639 11.0727C156.361 11.022 157.086 11.1365 157.758 11.4074C158.429 11.6783 159.03 12.0986 159.516 12.6363C159.737 12.896 159.924 13.1818 160.076 13.4872C160.22 13.7935 160.318 14.1195 160.366 14.4545C160.43 14.876 160.466 15.3011 160.476 15.7272C160.476 16.2145 160.476 16.8036 160.476 17.509V22.4545C160.428 23.0847 160.546 23.7164 160.817 24.2872C161.05 24.6654 161.581 24.8763 162.432 24.9272C162.636 24.8908 162.723 24.9999 162.723 25.2181Z" fill="#ED0A0A"/>
<path d="M175.327 15.3634C175.348 15.5185 175.329 15.6764 175.273 15.8226C175.218 15.9688 175.126 16.0985 175.007 16.1998C174.448 16.3995 173.852 16.4739 173.261 16.4179H171.959C171.644 16.4179 171.353 16.4179 171.087 16.4179H170.236H168.985C168.5 16.4179 168.114 16.4179 167.828 16.4179L167.028 16.3816H166.25H165.145C165.093 16.8526 165.069 17.3261 165.072 17.7998C165.073 18.3123 165.122 18.8235 165.217 19.327C165.319 19.8611 165.49 20.3795 165.727 20.8688C165.981 21.4061 166.323 21.8976 166.737 22.3234C167.237 22.9222 167.864 23.4024 168.572 23.7294C169.28 24.0565 170.052 24.2221 170.832 24.2143C171.592 24.2062 172.34 24.0193 173.014 23.6688C173.703 23.3283 174.338 22.8871 174.897 22.3598C174.907 22.3477 174.919 22.3379 174.933 22.3312C174.947 22.3244 174.962 22.3209 174.977 22.3209C174.993 22.3209 175.008 22.3244 175.022 22.3312C175.036 22.3379 175.048 22.3477 175.057 22.3598C175.089 22.3868 175.113 22.4204 175.129 22.4582C175.145 22.4959 175.153 22.5368 175.152 22.5779C175.057 23.0526 174.816 23.4852 174.461 23.8143C173.843 24.5845 173.063 25.21 172.177 25.647C171.249 26.0875 170.231 26.3066 169.203 26.287C168.241 26.2961 167.287 26.1071 166.401 25.7318C165.516 25.3564 164.716 24.8027 164.054 24.1052C162.711 22.6974 161.981 20.8142 162.025 18.8688C161.999 17.8091 162.179 16.7542 162.556 15.7634C162.919 14.8423 163.46 14.0019 164.148 13.2907C164.835 12.5737 165.655 11.998 166.563 11.5961C167.506 11.1885 168.525 10.9852 169.552 10.9998C170.213 11.0032 170.871 11.0937 171.508 11.2688C172.17 11.4449 172.801 11.7222 173.377 12.0907C173.933 12.4414 174.409 12.9047 174.774 13.4507C175.147 14.018 175.34 14.6847 175.327 15.3634ZM172.468 14.0907C172.479 13.8683 172.447 13.646 172.372 13.4363C172.297 13.2267 172.182 13.0339 172.032 12.8688C171.728 12.5611 171.353 12.3316 170.941 12.1998C170.493 12.0528 170.023 11.984 169.552 11.9961C169.103 12.0014 168.658 12.07 168.228 12.1998C167.531 12.4302 166.901 12.83 166.396 13.3634C165.849 13.9242 165.478 14.6317 165.327 15.3998H167.916C168.723 15.3998 169.588 15.3998 170.512 15.327C171.063 15.3453 171.608 15.2065 172.083 14.927C172.207 14.8259 172.305 14.698 172.372 14.5531C172.439 14.4083 172.471 14.2502 172.468 14.0907Z" fill="#ED0A0A"/>
<path d="M191.85 11.8509C191.85 11.9672 191.734 12.069 191.501 12.1563C190.774 12.3125 190.132 12.7322 189.697 13.3345C189.428 13.7629 189.185 14.2074 188.97 14.6654C188.672 15.2981 188.286 16.12 187.821 17.1818C186.876 19.3539 185.921 21.4921 184.956 23.5963C183.99 25.7005 183.021 27.8387 182.046 30.0109C181.578 31.156 180.985 32.2462 180.279 33.2618C180.101 33.5283 179.86 33.7467 179.577 33.8977C179.294 34.0487 178.978 34.1275 178.657 34.1272C178.438 34.1338 178.222 34.0892 178.023 33.997C177.825 33.9048 177.652 33.7676 177.516 33.5963C177.208 33.2324 177.054 32.7628 177.086 32.2872C177.086 31.9184 177.197 31.5581 177.406 31.2545C177.504 31.1146 177.636 31.0032 177.791 30.9316C177.946 30.86 178.117 30.8309 178.286 30.8472C178.502 30.8497 178.712 30.9154 178.89 31.0363C179.046 31.153 179.233 31.2213 179.428 31.2327C180.061 31.2327 180.679 30.5781 181.29 29.2109L181.617 28.4836L182.09 27.4654C182.265 27.1018 182.417 26.7381 182.548 26.44C182.679 26.1418 182.788 25.8581 182.861 25.6763C182.803 25.509 182.745 25.3636 182.686 25.2327L182.497 24.7527C182.425 24.5636 182.33 24.3163 182.221 24.0254C182.112 23.7345 181.952 23.2981 181.763 22.7963C181.326 21.6618 180.905 20.6145 180.519 19.669C180.134 18.7236 179.792 17.9236 179.523 17.2763L178.672 15.16C178.439 14.5781 178.294 14.1927 178.228 14.0036C178.061 13.5963 177.908 13.2763 177.77 12.9854C177.659 12.7522 177.525 12.5306 177.37 12.3236C177.19 12.1271 176.958 11.9858 176.701 11.9163C176.412 11.8325 176.118 11.7645 175.821 11.7127C175.744 11.7175 175.668 11.697 175.603 11.6545C175.563 11.558 175.548 11.4529 175.559 11.349C175.559 11.1381 175.596 11.0145 175.646 10.9709C175.697 10.9272 175.792 10.8981 175.952 10.9054C177.079 10.9854 178.192 11.0436 179.276 11.0654C180.359 11.0872 181.457 11.0654 182.57 11.0654C182.686 11.0654 182.759 11.0654 182.788 11.1236C182.817 11.1818 182.839 11.269 182.832 11.4581C182.825 11.6472 182.832 11.7563 182.788 11.7927C182.68 11.8386 182.564 11.8633 182.446 11.8654C182.208 11.8451 181.969 11.8754 181.743 11.9544C181.517 12.0334 181.311 12.1592 181.137 12.3236C181.029 12.4872 180.963 12.6753 180.945 12.8707C180.927 13.0662 180.958 13.2631 181.036 13.4436C181.55 15.1018 182.67 18.0109 184.396 22.1709C185.268 20.3672 186.003 18.789 186.577 17.4363C187.082 16.317 187.505 15.1624 187.843 13.9818C187.923 13.7605 187.95 13.5237 187.922 13.2901C187.894 13.0565 187.812 12.8327 187.683 12.6363C187.526 12.445 187.333 12.2872 187.115 12.1723C186.896 12.0573 186.656 11.9876 186.41 11.9672C186.283 11.9579 186.157 11.9285 186.039 11.88C185.996 11.88 185.974 11.7781 185.981 11.6327C185.981 11.3272 186.039 11.1818 186.126 11.1818L187.581 11.2836L189.036 11.3418C189.486 11.3418 189.923 11.3418 190.345 11.3418C190.766 11.3418 191.203 11.3418 191.654 11.3418C191.719 11.3418 191.756 11.3927 191.77 11.5018C191.785 11.6109 191.836 11.7345 191.85 11.8509Z" fill="#ED0A0A"/>
<path d="M104.985 29.2178H106.199V34.4614C106.199 36.5487 104.985 37.1887 103.377 37.1887C102.941 37.1919 102.507 37.1282 102.09 36.9996L102.257 36.1778C102.59 36.2803 102.935 36.3318 103.283 36.3305C104.359 36.3305 104.985 35.916 104.985 34.3814V29.2178Z" fill="white"/>
<path d="M113.77 35.5097C113.77 36.106 113.77 36.6224 113.828 37.0588H112.745L112.679 36.1424C112.427 36.4802 112.097 36.7518 111.717 36.9341C111.337 37.1165 110.919 37.2042 110.497 37.1897C109.443 37.1897 108.185 36.6879 108.185 34.7242V31.4297H109.399V34.5351C109.399 35.6042 109.799 36.3388 110.897 36.3388C111.226 36.3487 111.551 36.2652 111.834 36.0978C112.118 35.9305 112.348 35.6862 112.497 35.3933C112.577 35.2306 112.617 35.0511 112.614 34.8697V31.4297H113.828L113.77 35.5097Z" fill="white"/>
<path d="M115.625 36.0259C116.131 36.2719 116.684 36.4058 117.247 36.4186C118.119 36.4186 118.534 36.0623 118.534 35.5823C118.534 35.1023 118.185 34.855 117.297 34.5568C116.083 34.1859 115.516 33.6405 115.516 32.9641C115.516 32.055 116.403 31.3132 117.828 31.3132C118.392 31.2958 118.951 31.4156 119.457 31.6623L119.167 32.3895C118.745 32.1695 118.276 32.0546 117.799 32.055C117.072 32.055 116.694 32.4041 116.694 32.7823C116.694 33.1605 117.079 33.4586 117.952 33.7495C119.101 34.1132 119.705 34.6005 119.705 35.4368C119.705 36.4405 118.781 37.1386 117.217 37.1386C116.569 37.1478 115.925 37.0137 115.334 36.7459L115.625 36.0259Z" fill="white"/>
<path d="M122.737 30.0771V31.4299H124.483V32.2081H122.737V35.2481C122.737 35.9754 122.977 36.339 123.654 36.339C123.898 36.3478 124.143 36.3258 124.381 36.2736L124.432 37.0518C124.081 37.1461 123.719 37.1926 123.356 37.1899C122.879 37.2155 122.409 37.0626 122.039 36.7609C121.869 36.5613 121.74 36.3299 121.66 36.0803C121.58 35.8306 121.551 35.5675 121.574 35.3063V32.2081H120.534V31.4299H121.574V30.3827L122.737 30.0771Z" fill="white"/>
<path d="M129.152 33.2688C129.152 32.5415 129.152 31.9597 129.094 31.4288H130.17L130.236 32.3961C130.607 31.918 131.117 31.5676 131.697 31.3935C132.276 31.2194 132.896 31.2304 133.469 31.4249C134.041 31.6193 134.54 31.9876 134.894 32.4785C135.247 32.9693 135.439 33.5582 135.443 34.1633C135.46 34.567 135.392 34.9697 135.244 35.3457C135.097 35.7217 134.873 36.0629 134.586 36.3475C134.299 36.6321 133.956 36.8539 133.58 36.9987C133.202 37.1436 132.799 37.2083 132.396 37.1888C132.008 37.2117 131.621 37.1433 131.265 36.9892C130.908 36.8352 130.593 36.5996 130.345 36.3015V39.3633H129.152V33.2688ZM130.345 34.767C130.341 34.9098 130.361 35.0523 130.403 35.1888C130.54 35.5557 130.79 35.8697 131.116 36.0854C131.443 36.301 131.83 36.4073 132.221 36.3888C132.503 36.399 132.784 36.3481 133.045 36.2398C133.305 36.1315 133.54 35.9682 133.732 35.7611C133.924 35.554 134.069 35.308 134.157 35.0398C134.245 34.7716 134.274 34.4875 134.243 34.207C134.263 33.9375 134.225 33.667 134.134 33.4127C134.043 33.1584 133.9 32.9259 133.713 32.7302C133.527 32.5344 133.302 32.3796 133.052 32.2758C132.803 32.1719 132.535 32.1212 132.265 32.127C131.865 32.1117 131.47 32.2259 131.14 32.4525C130.809 32.6792 130.561 33.0062 130.432 33.3851C130.382 33.5154 130.352 33.6529 130.345 33.7924V34.767Z" fill="white"/>
<path d="M137.654 34.434C137.654 35.8159 138.716 36.3904 139.945 36.3904C140.573 36.4083 141.199 36.3097 141.792 36.0995L142.01 36.8268C141.295 37.0839 140.537 37.2072 139.777 37.1904C137.727 37.1904 136.497 36.0413 136.497 34.3395C136.48 33.9287 136.549 33.5188 136.702 33.137C136.854 32.7551 137.086 32.4098 137.381 32.1239C137.676 31.838 138.029 31.618 138.416 31.4785C138.803 31.3388 139.215 31.2828 139.625 31.314C139.985 31.2814 140.348 31.3263 140.689 31.4459C141.031 31.5654 141.343 31.7567 141.604 32.0068C141.865 32.257 142.069 32.5602 142.204 32.8962C142.337 33.232 142.398 33.5927 142.381 33.954C142.385 34.1152 142.371 34.2763 142.337 34.434H137.654ZM141.21 33.7068C141.225 33.4834 141.193 33.2594 141.113 33.05C141.034 32.8407 140.911 32.6511 140.751 32.4942C140.591 32.3372 140.399 32.2168 140.188 32.1412C139.977 32.0655 139.753 32.0364 139.53 32.0559C139.068 32.0482 138.62 32.2143 138.276 32.5215C137.931 32.8287 137.714 33.2544 137.668 33.714L141.21 33.7068Z" fill="white"/>
<path d="M143.879 33.1815C143.879 32.5196 143.879 31.9524 143.821 31.4287H144.883L144.941 32.5415H144.977C145.132 32.1769 145.392 31.8668 145.723 31.6505C146.054 31.4341 146.444 31.3215 146.839 31.3269C146.95 31.3194 147.062 31.3194 147.174 31.3269V32.2942C147.036 32.2825 146.897 32.2825 146.759 32.2942C146.374 32.2713 145.993 32.3892 145.688 32.626C145.383 32.8628 145.174 33.2023 145.101 33.5815C145.086 33.7386 145.086 33.8969 145.101 34.0542V37.0578H143.886L143.879 33.1815Z" fill="white"/>
<path d="M148.919 37.0586V32.2077H148.01V31.4295H148.934V31.1604C148.908 30.7952 148.963 30.4287 149.096 30.0877C149.23 29.7467 149.438 29.4398 149.705 29.1895C150.17 28.8359 150.742 28.6512 151.326 28.6659C151.678 28.6644 152.027 28.7209 152.359 28.8331L152.199 29.6259C151.953 29.5317 151.692 29.4872 151.428 29.4949C150.388 29.4949 150.134 30.2222 150.134 31.124V31.4295H151.741V32.2077H150.119V37.0586H148.919Z" fill="white"/>
<path d="M153.312 34.4329C153.312 35.8148 154.367 36.3893 155.596 36.3893C156.224 36.4072 156.85 36.3086 157.443 36.0984L157.661 36.8257C156.945 37.0828 156.188 37.2061 155.428 37.1893C153.377 37.1893 152.156 36.0402 152.156 34.3384C152.14 33.9288 152.211 33.5206 152.364 33.1404C152.518 32.7603 152.75 32.4168 153.045 32.1326C153.34 31.8483 153.692 31.6296 154.078 31.4908C154.463 31.3521 154.874 31.2964 155.283 31.3275C155.644 31.2936 156.007 31.3377 156.348 31.4568C156.691 31.5758 157.003 31.7671 157.265 32.0175C157.526 32.2679 157.73 32.5717 157.864 32.9081C157.998 33.2446 158.057 33.6059 158.039 33.9675C158.044 34.1286 158.029 34.2897 157.996 34.4475L153.312 34.4329ZM156.861 33.7057C156.878 33.482 156.846 33.2574 156.767 33.0475C156.688 32.8376 156.564 32.6474 156.404 32.4902C156.244 32.3331 156.052 32.2126 155.841 32.1374C155.629 32.0622 155.404 32.034 155.181 32.0548C154.719 32.0454 154.272 32.2113 153.927 32.519C153.583 32.8267 153.369 33.2532 153.327 33.7129L156.861 33.7057Z" fill="white"/>
<path d="M164.279 36.8617C163.667 37.087 163.019 37.198 162.367 37.189C160.359 37.189 159.05 36.0399 159.05 34.2799C159.05 32.5199 160.454 31.3271 162.628 31.3271C163.202 31.315 163.773 31.4163 164.308 31.6253L164.01 32.3962C163.567 32.2063 163.088 32.1144 162.607 32.1271C162.314 32.1029 162.02 32.1395 161.742 32.2349C161.464 32.3302 161.209 32.4821 160.993 32.681C160.777 32.8799 160.604 33.1215 160.486 33.3904C160.368 33.6594 160.307 33.9498 160.307 34.2435C160.307 34.5372 160.368 34.8277 160.486 35.0966C160.604 35.3655 160.777 35.6071 160.993 35.806C161.209 36.0049 161.464 36.1568 161.742 36.2522C162.02 36.3474 162.314 36.3842 162.607 36.3599C163.103 36.3612 163.596 36.2725 164.061 36.0981L164.279 36.8617Z" fill="white"/>
<path d="M167.341 30.0771V31.4299H169.101V32.2081H167.37V35.2481C167.37 35.9754 167.603 36.339 168.279 36.339C168.524 36.3493 168.768 36.3273 169.006 36.2736L169.065 37.0518C168.713 37.1456 168.352 37.1921 167.988 37.19C167.513 37.2158 167.046 37.0628 166.679 36.7609C166.509 36.5613 166.38 36.33 166.3 36.0803C166.22 35.8306 166.191 35.5675 166.214 35.3063V32.2081H165.181V31.4299H166.192V30.3827L167.341 30.0771Z" fill="white"/>
<path d="M0.373779 14.6581C0.409043 14.6857 0.448275 14.7077 0.490143 14.7236L0.373779 14.6581ZM10.6211 16.1563C12.7156 16.1563 16.0538 16.0836 18.6792 13.9091C19.3789 13.3131 19.9357 12.5675 20.3083 11.7272C20.6892 10.9123 20.8854 10.0232 20.8829 9.1236C20.8926 8.17538 20.6704 7.23909 20.2356 6.39633C19.8119 5.58211 19.2104 4.8737 18.4756 4.32361C16.8521 3.15377 14.8821 2.56454 12.8829 2.65088C11.8138 2.65088 10.7665 2.65088 9.74105 2.72361C8.7156 2.79633 7.63196 2.79633 6.49742 2.79633H5.46469C5.1156 2.79633 4.68651 2.79633 4.17742 2.79633C4.03923 2.79633 3.95196 2.79633 3.9156 2.85451C3.86742 3.01963 3.85016 3.19222 3.86469 3.36361C3.86469 3.61815 3.86469 3.75633 3.93014 3.79997C4.06337 3.85737 4.20689 3.88707 4.35196 3.88724C4.96986 3.86534 5.5771 4.05238 6.0756 4.41815C6.2568 4.62201 6.37326 4.87518 6.41014 5.14542C6.47577 5.51547 6.51467 5.88978 6.52651 6.26542C6.57742 8.3236 6.59196 10.3527 6.58469 12.3527C6.58469 13.2254 6.58469 14.1054 6.58469 14.9927H9.74832V3.79997C10.0496 3.7577 10.3532 3.73342 10.6574 3.72724H11.3847C13.0012 3.64785 14.5905 4.16554 15.8501 5.18179C16.4059 5.70638 16.8408 6.34568 17.1246 7.05526C17.4085 7.76484 17.5344 8.52774 17.4938 9.29087C17.4899 10.1115 17.3371 10.9248 17.0429 11.6909C16.0174 14.4181 13.1738 15.3272 9.77014 15.3272H7.79923H7.15196H6.57742H5.85014C1.9956 15.1963 0.831961 14.9345 0.48287 14.7963C2.38223 15.6989 4.45997 16.1637 6.56287 16.1563C6.56287 16.1563 8.89742 16.1563 10.6211 16.1563ZM13.4647 25.1163C13.2635 25.0772 13.0584 25.0625 12.8538 25.0727C12.4095 25.1218 11.9599 25.073 11.5365 24.9298C11.1131 24.7865 10.7261 24.5523 10.4029 24.2436C9.97705 23.5291 9.77676 22.7028 9.82832 21.8727C9.82832 20.8109 9.78469 19.8145 9.77742 18.8836C9.77742 18.1563 9.77742 17.3854 9.77742 16.52H6.62105C6.62105 17.1527 6.62105 17.7854 6.62105 18.4254V19.6909C6.62105 20.2218 6.62105 20.7672 6.57014 21.32C6.51923 21.8727 6.49014 22.3963 6.43196 22.8763C6.40785 23.2449 6.30624 23.6043 6.13378 23.9309C5.92428 24.2881 5.61744 24.5784 5.24912 24.7677C4.8808 24.957 4.4662 25.0376 4.05378 25C3.86469 25 3.74832 25 3.70469 25.08C3.62662 25.2301 3.58902 25.3981 3.5956 25.5672C3.57771 25.7143 3.60297 25.8634 3.66832 25.9963C3.71196 26.0618 3.82832 26.0909 4.01742 26.0909C4.74469 26.0472 5.47196 26.0181 6.14832 26.0181H8.24287C9.05741 26.0181 9.87923 26.0181 10.7011 26.0181L13.2029 26.1272C13.3847 26.1272 13.4938 26.1272 13.5301 26.0327C13.5791 25.8702 13.5964 25.6999 13.5811 25.5309C13.5811 25.2909 13.5447 25.1381 13.4647 25.1163Z" fill="#ED0A0A"/>
<path d="M32.5265 15.6915C32.5469 15.8471 32.5277 16.0055 32.4704 16.1517C32.4132 16.298 32.3199 16.4273 32.1992 16.5279C31.6405 16.7275 31.0445 16.802 30.4538 16.746H29.1447C28.8247 16.746 28.5338 16.746 28.272 16.746H27.4138C27.1083 16.746 26.6865 16.746 26.1629 16.746H24.9992L24.1992 16.7024H23.4138H22.3083C22.2568 17.1733 22.2325 17.6468 22.2356 18.1206C22.2336 18.6332 22.2823 19.1448 22.381 19.6479C22.4822 20.1819 22.6534 20.7003 22.8901 21.1897C23.1474 21.7271 23.4914 22.2185 23.9083 22.6442C24.417 23.2289 25.0482 23.6944 25.7572 24.0073C26.4661 24.3204 27.2354 24.4732 28.0101 24.4551C28.7701 24.447 29.5176 24.2601 30.192 23.9097C30.8835 23.5692 31.5208 23.128 32.0829 22.6006C32.0924 22.5884 32.1045 22.5787 32.1184 22.5719C32.1322 22.5652 32.1474 22.5617 32.1629 22.5617C32.1783 22.5617 32.1935 22.5652 32.2074 22.5719C32.2212 22.5787 32.2333 22.5884 32.2429 22.6006C32.2739 22.6276 32.2985 22.6612 32.3148 22.699C32.3312 22.7367 32.3389 22.7776 32.3374 22.8188C32.243 23.2933 32.0013 23.726 31.6465 24.0551C31.0181 24.8463 30.2151 25.4812 29.3003 25.9102C28.3856 26.3392 27.3839 26.5505 26.3738 26.5279C25.4096 26.5367 24.4538 26.3477 23.5657 25.9724C22.6776 25.5972 21.8758 25.0436 21.2101 24.346C20.5427 23.6502 20.0193 22.8295 19.6698 21.9308C19.3204 21.0323 19.1518 20.0735 19.1738 19.1097C19.1632 18.0782 19.3483 17.054 19.7192 16.0915C20.0819 15.1686 20.626 14.3278 21.3192 13.6188C22.0048 12.9023 22.8254 12.3289 23.7338 11.9315C24.6808 11.5193 25.7047 11.3135 26.7374 11.3279C27.4015 11.3308 28.062 11.4237 28.701 11.6042C29.366 11.7738 29.9994 12.0488 30.5774 12.4188C31.1369 12.7699 31.6153 13.2359 31.981 13.786C32.352 14.3511 32.5423 15.0157 32.5265 15.6915ZM29.6174 14.4188C29.6291 14.1975 29.5966 13.976 29.5217 13.7675C29.4467 13.5589 29.3309 13.3674 29.181 13.2042C28.8792 12.8917 28.5042 12.6593 28.0901 12.5279C27.6375 12.3804 27.1623 12.3139 26.6865 12.3315C26.2381 12.3316 25.792 12.3977 25.3629 12.5279C24.6621 12.7563 24.0296 13.1563 23.5229 13.6915C22.9766 14.2522 22.6051 14.9597 22.4538 15.7279H25.101C25.9156 15.7279 26.781 15.7279 27.7047 15.6551C28.2581 15.6747 28.8056 15.5359 29.2829 15.2551C29.4035 15.1525 29.4995 15.024 29.5637 14.8793C29.628 14.7345 29.6587 14.577 29.6538 14.4188H29.6174Z" fill="#ED0A0A"/>
<path d="M66.7083 15.6915C66.7288 15.8471 66.7095 16.0055 66.6523 16.1517C66.595 16.298 66.5017 16.4273 66.3811 16.5279C65.8223 16.7275 65.2264 16.802 64.6356 16.746H63.3265C63.0065 16.746 62.7156 16.746 62.4538 16.746H61.5956C61.2902 16.746 60.8683 16.746 60.3447 16.746H59.1811L58.3811 16.7024H57.5956H56.4902C56.4387 17.1733 56.4144 17.6468 56.4174 18.1206C56.4154 18.6332 56.4641 19.1448 56.5629 19.6479C56.664 20.1819 56.8352 20.7003 57.072 21.1897C57.3292 21.7271 57.6732 22.2185 58.0901 22.6442C58.5988 23.2289 59.23 23.6944 59.939 24.0073C60.648 24.3204 61.4172 24.4732 62.192 24.4551C62.952 24.447 63.6994 24.2601 64.3738 23.9097C65.0654 23.5692 65.7026 23.128 66.2647 22.6006C66.2742 22.5884 66.2864 22.5787 66.3003 22.5719C66.3141 22.5652 66.3293 22.5617 66.3447 22.5617C66.3601 22.5617 66.3753 22.5652 66.3892 22.5719C66.403 22.5787 66.4152 22.5884 66.4247 22.6006C66.4558 22.6276 66.4803 22.6612 66.4966 22.699C66.513 22.7367 66.5207 22.7776 66.5192 22.8188C66.4248 23.2933 66.1831 23.726 65.8283 24.0551C65.2 24.8463 64.3969 25.4812 63.4822 25.9102C62.5674 26.3392 61.5657 26.5505 60.5556 26.5279C59.5915 26.5367 58.6357 26.3477 57.7475 25.9724C56.8594 25.5972 56.0576 25.0436 55.392 24.346C54.7246 23.6502 54.2011 22.8295 53.8517 21.9308C53.5022 21.0323 53.3336 20.0735 53.3556 19.1097C53.3451 18.0782 53.5301 17.054 53.9011 16.0915C54.2637 15.1686 54.8078 14.3278 55.5011 13.6188C56.1866 12.9023 57.0072 12.3289 57.9156 11.9315C58.8626 11.5193 59.8865 11.3135 60.9192 11.3279C61.5833 11.3308 62.2438 11.4237 62.8829 11.6042C63.5478 11.7738 64.1813 12.0488 64.7592 12.4188C65.3187 12.7699 65.7971 13.2359 66.1629 13.786C66.5339 14.3511 66.7241 15.0157 66.7083 15.6915ZM63.8356 14.4188C63.8474 14.1975 63.8148 13.976 63.7399 13.7675C63.6649 13.5589 63.5491 13.3674 63.3992 13.2042C63.0974 12.8917 62.7225 12.6593 62.3083 12.5279C61.8557 12.3804 61.3805 12.3139 60.9047 12.3315C60.4563 12.3316 60.0103 12.3977 59.5811 12.5279C58.8803 12.7563 58.2478 13.1563 57.7411 13.6915C57.1948 14.2522 56.8233 14.9597 56.672 15.7279H59.2829C60.0974 15.7279 60.9629 15.7279 61.8865 15.6551C62.44 15.6747 62.9875 15.5359 63.4647 15.2551C63.5854 15.1525 63.6814 15.024 63.7456 14.8793C63.8098 14.7345 63.8406 14.577 63.8356 14.4188Z" fill="#ED0A0A"/>
<path d="M79.5811 23.5531C79.4858 23.7049 79.3811 23.8506 79.2683 23.9894C79.1098 24.1859 78.9345 24.3683 78.7447 24.5349C77.3461 25.8424 75.4952 26.5567 73.5811 26.5276C72.6151 26.5379 71.6589 26.3342 70.781 25.9313C69.9623 25.5417 69.2226 25.0042 68.5992 24.3458C67.9675 23.686 67.4731 22.9073 67.1446 22.0549C66.8001 21.1619 66.6275 20.212 66.6355 19.2549C66.6153 18.2124 66.8045 17.1764 67.1917 16.2083C67.5789 15.2401 68.1565 14.3596 68.8901 13.6185C69.6195 12.8795 70.4929 12.298 71.4562 11.9102C72.4194 11.5224 73.4523 11.3365 74.4901 11.364C75.7003 11.3401 76.9018 11.5705 78.0174 12.0404C79.0574 12.484 79.5811 12.9858 79.5811 13.5458C79.5738 13.6984 79.5491 13.8497 79.5083 13.9967C79.4574 14.1817 79.3971 14.3638 79.3265 14.5422C79.2589 14.7118 79.1607 14.8673 79.0356 15.0004C78.9847 15.0564 78.9229 15.1014 78.8545 15.1327C78.7854 15.164 78.7112 15.1809 78.6356 15.1822C78.4901 15.1651 78.3505 15.1174 78.2247 15.0421C78.0996 14.9669 77.992 14.8659 77.9083 14.7458C77.7236 14.5265 77.5243 14.32 77.312 14.1276C76.8458 13.6502 76.3207 13.2347 75.7483 12.8913C75.2152 12.5942 74.6131 12.4436 74.0029 12.4549C73.3861 12.4457 72.7764 12.5857 72.2256 12.8631C71.6747 13.1404 71.1991 13.5468 70.8392 14.0476C69.9782 15.2235 69.5422 16.657 69.6028 18.1131C69.5864 19.1311 69.7976 20.1399 70.221 21.0658C70.6176 21.9501 71.2213 22.7259 71.981 23.3276C72.5938 23.8135 73.304 24.1622 74.0625 24.3505C74.8218 24.5386 75.6123 24.5619 76.3811 24.4185C77.408 24.2637 78.3745 23.8369 79.1811 23.1822C79.3992 22.9931 79.5447 22.9567 79.632 23.0731C79.7192 23.1894 79.6974 23.3276 79.5811 23.5531Z" fill="#ED0A0A"/>
<path d="M89.6902 11.8728C89.6763 11.9863 89.6443 12.0968 89.5956 12.2001L89.3993 12.6946L89.1956 13.1819C89.1374 13.3274 89.0938 13.4365 89.072 13.5092H84.272C84.272 14.7455 84.272 15.9819 84.2138 17.2183C84.1556 18.4546 84.1702 19.691 84.2138 20.9274C84.2138 21.4146 84.2138 21.8874 84.2647 22.3455C84.2916 22.7734 84.3978 23.1926 84.5774 23.5819C84.744 23.9439 85.0153 24.2477 85.3556 24.4546C85.8 24.6978 86.304 24.8112 86.8102 24.7819C87.3113 24.7994 87.8087 24.6998 88.2647 24.491C88.672 24.2814 89.0611 24.0381 89.4283 23.7637C89.5229 23.7128 89.5738 23.7637 89.5738 23.9092C89.5105 24.1633 89.3709 24.3919 89.1738 24.5637C88.6458 25.1687 88.0029 25.6631 87.2829 26.0183C86.6043 26.3527 85.8574 26.5268 85.1011 26.5274C84.4443 26.539 83.7949 26.3892 83.2102 26.091C82.6516 25.8198 82.1753 25.4058 81.8283 24.891C81.5578 24.4476 81.384 23.9519 81.3193 23.4365C81.2414 22.8165 81.2051 22.1921 81.2102 21.5674C81.2102 20.3819 81.2683 19.211 81.3193 18.0619C81.3702 16.9128 81.3992 15.7128 81.4283 14.4765C81.4283 13.9165 81.3192 13.5746 81.1156 13.4437C80.7476 13.2734 80.3411 13.2031 79.9374 13.2401C79.8742 13.2481 79.8109 13.2354 79.7556 13.2037C79.7556 13.2037 79.7556 13.0728 79.7556 12.8765C79.76 12.8215 79.7796 12.769 79.8116 12.7242C79.8436 12.6794 79.8873 12.644 79.9374 12.6219C80.3105 12.4329 80.6683 12.214 81.0065 11.9674C81.3629 11.7024 81.6982 11.4106 82.0102 11.0946C82.3345 10.7911 82.6429 10.4707 82.9338 10.1346C83.2305 9.78125 83.5054 9.40962 83.7556 9.02191C83.7556 8.971 83.8283 8.94191 83.9156 8.92736C84.0029 8.91282 84.1993 8.92736 84.5193 8.92736C84.5193 9.41464 84.5193 9.90918 84.4611 10.3819C84.4029 10.8546 84.4102 11.3855 84.4102 11.8728H89.6902Z" fill="#ED0A0A"/>
<path d="M44.4174 12.4549C44.4042 12.5704 44.3671 12.6819 44.3083 12.7822L44.0683 13.2695C43.981 13.4513 43.8938 13.6331 43.7992 13.8004C43.7047 13.9677 43.6174 14.1058 43.5447 14.2004C43.4885 14.2939 43.42 14.3795 43.341 14.4549C43.341 14.4549 43.2247 14.4549 43.1083 14.3458C42.7689 14.1051 42.3861 13.9322 41.981 13.8367C41.5642 13.7396 41.1336 13.7149 40.7083 13.764C40.2689 13.8152 39.8397 13.9329 39.4356 14.1131C39.021 14.2925 38.6492 14.5577 38.3447 14.8913C38.2066 15.0067 38.0949 15.1506 38.0174 15.3131C37.9932 15.5234 37.9932 15.7357 38.0174 15.9458V21.9095C38.0058 22.4697 38.0472 23.0298 38.141 23.5822C38.1832 23.9535 38.3499 24.2995 38.6141 24.5637C38.8784 24.828 39.2243 24.9947 39.5956 25.0367C40.1363 25.1248 40.685 25.1541 41.232 25.124C41.3483 25.124 41.4283 25.124 41.4647 25.124C41.515 25.2383 41.535 25.3635 41.5229 25.4877C41.5634 25.613 41.5634 25.7479 41.5229 25.8731C41.489 25.9049 41.4489 25.9291 41.405 25.9442C41.3611 25.9592 41.3146 25.9647 41.2683 25.9604H39.3047H37.3047C36.4538 25.9604 35.6174 25.9604 34.7956 26.0186L32.3738 26.1277C32.2501 26.1277 32.1774 26.1277 32.1556 26.0549C32.1321 25.9349 32.1321 25.8114 32.1556 25.6913C32.144 25.5797 32.1615 25.4669 32.2065 25.364C32.2065 25.3131 32.3374 25.2913 32.4829 25.2913C33.0127 25.2554 33.5309 25.1197 34.0101 24.8913C34.2446 24.7574 34.4473 24.5743 34.6042 24.3546C34.7612 24.1349 34.8687 23.8838 34.9192 23.6186C35.0082 23.1212 35.0616 22.6181 35.0792 22.1131C35.0792 21.444 35.1374 20.3968 35.1374 18.964V17.6549C35.1374 17.0004 35.1374 16.4331 35.101 15.9677C35.0861 15.5653 35.0176 15.1666 34.8974 14.7822C34.8038 14.4907 34.6205 14.2362 34.3738 14.0549C34.0525 13.8594 33.6928 13.7354 33.3192 13.6913C33.2239 13.6818 33.1306 13.6573 33.0429 13.6186C33.0429 13.6186 32.992 13.524 32.992 13.4004C32.9888 13.3524 32.997 13.3043 33.016 13.2601C33.035 13.2158 33.0641 13.1767 33.101 13.1458C33.7774 12.8331 34.461 12.4913 35.152 12.1277C35.8429 11.764 36.5192 11.4004 37.1738 11.0004C37.2142 10.9753 37.2608 10.9619 37.3083 10.9619C37.3559 10.9619 37.4025 10.9753 37.4429 11.0004C37.552 11.0513 37.6101 11.1095 37.6101 11.1822C37.6538 11.7156 37.6901 12.261 37.7192 12.8186C37.7483 13.3762 37.7847 13.8853 37.8283 14.3458L38.9192 13.2186C39.284 12.831 39.6726 12.4666 40.0829 12.1277C40.501 11.7924 40.9912 11.5588 41.5149 11.4452C42.0387 11.3316 42.5816 11.3412 43.101 11.4731C43.4227 11.5784 43.7323 11.7173 44.0247 11.8877C44.128 11.9474 44.2168 12.0292 44.2848 12.1272C44.3526 12.2253 44.398 12.3373 44.4174 12.4549Z" fill="#ED0A0A"/>
<path d="M57.1011 2.89129C57.1113 3.22925 56.9946 3.55877 56.7739 3.81493C56.6608 3.94312 56.5205 4.04429 56.3632 4.11101C56.2058 4.17772 56.0355 4.20827 55.8648 4.20038C55.4991 4.22015 55.1388 4.10528 54.852 3.87747C54.5653 3.64967 54.3719 3.32471 54.3084 2.96402C54.1968 2.53146 53.9907 2.12905 53.7048 1.78584C53.5419 1.61093 53.3413 1.47547 53.1183 1.38976C52.8952 1.30406 52.6555 1.27038 52.4175 1.29129C51.8448 1.2743 51.2883 1.48328 50.8684 1.87311C50.4689 2.25819 50.165 2.73141 49.9811 3.25493C49.8373 3.74277 49.7328 4.24133 49.6684 4.74584C49.5757 5.43315 49.5223 6.12518 49.5084 6.81856V11.9095H51.2175H52.4684L53.5593 11.8658H54.7811C54.6837 12.0789 54.5987 12.2975 54.5266 12.5204C54.4549 12.7057 54.3942 12.8952 54.3448 13.0876C54.2938 13.2695 54.2429 13.4149 54.1993 13.5385H51.9084C51.1811 13.5385 50.3666 13.5385 49.472 13.5749V15.6331C49.472 16.2731 49.472 16.9131 49.472 17.5604C49.472 18.2076 49.472 18.8476 49.472 19.5022V21.6113C49.4725 22.1903 49.5458 22.767 49.6902 23.3276C49.7778 23.7218 49.9803 24.0812 50.272 24.3604C50.5501 24.6116 50.8883 24.7869 51.2538 24.8695C51.7325 24.9785 52.2188 25.0515 52.7084 25.0876C52.8098 25.0993 52.9082 25.1289 52.9993 25.1749C53.0653 25.3051 53.0906 25.452 53.072 25.5967C53.072 25.8367 53.072 25.9822 52.9775 26.0331C52.837 26.0991 52.6808 26.1243 52.5266 26.1058L50.3448 26.0331C49.6175 26.0331 48.8902 26.0331 48.1629 26.0331C47.5084 26.0331 46.8538 26.0331 46.2138 26.0331L44.3084 26.1058C44.1629 26.1058 44.0684 26.1058 44.032 26.0695C43.9842 25.9546 43.9667 25.8294 43.9811 25.7058C43.9679 25.5345 43.9851 25.3621 44.032 25.1967C44.057 25.1572 44.093 25.1257 44.1357 25.1063C44.1784 25.0869 44.2258 25.0804 44.272 25.0876C44.6757 25.1009 45.0788 25.0468 45.4648 24.9276C45.7704 24.8217 46.0282 24.6103 46.192 24.3313C46.3669 23.9917 46.4731 23.621 46.5048 23.2404C46.5484 22.7895 46.5775 22.2222 46.5775 21.5458V13.5822H45.8866H44.9775C44.8538 13.5822 44.7957 13.5095 44.7957 13.2913C44.7845 13.1097 44.7845 12.9275 44.7957 12.7458C44.7957 12.6731 44.8757 12.6149 44.9993 12.564C45.4863 12.4207 45.9081 12.1121 46.192 11.6913C46.4554 11.2054 46.6279 10.6755 46.7011 10.1276C46.7011 9.98218 46.7448 9.764 46.7738 9.47309C46.8029 9.18218 46.7738 8.86945 46.8248 8.52763C46.8757 8.18582 46.8248 7.86582 46.8248 7.56763C46.8248 7.26947 46.8248 7.01493 46.8248 6.84038C46.7907 5.24499 47.2898 3.68382 48.2429 2.40402C48.8397 1.69055 49.5841 1.11491 50.4248 0.716746C51.3013 0.273182 52.2714 0.046234 53.2538 0.0549282C53.665 0.0609332 54.0735 0.122085 54.4684 0.236746C54.9105 0.360989 55.3337 0.544471 55.7266 0.7822C56.1059 1.00027 56.4335 1.29802 56.6866 1.65493C56.9519 2.01291 57.0971 2.44573 57.1011 2.89129Z" fill="#ED0A0A"/>
<path d="M202.759 19.3939C207.471 19.3939 211.29 15.5745 211.29 10.863C211.29 6.15145 207.471 2.33203 202.759 2.33203C198.048 2.33203 194.228 6.15145 194.228 10.863C194.228 15.5745 198.048 19.3939 202.759 19.3939Z" fill="#ED0A0A"/>
<path d="M209.668 14.0185C209.674 14.0643 209.674 14.1108 209.668 14.1567C209.668 14.1567 209.625 14.1567 209.574 14.1567H208.81H207.479H206.948C206.918 14.1678 206.884 14.1678 206.854 14.1567C206.854 14.1567 206.854 14.113 206.854 14.0548C206.854 13.9967 206.854 13.9312 206.854 13.9167C206.902 13.906 206.951 13.906 206.999 13.9167C207.15 13.9155 207.297 13.87 207.421 13.7857C207.488 13.718 207.54 13.6372 207.574 13.5483C207.607 13.4593 207.623 13.3644 207.617 13.2694C207.633 13.0272 207.633 12.7842 207.617 12.5421C207.617 12.2512 207.617 11.9239 207.617 11.5457C207.617 11.3857 207.617 11.1603 207.617 10.8621C207.617 10.5639 207.617 10.2512 207.617 9.92392C207.617 9.59665 207.617 9.27665 207.617 8.97847V8.27302C207.232 9.26211 206.825 10.2439 206.396 11.1821C205.967 12.1203 205.545 13.1312 205.116 14.0912L205.05 14.2003C205.015 14.2119 204.977 14.2119 204.941 14.2003C204.929 14.2051 204.917 14.2076 204.905 14.2076C204.892 14.2076 204.88 14.2051 204.868 14.2003C204.841 14.1487 204.816 14.0952 204.796 14.0403C204.41 13.0876 204.032 12.1567 203.647 11.2403C203.261 10.3239 202.868 9.40756 202.483 8.47665C202.483 8.59301 202.483 8.78938 202.483 9.0512C202.483 9.31301 202.483 9.59665 202.439 9.89483C202.396 10.193 202.439 10.4694 202.403 10.7312C202.367 10.993 202.403 11.1894 202.403 11.3057C202.403 11.553 202.403 11.8076 202.403 12.033C202.403 12.2585 202.403 12.5421 202.403 12.8039C202.383 13.0716 202.441 13.3394 202.57 13.5748C202.635 13.6626 202.724 13.7306 202.825 13.7712C202.932 13.808 203.046 13.8252 203.159 13.8221C203.21 13.8221 203.247 13.8221 203.254 13.8221C203.261 13.8221 203.254 13.873 203.254 13.9239C203.254 13.9748 203.254 14.0403 203.254 14.0548C203.254 14.0694 203.21 14.0548 203.159 14.0548H201.603H201.094C201.028 14.0548 200.992 14.0112 200.992 13.9385C200.977 13.8861 200.977 13.8308 200.992 13.7785C201.047 13.7704 201.104 13.7704 201.159 13.7785C201.268 13.7884 201.377 13.774 201.479 13.7362C201.58 13.6985 201.673 13.6383 201.748 13.5603C201.787 13.5037 201.819 13.4426 201.843 13.3785C201.877 13.2892 201.901 13.1965 201.916 13.1021C201.916 12.9857 201.952 12.833 201.967 12.6585C201.981 12.4839 202.003 12.2657 202.017 12.0185C202.032 11.7712 202.017 11.6039 202.061 11.2912C202.105 10.9785 202.105 10.6221 202.127 10.2585C202.148 9.89483 202.17 9.5312 202.192 9.23301C202.214 8.93483 202.192 8.65847 202.228 8.50574C202.244 8.40691 202.244 8.30632 202.228 8.20756C202.219 8.14109 202.204 8.07549 202.185 8.0112C202.156 7.89025 202.08 7.78567 201.974 7.72029C201.84 7.67592 201.7 7.65381 201.559 7.65483C201.526 7.66283 201.491 7.66283 201.457 7.65483C201.457 7.65483 201.457 7.6112 201.457 7.56756C201.447 7.51971 201.447 7.46996 201.457 7.42211C201.457 7.42211 201.501 7.38574 201.559 7.38574L202.461 7.42211C202.759 7.42211 203.065 7.42211 203.377 7.42211C203.37 7.51163 203.37 7.6016 203.377 7.6912C203.377 7.79301 203.428 7.90938 203.472 8.05483C203.516 8.20029 203.588 8.38211 203.676 8.59301C203.763 8.80392 203.865 9.06574 203.996 9.37847C204.076 9.56756 204.163 9.77847 204.272 10.0257C204.381 10.273 204.49 10.5421 204.614 10.8257C204.737 11.1094 204.868 11.4076 205.014 11.7203L205.436 12.6948L206.163 11.0439L206.847 9.42938C207.05 8.94938 207.203 8.54938 207.312 8.22211C207.399 7.98843 207.453 7.74356 207.472 7.49483C207.476 7.46094 207.476 7.42683 207.472 7.39302C207.748 7.39302 208.025 7.39302 208.308 7.39302H209.363C209.421 7.39302 209.457 7.39302 209.465 7.39302C209.476 7.42603 209.476 7.46181 209.465 7.49483C209.471 7.54065 209.471 7.58712 209.465 7.63302C209.465 7.63302 209.407 7.63302 209.327 7.63302C209.217 7.62509 209.108 7.62509 208.999 7.63302C208.912 7.64145 208.831 7.68312 208.774 7.74938C208.695 7.85105 208.657 7.97767 208.665 8.10574C208.665 8.27301 208.665 8.44029 208.665 8.59301C208.665 8.74574 208.665 8.94938 208.665 9.21847C208.665 9.48756 208.665 9.78574 208.665 10.0985V11.0294C208.665 11.3348 208.665 11.6039 208.665 11.8221C208.665 12.3167 208.665 12.6803 208.723 12.913C208.73 13.0969 208.775 13.2775 208.854 13.4439C208.917 13.5591 209.021 13.6471 209.145 13.6912C209.274 13.7299 209.409 13.7495 209.545 13.7494C209.578 13.7421 209.613 13.7421 209.647 13.7494C209.682 13.7838 209.705 13.8302 209.708 13.8798C209.713 13.9294 209.698 13.9787 209.668 14.0185Z" fill="white"/>
<path d="M195.85 10.9645H195.886H195.85ZM198.759 11.3936C199.58 11.4571 200.397 11.2278 201.065 10.7463C201.266 10.5767 201.425 10.3626 201.53 10.1209C201.636 9.89301 201.69 9.64479 201.69 9.39359C201.695 9.12319 201.632 8.85584 201.508 8.61541C201.388 8.38108 201.217 8.17715 201.007 8.01904C200.543 7.68312 199.979 7.51395 199.407 7.53904C199.101 7.53904 198.803 7.53904 198.505 7.53904C198.207 7.53904 197.908 7.53904 197.581 7.53904H196.919C196.908 7.53272 196.896 7.5293 196.883 7.5293C196.87 7.5293 196.857 7.53272 196.847 7.53904C196.839 7.58733 196.839 7.63628 196.847 7.6845C196.847 7.75722 196.847 7.79359 196.847 7.80813C196.847 7.82268 196.897 7.80813 196.963 7.80813C197.138 7.79853 197.311 7.85279 197.45 7.96086C197.501 8.01613 197.536 8.08392 197.552 8.15722C197.558 8.26384 197.558 8.37068 197.552 8.47722C197.552 9.06632 197.552 9.64813 197.552 10.2154V10.9427H198.454V7.82995H198.716H198.927C199.388 7.80588 199.844 7.95061 200.207 8.23722C200.365 8.38799 200.489 8.57155 200.569 8.77497C200.649 8.97846 200.684 9.19701 200.672 9.41541C200.672 9.65192 200.628 9.88632 200.541 10.1063C200.25 10.8845 199.436 11.1463 198.454 11.1463H197.348C196.835 11.1561 196.322 11.1048 195.821 10.9936C196.362 11.2497 196.953 11.3814 197.552 11.379C197.552 11.379 198.287 11.3645 198.781 11.3645L198.759 11.3936ZM199.574 13.9536C199.516 13.9473 199.457 13.9473 199.399 13.9536C199.268 13.9694 199.136 13.9568 199.01 13.9166C198.885 13.8764 198.769 13.8097 198.672 13.7209C198.552 13.5137 198.494 13.2764 198.505 13.0372C198.505 12.7318 198.505 12.4481 198.505 12.179C198.505 11.91 198.505 11.75 198.505 11.5027H197.603C197.603 11.6845 197.603 11.8663 197.603 12.0481V12.4118C197.603 12.5645 197.603 12.7172 197.603 12.8772C197.603 13.0372 197.603 13.1827 197.603 13.3209C197.592 13.4247 197.562 13.5257 197.516 13.619C197.458 13.7228 197.372 13.808 197.268 13.8646C197.164 13.9213 197.045 13.9471 196.927 13.939C196.894 13.928 196.857 13.928 196.825 13.939C196.814 13.987 196.814 14.0366 196.825 14.0845C196.813 14.1225 196.813 14.1629 196.825 14.2009C196.825 14.2009 196.868 14.2009 196.927 14.2009H197.53H198.134H198.861H199.588C199.639 14.2009 199.668 14.2009 199.676 14.2009C199.683 14.2009 199.676 14.1354 199.676 14.0627C199.676 13.99 199.647 13.9318 199.596 13.9245L199.574 13.9536Z" fill="white"/>
</g>
<defs>
<clipPath id="clip0_155_752">
<rect width="211.636" height="40" fill="white" transform="translate(0.373779 0.0546875)"/>
</clipPath>
</defs>
</svg>
