<svg width="150" height="41" viewBox="0 0 150 41" fill="none" xmlns="http://www.w3.org/2000/svg">
<g clip-path="url(#clip0_155_688)">
<path d="M41.0897 20.0547C41.0897 9.009 32.0836 0.054687 20.974 0.0546875C9.86434 0.054688 0.858215 9.009 0.858215 20.0547C0.858216 31.1004 9.86434 40.0547 20.974 40.0547C32.0836 40.0547 41.0897 31.1004 41.0897 20.0547Z" fill="#5F259F"/>
<path d="M102.593 31.4851V24.2222C102.593 22.4345 101.918 21.5406 100.233 21.5406C99.558 21.5406 98.7713 21.6523 98.322 21.7641V32.379C98.322 32.7142 97.9847 33.0494 97.6474 33.0494H95.0627C94.7254 33.0494 94.3886 32.7142 94.3886 32.379V19.9763C94.3886 19.5293 94.7254 19.1941 95.0627 19.0824C96.7486 18.5237 98.4341 18.1885 100.233 18.1885C104.278 18.1885 106.526 20.3115 106.526 24.2222V32.4907C106.526 32.8259 106.189 33.1612 105.851 33.1612H104.278C103.267 33.1612 102.593 32.379 102.593 31.4851ZM112.707 27.1274L112.595 28.133C112.595 29.4738 113.493 30.256 114.955 30.256C116.078 30.256 117.09 29.9208 118.214 29.3621C118.326 29.3621 118.439 29.2504 118.551 29.2504C118.775 29.2504 118.888 29.3621 119 29.4738C119.113 29.5856 119.337 29.9208 119.337 29.9208C119.562 30.256 119.787 30.7029 119.787 31.0381C119.787 31.5968 119.45 32.1555 119 32.379C117.764 33.0494 116.303 33.3846 114.73 33.3846C112.932 33.3846 111.471 32.9376 110.347 32.0438C109.223 31.0381 108.549 29.6973 108.549 28.0213V23.6636C108.549 20.1998 110.797 18.0768 114.617 18.0768C118.326 18.0768 120.461 20.088 120.461 23.6636V26.3452C120.461 26.6805 120.124 27.0157 119.787 27.0157H112.707V27.1274ZM112.595 24.6692H116.865V23.5518C116.865 22.211 116.078 21.3171 114.73 21.3171C113.381 21.3171 112.595 22.0993 112.595 23.5518V24.6692ZM141.252 27.1274L141.14 28.133C141.14 29.4738 142.039 30.256 143.5 30.256C144.624 30.256 145.635 29.9208 146.759 29.3621C146.871 29.3621 146.984 29.2504 147.096 29.2504C147.32 29.2504 147.433 29.3621 147.546 29.4738C147.658 29.5856 147.882 29.9208 147.882 29.9208C148.107 30.256 148.332 30.7029 148.332 31.0381C148.332 31.5968 147.995 32.1555 147.546 32.379C146.309 33.0494 144.848 33.3846 143.275 33.3846C141.477 33.3846 140.016 32.9376 138.892 32.0438C137.768 31.0381 137.094 29.6973 137.094 28.0213V23.6636C137.094 20.1998 139.342 18.0768 143.162 18.0768C146.871 18.0768 149.006 20.088 149.006 23.6636V26.3452C149.006 26.6805 148.669 27.0157 148.332 27.0157H141.252V27.1274ZM141.14 24.6692H145.41V23.5518C145.41 22.211 144.624 21.3171 143.275 21.3171C141.926 21.3171 141.14 22.0993 141.14 23.5518V24.6692ZM75.0587 33.1612H76.6321C76.9694 33.1612 77.3061 32.8259 77.3061 32.4907V24.2222C77.3061 20.4232 75.2834 18.1885 71.9121 18.1885C70.9007 18.1885 69.7768 18.412 69.1022 18.6355V14.5012C69.1022 13.6073 68.3155 12.8252 67.4168 12.8252H65.8434C65.5061 12.8252 65.1689 13.1604 65.1689 13.4956V32.4907C65.1689 32.8259 65.5061 33.1612 65.8434 33.1612H68.4281C68.7654 33.1612 69.1022 32.8259 69.1022 32.4907V21.9875C69.6642 21.7641 70.4508 21.6523 71.0128 21.6523C72.6987 21.6523 73.3728 22.4345 73.3728 24.334V31.5968C73.4854 32.379 74.1595 33.1612 75.0587 33.1612ZM92.0286 23.7753V27.9095C92.0286 31.3733 89.6686 33.4964 85.7353 33.4964C81.9141 33.4964 79.4415 31.3733 79.4415 27.9095V23.7753C79.4415 20.3115 81.8015 18.1885 85.7353 18.1885C89.6686 18.1885 92.0286 20.3115 92.0286 23.7753ZM88.0953 23.7753C88.0953 22.4345 87.3086 21.5406 85.8474 21.5406C84.3866 21.5406 83.6 22.3227 83.6 23.7753V27.9095C83.6 29.2504 84.3866 30.0325 85.8474 30.0325C87.3086 30.0325 88.0953 29.2504 88.0953 27.9095V23.7753ZM63.0335 21.8758C63.0335 25.4514 60.3368 27.9095 56.7402 27.9095C55.8415 27.9095 55.0548 27.7978 54.2681 27.4626V32.4907C54.2681 32.8259 53.9308 33.1612 53.5935 33.1612H51.0089C50.6716 33.1612 50.3343 32.8259 50.3343 32.4907V14.7247C50.3343 14.2777 50.6716 13.9425 51.0089 13.8308C52.6948 13.2721 54.3802 12.9369 56.1782 12.9369C60.2242 12.9369 63.0335 15.3951 63.0335 19.1941V21.8758ZM58.9881 18.9707C58.9881 17.1829 57.7516 16.289 56.0661 16.289C55.0548 16.289 54.3802 16.6242 54.3802 16.6242V23.9988C55.0548 24.334 55.3916 24.4457 56.1782 24.4457C57.8642 24.4457 59.1002 23.4401 59.1002 21.7641V18.9707H58.9881ZM135.633 21.8758C135.633 25.4514 132.936 27.9095 129.34 27.9095C128.44 27.9095 127.654 27.7978 126.867 27.4626V32.4907C126.867 32.8259 126.53 33.1612 126.193 33.1612H123.608C123.271 33.1612 122.934 32.8259 122.934 32.4907V14.7247C122.934 14.2777 123.271 13.9425 123.608 13.8308C125.294 13.2721 126.979 12.9369 128.778 12.9369C132.823 12.9369 135.633 15.3951 135.633 19.1941V21.8758ZM131.587 18.9707C131.587 17.1829 130.351 16.289 128.665 16.289C127.654 16.289 126.979 16.6242 126.979 16.6242V23.9988C127.654 24.334 127.991 24.4457 128.778 24.4457C130.463 24.4457 131.7 23.4401 131.7 21.7641V18.9707H131.587Z" fill="#5F259F"/>
<path d="M30.1055 14.836C30.1055 14.0538 29.4312 13.3834 28.6445 13.3834H25.9474L19.7663 6.34406C19.2044 5.67364 18.3053 5.45018 17.4063 5.67364L15.271 6.34406C14.9339 6.45576 14.8215 6.90273 15.0463 7.12618L21.7892 13.4952H11.5624C11.2252 13.4952 11.0005 13.7186 11.0005 14.0538V15.1712C11.0005 15.9533 11.6748 16.6238 12.4615 16.6238H14.0348V21.9871C14.0348 26.0096 16.1701 28.356 19.7663 28.356C20.8902 28.356 21.7892 28.2443 22.913 27.7973V31.3729C22.913 32.3785 23.6997 33.1607 24.7112 33.1607H26.2845C26.6217 33.1607 26.9588 32.8255 26.9588 32.4903V16.512H29.5436C29.8807 16.512 30.1055 16.2886 30.1055 15.9533V14.836ZM22.913 24.4453C22.2388 24.7805 21.3397 24.8922 20.6654 24.8922C18.8673 24.8922 17.9682 23.9983 17.9682 21.9871V16.6238H22.913V24.4453Z" fill="white"/>
</g>
<defs>
<clipPath id="clip0_155_688">
<rect width="148.148" height="40" fill="white" transform="translate(0.858215 0.0546875)"/>
</clipPath>
</defs>
</svg>
