<svg width="113" height="41" viewBox="0 0 113 41" fill="none" xmlns="http://www.w3.org/2000/svg">
<g clip-path="url(#clip0_155_779)">
<path d="M75.335 4.33063L74.0113 3.00659C73.6827 2.67812 73.6827 2.14547 74.0113 1.817L75.3343 0.493798C75.6636 0.164828 76.1967 0.164828 76.5257 0.493798L77.8487 1.817C78.1773 2.14547 78.1773 2.67812 77.8487 3.00659L76.5249 4.33063C76.1963 4.65908 75.664 4.65908 75.335 4.33063Z" fill="#32BCAD"/>
<path d="M80.8599 6.95292C80.8599 6.56526 81.1743 6.25098 81.5619 6.25098H84.4569C86.1328 6.25098 87.7395 6.91666 88.9242 8.10126L95.6958 14.873C96.2988 15.4761 97.2767 15.4762 97.8797 14.873L104.627 8.12604C105.812 6.94152 107.418 6.27576 109.094 6.27576H111.448C111.836 6.27576 112.15 6.59004 112.15 6.97771C112.15 7.36541 111.836 7.67969 111.448 7.67969H109.094C107.791 7.67969 106.541 8.19741 105.62 9.11875L98.8726 15.8657C97.7212 17.0171 95.8543 17.0172 94.7032 15.8657L87.9313 9.09397C87.0101 8.17266 85.7604 7.65486 84.4569 7.65486H81.5619C81.1743 7.65486 80.8599 7.34062 80.8599 6.95292Z" fill="#939598"/>
<path d="M69.9253 6.2666C69.5376 6.2666 69.2236 6.58084 69.2236 6.96855C69.2236 7.35621 69.5376 7.67049 69.9253 7.67049H72.8449C74.1783 7.67049 75.2591 8.75142 75.2591 10.085V27.1119C75.2591 27.4996 75.5735 27.8139 75.9612 27.8139C76.3488 27.8139 76.6628 27.4996 76.6628 27.1119V10.085C76.6628 7.97617 74.9537 6.2666 72.8449 6.2666H69.9253Z" fill="#939598"/>
<path d="M46.8553 14.5655C46.8553 10.7592 49.9406 7.67376 53.7465 7.67346H53.7473L60.4763 7.68359C64.2707 7.69133 67.3428 10.7696 67.3428 14.5643V19.416C67.3428 23.2224 64.2568 26.308 60.4508 26.308H50.9409C50.5533 26.308 50.2389 26.6222 50.2389 27.0099C50.2389 27.3976 50.5533 27.7119 50.9409 27.7119H60.4508C65.0322 27.7119 68.7465 23.9978 68.7465 19.416V14.5643C68.7465 9.99521 65.0471 6.28875 60.4781 6.2797L53.7484 6.26953H53.7473C49.1656 6.26953 45.4516 9.9837 45.4516 14.5655V37.3591C45.4516 37.747 45.7656 38.061 46.1533 38.061C46.5409 38.061 46.8553 37.747 46.8553 37.3591V14.5655Z" fill="#939598"/>
<path d="M95.6961 19.0427C96.2988 18.4397 97.2767 18.4396 97.8797 19.0428L104.627 25.7898C105.812 26.9743 107.418 27.64 109.094 27.64H111.448C111.836 27.64 112.15 27.3258 112.15 26.9381C112.15 26.5504 111.836 26.2361 111.448 26.2361H109.094C107.791 26.2361 106.541 25.7184 105.62 24.797L98.8726 18.0501C97.7212 16.8987 95.8543 16.8986 94.7032 18.0501L87.9313 24.8218C87.0101 25.7431 85.7604 26.2609 84.4569 26.2609H81.5619C81.1743 26.2609 80.8599 26.5752 80.8599 26.9629C80.8599 27.3505 81.1743 27.6648 81.5619 27.6648H84.4569C86.1328 27.6648 87.7395 26.9991 88.9242 25.8145L95.6961 19.0427Z" fill="#939598"/>
<path d="M8.60874 11.6401C10.0617 11.6401 11.4284 12.2059 12.4559 13.2329L18.0311 18.8091C18.4326 19.2108 19.0882 19.2123 19.4907 18.8087L25.0456 13.2533C26.0731 12.2262 27.4398 11.6605 28.8928 11.6605H29.5619L22.5065 4.605C20.3091 2.40771 16.7467 2.40771 14.5495 4.605L7.51434 11.6402L8.60874 11.6401Z" fill="#32BCAD"/>
<path d="M28.8928 31.2893C27.4398 31.2893 26.0732 30.7236 25.0457 29.6965L19.4907 24.1415C19.1007 23.7504 18.421 23.7516 18.0311 24.1415L12.4559 29.7168C11.4284 30.7439 10.0617 31.3096 8.60877 31.3096H7.51404L14.5496 38.3448C16.7467 40.5422 20.3091 40.5422 22.5064 38.3448L29.5619 31.2893H28.8928Z" fill="#32BCAD"/>
<path d="M31.1342 13.2328L35.3978 17.4964C37.5948 19.6937 37.5948 23.256 35.3978 25.4533L31.1342 29.7169C31.0403 29.6793 30.9386 29.6559 30.8313 29.6559H28.8927C27.8905 29.6559 26.9095 29.2493 26.2013 28.5406L20.6465 22.9862C19.6398 21.9785 17.8831 21.9789 16.8754 22.9858L11.3002 28.561C10.592 29.2697 9.61095 29.676 8.60875 29.676H6.22508C6.1234 29.676 6.02841 29.7 5.93854 29.7337L1.6581 25.4533C-0.539192 23.256 -0.539192 19.6937 1.6581 17.4964L5.93869 13.2158C6.02841 13.2496 6.1234 13.2736 6.22508 13.2736H8.60875C9.61095 13.2736 10.592 13.6799 11.3002 14.3888L16.876 19.9645C17.3956 20.4838 18.0782 20.7439 18.7612 20.7439C19.4437 20.7439 20.1267 20.4838 20.6465 19.964L26.2013 14.4091C26.9095 13.7004 27.8905 13.2939 28.8927 13.2939H30.8313C30.9386 13.2939 31.0403 13.2704 31.1342 13.2328Z" fill="#32BCAD"/>
<path fill-rule="evenodd" clip-rule="evenodd" d="M73.9002 37.1409C73.6733 37.2683 73.3668 37.3201 73.092 37.3201C72.7937 37.3201 72.495 37.2683 72.1926 37.1688L72.1806 37.2645H72.021V34.4062H72.2561V35.3654C72.5787 35.2942 73.0124 35.1985 73.3189 35.1985C73.578 35.1985 73.8244 35.2379 74.0315 35.4053C74.2703 35.6007 74.3458 35.9148 74.3458 36.2569C74.3458 36.6159 74.2262 36.954 73.9002 37.1409ZM73.2991 35.4215C72.9847 35.4215 72.6184 35.4972 72.2561 35.5807V36.9658C72.5111 37.0613 72.7937 37.1054 73.0681 37.1054C73.7649 37.1054 74.095 36.8705 74.095 36.2569C74.095 35.6802 73.8247 35.4215 73.2991 35.4215Z" fill="#939598"/>
<path fill-rule="evenodd" clip-rule="evenodd" d="M69.6445 37.1447L69.6643 37.2643H69.8554V34.4062H69.6206V35.3258C69.338 35.2463 69.067 35.1983 68.7885 35.1983C68.5096 35.1983 68.203 35.2501 67.9761 35.3814C67.6498 35.5644 67.5305 35.903 67.5305 36.2613C67.5305 36.6034 67.606 36.9179 67.8449 37.1131C68.052 37.2843 68.2991 37.3201 68.5574 37.3201C68.8759 37.3201 69.3219 37.2204 69.6445 37.1447ZM68.8083 35.4131C69.083 35.4131 69.3698 35.4571 69.6206 35.5488V36.9417C69.258 37.0212 68.892 37.0969 68.5772 37.0969C68.052 37.0969 67.7814 36.8422 67.7814 36.2613C67.7814 35.6484 68.1118 35.4131 68.8083 35.4131Z" fill="#939598"/>
<path fill-rule="evenodd" clip-rule="evenodd" d="M55.6322 37.1052C55.4011 37.2721 55.0909 37.32 54.7365 37.32C54.3742 37.32 54.0636 37.2683 53.8367 37.1052C53.5821 36.9261 53.4781 36.6313 53.4781 36.2613C53.4781 35.8948 53.5821 35.5966 53.8367 35.413C54.0636 35.2502 54.3742 35.1982 54.7365 35.1982C55.0946 35.1982 55.4011 35.2502 55.6322 35.413C55.8909 35.5966 55.9903 35.8948 55.9903 36.2569C55.9903 36.6274 55.8868 36.9261 55.6322 37.1052ZM54.7365 35.413C54.0396 35.413 53.7294 35.6322 53.7294 36.2452C53.7294 36.8383 54.0359 37.1052 54.7365 37.1052C55.4292 37.1052 55.7395 36.89 55.7395 36.277C55.7395 35.684 55.4333 35.413 54.7365 35.413Z" fill="#939598"/>
<path fill-rule="evenodd" clip-rule="evenodd" d="M50.6628 38.0009V35.2538H50.8539L50.8741 35.3735C51.1963 35.2978 51.6419 35.1982 51.9604 35.1982C52.2195 35.1982 52.4662 35.2377 52.6729 35.4051C52.9122 35.6004 52.9877 35.9146 52.9877 36.2567C52.9877 36.6156 52.8681 36.9538 52.5417 37.1406C52.3148 37.2681 52.0083 37.3198 51.7335 37.3198C51.4509 37.3198 51.1802 37.2759 50.8976 37.1925V38.0009H50.6628ZM51.941 35.4212C51.6262 35.4212 51.2598 35.4969 50.8976 35.5804V36.9694C51.1488 37.0611 51.4352 37.1052 51.7099 37.1052C52.4064 37.1052 52.7369 36.8702 52.7369 36.2567C52.7369 35.68 52.4662 35.4212 51.941 35.4212Z" fill="#939598"/>
<path d="M58.1533 35.5967L58.9297 37.2643H59.1406L59.9686 35.2539H59.7178L59.0453 36.9417H59.0292L58.2606 35.2539H58.0456L57.2976 36.9417H57.2815L56.5929 35.2539H56.3342L57.1623 37.2643H57.3731L58.1372 35.5967H58.1533Z" fill="#939598"/>
<path fill-rule="evenodd" clip-rule="evenodd" d="M61.4625 37.3199C61.0759 37.3199 60.8255 37.2643 60.6262 37.0969C60.3915 36.8939 60.3118 36.5995 60.3118 36.2612C60.3118 35.9387 60.4195 35.5965 60.686 35.4013C60.9088 35.2462 61.1836 35.1982 61.47 35.1982C61.729 35.1982 62.0277 35.226 62.2741 35.3934C62.5649 35.5883 62.6206 35.9309 62.6206 36.3208H60.5586C60.5664 36.7346 60.7017 37.1012 61.4819 37.1012C61.852 37.1012 62.1982 37.0414 62.5204 36.9857L62.5212 36.9855V37.1964C62.1866 37.2564 61.8165 37.3199 61.4625 37.3199ZM61.47 35.4091C60.8255 35.4091 60.6064 35.6956 60.5664 36.1099H62.3739C62.3541 35.6522 62.1189 35.4091 61.47 35.4091Z" fill="#939598"/>
<path d="M63.2946 35.2538V37.2643H63.5298V35.5805C63.9716 35.4648 64.1627 35.4212 64.4771 35.4212H64.5328V35.1982H64.5047C64.1851 35.1982 63.9929 35.2479 63.6782 35.3293C63.6247 35.3432 63.5675 35.3579 63.5058 35.3735L63.4856 35.2538H63.2946Z" fill="#939598"/>
<path fill-rule="evenodd" clip-rule="evenodd" d="M65.889 37.3199C65.5028 37.3199 65.252 37.2643 65.0531 37.0969C64.818 36.8939 64.7383 36.5995 64.7383 36.2612C64.7383 35.9387 64.846 35.5965 65.1129 35.4013C65.3357 35.2462 65.6105 35.1982 65.8968 35.1982C66.1559 35.1982 66.4542 35.226 66.701 35.3934C66.9918 35.5883 67.0475 35.9309 67.0475 36.3208H64.9854C64.9933 36.7346 65.1286 37.1012 65.9088 37.1012C66.2785 37.1012 66.6243 37.0414 66.9466 36.9858L66.9481 36.9855V37.1964C66.6135 37.2564 66.243 37.3199 65.889 37.3199ZM65.8968 35.4091C65.252 35.4091 65.0333 35.6956 64.9933 36.1099H66.8008C66.781 35.6522 66.5458 35.4091 65.8968 35.4091Z" fill="#939598"/>
<path d="M74.6576 37.8179V38.0366C74.7574 38.0485 74.8568 38.0564 74.9484 38.0564C75.3585 38.0564 75.5813 37.9214 75.7884 37.5113L76.9189 35.2539H76.652L75.7963 36.9895H75.7806L74.8808 35.2539H74.6101L75.6609 37.2643L75.5851 37.4234C75.4221 37.7539 75.2471 37.8377 74.9563 37.8377C74.8808 37.8377 74.7731 37.8295 74.6576 37.8179Z" fill="#939598"/>
<path fill-rule="evenodd" clip-rule="evenodd" d="M81.2229 37.073C80.9361 37.2561 80.59 37.2639 79.9571 37.2639H78.7668V34.5371H79.9294C80.4744 34.5371 80.8087 34.5449 81.0875 34.7123C81.2868 34.8318 81.366 35.0148 81.366 35.2536C81.366 35.54 81.2468 35.7314 80.9361 35.8588V35.8745C81.2868 35.9545 81.5137 36.1336 81.5137 36.5196C81.5137 36.7822 81.418 36.9534 81.2229 37.073ZM80.1559 36.1174H79.3761V36.8223H80.1597C80.6973 36.8223 80.9006 36.7622 80.9006 36.4678C80.9006 36.153 80.6221 36.1174 80.1559 36.1174ZM80.0128 34.9749H79.3761V35.6912H80.0169C80.5462 35.6912 80.7571 35.6278 80.7571 35.3291C80.7571 35.011 80.4905 34.9749 80.0128 34.9749Z" fill="#939598"/>
<path fill-rule="evenodd" clip-rule="evenodd" d="M83.9982 37.1448L84.0143 37.2643L84.4561 37.2642V36.0738C84.4561 35.7756 84.412 35.5487 84.1814 35.3853C83.9586 35.2262 83.5959 35.1982 83.246 35.1982C82.9832 35.1982 82.6647 35.2144 82.3821 35.2379V35.6439C82.6367 35.6199 82.9036 35.6083 83.1227 35.6083C83.6879 35.6083 83.895 35.7118 83.895 36.0261V36.0622C83.6599 36.0461 83.3772 36.0344 83.1664 36.0344C82.9077 36.0344 82.6247 36.0422 82.4139 36.1417C82.1754 36.249 82.0756 36.4599 82.0756 36.687C82.0756 36.89 82.1473 37.0652 82.2984 37.1726C82.4617 37.292 82.6924 37.32 82.9077 37.32C83.258 37.32 83.6558 37.2286 83.9982 37.1448ZM83.1705 36.3887C83.4214 36.3887 83.6599 36.4003 83.895 36.4204V36.8103C83.6281 36.8704 83.3137 36.9299 83.0509 36.9299C82.7365 36.9299 82.6169 36.8343 82.6169 36.6591C82.6169 36.4722 82.7604 36.3887 83.1705 36.3887Z" fill="#939598"/>
<path d="M87.0808 37.2643V36.1534C87.0808 35.7875 86.8939 35.656 86.5593 35.656C86.3126 35.656 86.0023 35.7196 85.7391 35.7835V37.2643H85.178V35.2538H85.6359L85.6557 35.3813C86.0098 35.2899 86.4041 35.1982 86.7305 35.1982C86.9772 35.1982 87.2281 35.2339 87.4191 35.4053C87.5784 35.5487 87.6382 35.7474 87.6382 36.0342V37.2643H87.0808Z" fill="#939598"/>
<path d="M88.4756 37.109C88.6823 37.2842 88.9653 37.3198 89.224 37.3198C89.5462 37.3198 89.8886 37.2564 90.2034 37.1923V36.7785C89.9126 36.8342 89.6139 36.882 89.3589 36.882C88.9212 36.882 88.7342 36.6951 88.7342 36.2612C88.7342 35.7994 88.9847 35.632 89.5185 35.632C89.7133 35.632 89.9559 35.6481 90.1593 35.6677V35.2377C89.9088 35.2142 89.6815 35.1982 89.4509 35.1982C89.1283 35.1982 88.818 35.2339 88.5671 35.3973C88.2606 35.5921 88.157 35.9385 88.157 36.2567C88.157 36.5955 88.2288 36.9098 88.4756 37.109Z" fill="#939598"/>
<path fill-rule="evenodd" clip-rule="evenodd" d="M92.8243 37.109C92.5776 37.2759 92.2554 37.3198 91.861 37.3198C91.4591 37.3198 91.1365 37.2721 90.8939 37.109C90.615 36.9259 90.5156 36.6234 90.5156 36.2612C90.5156 35.8986 90.615 35.5921 90.8939 35.409C91.1365 35.246 91.4591 35.1982 91.861 35.1982C92.2595 35.1982 92.5776 35.246 92.8243 35.409C93.1032 35.5921 93.1986 35.8986 93.1986 36.2569C93.1986 36.6194 93.0991 36.9259 92.8243 37.109ZM91.861 35.6199C91.3275 35.6199 91.0928 35.7873 91.0928 36.245C91.0928 36.703 91.3238 36.8982 91.861 36.8982C92.3903 36.8982 92.6214 36.7346 92.6214 36.2768C92.6214 35.8191 92.3948 35.6199 91.861 35.6199Z" fill="#939598"/>
<path d="M95.4599 37.037C95.735 37.264 96.101 37.3196 96.4393 37.3196C96.889 37.3196 97.3309 37.2322 97.7529 37.1482V36.6626C97.3309 36.7505 96.9129 36.8262 96.5387 36.8262C95.9656 36.8262 95.6591 36.5397 95.6591 35.8982C95.6591 35.2697 95.9896 34.9748 96.766 34.9748C97.0445 34.9748 97.4027 34.9948 97.6935 35.0188V34.5292C97.3548 34.5014 97.0445 34.4814 96.7417 34.4814C96.3279 34.4814 95.9178 34.5254 95.5873 34.7402C95.1615 35.0188 95.0341 35.4965 95.0341 35.8982C95.0341 36.3483 95.1335 36.7661 95.4599 37.037Z" fill="#939598"/>
<path fill-rule="evenodd" clip-rule="evenodd" d="M99.3186 37.32C98.9881 37.32 98.6898 37.2804 98.4666 37.0969C98.2281 36.8982 98.1443 36.5995 98.1443 36.2569C98.1443 35.9504 98.2438 35.6083 98.5227 35.4091C98.7694 35.2341 99.0838 35.1982 99.4023 35.1982C99.689 35.1982 100.027 35.2301 100.274 35.4013C100.597 35.6282 100.624 35.9787 100.628 36.3925H98.7178C98.7294 36.6992 98.8928 36.8982 99.458 36.8982C99.8083 36.8982 100.198 36.8464 100.529 36.7947V37.1887C100.143 37.2526 99.7208 37.32 99.3186 37.32ZM99.4023 35.5565C98.9365 35.5565 98.7574 35.7239 98.7215 36.0304H100.075C100.059 35.704 99.8681 35.5565 99.4023 35.5565Z" fill="#939598"/>
<path d="M103.126 36.1534V37.2643H103.683V36.0342C103.683 35.7474 103.623 35.5487 103.464 35.4053C103.273 35.2339 103.022 35.1982 102.775 35.1982C102.449 35.1982 102.055 35.2899 101.701 35.3813L101.68 35.2538H101.223V37.2643H101.784V35.7835C102.047 35.7196 102.357 35.656 102.604 35.656C102.939 35.656 103.126 35.7875 103.126 36.1534Z" fill="#939598"/>
<path d="M105.281 37.3197C105.01 37.3197 104.763 37.244 104.628 37.0332C104.528 36.8898 104.48 36.6951 104.48 36.4242V35.6716H104.074V35.2537H104.48L104.54 34.6445H105.038V35.2537H105.83V35.6716H105.038V36.3167C105.038 36.4719 105.05 36.6032 105.094 36.6989C105.153 36.8342 105.285 36.8858 105.46 36.8858C105.591 36.8858 105.75 36.8658 105.862 36.8463V37.248C105.679 37.2842 105.467 37.3197 105.281 37.3197Z" fill="#939598"/>
<path d="M106.378 35.2538V37.2643H106.939V35.7797C107.245 35.7077 107.452 35.6762 107.727 35.6762C107.783 35.6762 107.858 35.6762 107.922 35.6799V35.202C107.891 35.1982 107.867 35.1982 107.851 35.1982C107.51 35.1982 107.24 35.2735 106.885 35.3729L106.855 35.3813L106.836 35.2538H106.378Z" fill="#939598"/>
<path fill-rule="evenodd" clip-rule="evenodd" d="M110.082 37.2643L110.066 37.1448C109.724 37.2286 109.326 37.32 108.975 37.32C108.76 37.32 108.529 37.292 108.366 37.1726C108.215 37.0652 108.143 36.89 108.143 36.687C108.143 36.4599 108.243 36.249 108.482 36.1417C108.693 36.0422 108.975 36.0344 109.234 36.0344C109.445 36.0344 109.728 36.0461 109.963 36.0622V36.0261C109.963 35.7118 109.756 35.6083 109.19 35.6083C108.972 35.6083 108.705 35.6199 108.45 35.6439V35.2379C108.732 35.2144 109.051 35.1982 109.314 35.1982C109.664 35.1982 110.027 35.2262 110.249 35.3853C110.48 35.5487 110.524 35.7756 110.524 36.0738V37.2642L110.082 37.2643ZM109.963 36.4204C109.728 36.4003 109.489 36.3887 109.238 36.3887C108.828 36.3887 108.685 36.4722 108.685 36.6591C108.685 36.8343 108.804 36.9299 109.119 36.9299C109.381 36.9299 109.696 36.8704 109.963 36.8103V36.4204Z" fill="#939598"/>
<path d="M111.807 34.4062H111.246V37.2643H111.807V34.4062Z" fill="#939598"/>
</g>
<defs>
<clipPath id="clip0_155_779">
<rect width="112.15" height="40" fill="white" transform="translate(0.0101318 0.0546875)"/>
</clipPath>
</defs>
</svg>
