<svg width="80" height="41" viewBox="0 0 80 41" fill="none" xmlns="http://www.w3.org/2000/svg">
<g clip-path="url(#clip0_155_890)">
<path d="M5.81189 11.4758L6.95528 12.7558L6.96798 12.7492C6.81398 12.2405 6.66001 11.7318 6.50134 11.2158L5.81189 11.4758Z" fill="#2FC36E"/>
<path d="M5.50867 11.6544C5.49606 11.6372 5.47746 11.6252 5.4565 11.6209C5.43555 11.6166 5.41371 11.6202 5.3953 11.6311C4.9953 11.7838 4.5886 11.9338 4.18526 12.0851C4.16593 12.0924 4.14729 12.1038 4.11462 12.1204L6.73596 13.0631L6.74532 13.0471C6.73732 13.0364 6.73063 13.0245 6.72196 13.0145C6.31708 12.5616 5.91267 12.1082 5.50867 11.6544Z" fill="#2FC36E"/>
<path d="M8.07187 7.36328L9.3012 7.86458C9.3192 7.87125 9.33856 7.8746 9.36256 7.88127C9.46456 7.6286 9.56262 7.3806 9.66595 7.1346C9.67857 7.11171 9.68293 7.08514 9.67832 7.05941C9.67371 7.03368 9.66035 7.01033 9.64056 6.99325C9.16945 6.46925 8.69966 5.9439 8.23122 5.41724L8.17262 5.35059C8.16779 5.36046 8.16373 5.37073 8.16058 5.38127C8.10925 6.00993 8.05994 6.63859 8.00661 7.26725C8.00061 7.32992 8.02854 7.34595 8.07187 7.36328Z" fill="#2FC36E"/>
<path d="M5.70597 11.1418C5.93131 11.0445 6.16403 10.9665 6.39469 10.8805C6.394 10.8664 6.39218 10.8524 6.38932 10.8385C6.25599 10.3885 6.11601 9.93851 5.98201 9.48784C5.96601 9.43318 5.93465 9.43784 5.89665 9.43918L4.11133 9.49378C4.09333 9.49378 4.07468 9.49849 4.04468 9.50249L4.118 9.58444C4.562 10.0811 5.0087 10.5752 5.4467 11.0778C5.47304 11.1202 5.51487 11.1506 5.56331 11.1626C5.61176 11.1745 5.66294 11.1671 5.70597 11.1418V11.1418Z" fill="#2FC36E"/>
<path d="M7.23531 12.4646H7.25061C7.29261 11.9453 7.33408 11.4259 7.37675 10.8926L6.82141 11.1006L7.23531 12.4646Z" fill="#2FC36E"/>
<path d="M8.92525 8.96452C9.02659 8.71785 9.1253 8.47049 9.22864 8.21582L7.97196 7.70312C7.93596 8.15046 7.90069 8.58385 7.86536 9.02718C8.21002 9.01718 8.54532 9.00785 8.88066 8.99585C8.89005 8.99453 8.89893 8.99096 8.9067 8.98551C8.91446 8.98007 8.92081 8.9729 8.92525 8.96452V8.96452Z" fill="#2FC36E"/>
<path d="M8.57399 9.84782C8.62266 9.68115 8.69934 9.52387 8.76801 9.35254L7.83457 9.38053C7.80857 9.70853 7.78264 10.0332 7.75531 10.3685C7.9062 10.3043 8.06049 10.2482 8.21739 10.2005C8.3048 10.183 8.38512 10.1403 8.44851 10.0776C8.5119 10.015 8.55553 9.93503 8.57399 9.84782Z" fill="#2FC36E"/>
<path d="M6.7193 10.7592C6.94197 10.6759 7.15401 10.5985 7.36334 10.5151C7.37688 10.5059 7.38814 10.4939 7.39655 10.4799C7.40495 10.4659 7.41029 10.4501 7.41201 10.4338C7.43001 10.2558 7.44259 10.0771 7.45725 9.90047C7.47059 9.73514 7.48329 9.5672 7.49729 9.39453L6.31598 9.42985L6.7193 10.7592Z" fill="#2FC36E"/>
<path d="M9.18138 9.3431C9.17198 9.3432 9.16262 9.34537 9.1542 9.34953C9.14577 9.35368 9.13851 9.35971 9.13271 9.36711C9.05538 9.55244 8.98001 9.74045 8.89801 9.94312L10.57 9.31714V9.2998C10.1069 9.31403 9.64404 9.32843 9.18138 9.3431Z" fill="#2FC36E"/>
<path d="M11.2466 12.9503C12.3419 11.8331 12.9749 10.3436 13.0192 8.77972C13.0634 7.21583 12.5156 5.69294 11.4853 4.51564C10.992 3.95041 10.3875 3.49294 9.70946 3.17181C9.03146 2.85067 8.29451 2.67277 7.54467 2.64918C6.79483 2.6256 6.04823 2.75687 5.35139 3.03476C4.65455 3.31265 4.02246 3.73115 3.49462 4.26425C2.39863 5.38102 1.76439 6.87029 1.71866 8.43434C1.67293 9.99839 2.21909 11.5221 3.24796 12.7009C3.74217 13.2662 4.34746 13.7235 5.0262 14.0445C5.70494 14.3655 6.44258 14.5433 7.19303 14.5667C7.94347 14.5901 8.69068 14.4586 9.38809 14.1805C10.0855 13.9024 10.7181 13.4836 11.2466 12.9503ZM3.08129 12.1216L5.20727 11.325L3.30061 9.19158L5.85928 9.08693L4.95328 6.09091L7.67463 7.20094C7.74663 6.31094 7.81795 5.42828 7.89062 4.52361L9.83731 6.70232L10.7213 4.50693H10.7432L10.8573 4.94427C11.2017 6.27538 11.5466 7.60607 11.8919 8.93629C11.9036 8.96762 11.9052 9.00182 11.8965 9.03411C11.8877 9.0664 11.8692 9.09515 11.8433 9.1163C10.3499 10.5976 8.85793 12.0805 7.36726 13.565C7.34731 13.5905 7.31917 13.6083 7.28759 13.6155C7.25601 13.6227 7.22293 13.6187 7.19392 13.6043C5.85614 13.1203 4.51794 12.6381 3.17927 12.1576L3.08129 12.1216Z" fill="#2FC36E"/>
<path d="M11.352 8.38981C11.3714 8.40848 11.3919 8.42605 11.4133 8.44246L10.6693 5.56445C10.6553 5.58845 10.6501 5.59446 10.6467 5.60246C10.4689 6.04246 10.2911 6.48244 10.1134 6.92244C10.1046 6.94097 10.1024 6.9619 10.107 6.98185C10.1116 7.0018 10.1228 7.01963 10.1387 7.03247C10.5436 7.48447 10.948 7.93692 11.352 8.38981Z" fill="#2FC36E"/>
<path d="M6.2713 9.07463C6.42063 9.06796 6.57068 9.06529 6.72068 9.06063L7.52065 9.03532C7.52398 9.01332 7.52729 8.99929 7.52863 8.98462C7.56463 8.53395 7.5993 8.08332 7.6393 7.63265C7.64464 7.56598 7.61457 7.55599 7.57257 7.53866L5.57257 6.72266C5.54924 6.71332 5.52529 6.70598 5.49396 6.69531C5.49796 6.71598 5.49925 6.72729 5.50258 6.73796C5.73236 7.49707 5.96168 8.25639 6.19057 9.01595C6.19148 9.02533 6.19452 9.03438 6.1992 9.04256C6.20388 9.05074 6.21013 9.05785 6.21775 9.06339C6.22538 9.06894 6.23408 9.07286 6.24331 9.07479C6.25253 9.07672 6.2621 9.07665 6.2713 9.07463V9.07463Z" fill="#2FC36E"/>
<path d="M11.036 8.57267L9.94257 7.34863L9.67596 8.0153L11.036 8.57267Z" fill="#2FC36E"/>
<path d="M7.62198 12.1706H7.63809C7.85409 11.6339 8.07008 11.0972 8.29141 10.5479C8.11941 10.6145 7.95805 10.6732 7.79938 10.7292C7.7755 10.7351 7.75449 10.7493 7.73998 10.7691C7.72547 10.789 7.71846 10.8133 7.72012 10.8379C7.68879 11.2612 7.65339 11.6839 7.61872 12.1046C7.61836 12.1266 7.6194 12.1487 7.62198 12.1706Z" fill="#2FC36E"/>
<path d="M8.7759 10.3692C8.73797 10.3879 8.70829 10.42 8.69257 10.4592C8.41257 11.1472 8.13458 11.8361 7.85858 12.5259C7.84925 12.5499 7.842 12.5745 7.82733 12.6199L10.8773 9.58789C10.8446 9.59589 10.8326 9.59724 10.822 9.60124C10.1397 9.8559 9.45768 10.1119 8.7759 10.3692Z" fill="#2FC36E"/>
<path d="M9.28467 8.98438L10.9466 8.93441V8.91707L9.54069 8.34375L9.28467 8.98438Z" fill="#2FC36E"/>
<path d="M32.16 3.01019C31.248 0.296188 28.4393 0.844172 28.4393 0.844172H1.60869C1.4127 0.817219 1.21317 0.83159 1.02308 0.886409C0.832991 0.941228 0.65648 1.03527 0.504935 1.16245C0.35339 1.28963 0.230173 1.44716 0.1432 1.62485C0.0562264 1.80255 0.00743584 1.99649 -2.94867e-05 2.19419V32.1175C-0.0441245 32.6988 0.0914838 33.2795 0.388398 33.7812C0.685313 34.2828 1.12918 34.6812 1.65996 34.9222V40.7988H80V3.01019H32.16ZM2.27862 4.85955C2.78434 4.05704 3.47347 3.38608 4.2892 2.90195C5.10492 2.41783 6.02397 2.13438 6.97067 2.07489C8.34043 1.96812 9.70366 2.3505 10.818 3.15415C11.3673 3.5397 11.851 4.01112 12.2506 4.55023C12.9816 5.5452 13.4306 6.71894 13.5502 7.94777C13.6697 9.1766 13.4555 10.4149 12.93 11.5322C12.673 12.0811 12.3394 12.5908 11.9393 13.0462C11.9232 13.0672 11.9087 13.0896 11.896 13.1129L11.368 13.6382C11.344 13.6542 11.3186 13.6689 11.296 13.6862C11.072 13.8555 10.8574 14.0415 10.6227 14.1915C9.53082 14.9032 8.23597 15.2382 6.93592 15.1451C5.63588 15.0521 4.40204 14.5362 3.42266 13.6762C3.30999 13.5789 3.19933 13.4762 3.08933 13.3788L2.60332 12.8348C2.51599 12.7115 2.42801 12.5889 2.34201 12.4642C1.58248 11.3444 1.17132 10.0249 1.16029 8.67189C1.14926 7.31887 1.53883 5.99287 2.28 4.86086L2.27862 4.85955ZM77.8073 38.4862H3.85267V27.7829H3.83802V24.8355C6.19069 19.1315 21.5467 5.32887 21.5467 5.32887L21.68 5.3222H77.8133L77.8073 38.4862Z" fill="#2FC36E"/>
<path d="M23.8966 15.9779L22.4173 13.7973H22.4V15.9779H20.8339V9.22331H22.9273C23.4436 9.20077 23.9589 9.28473 24.4413 9.46997C24.813 9.67122 25.1205 9.97305 25.3286 10.3409C25.5366 10.7088 25.6369 11.1278 25.6179 11.55C25.6528 12.0366 25.511 12.5195 25.2185 12.91C24.9261 13.3005 24.5027 13.5724 24.026 13.6759L25.7646 15.9753L23.8966 15.9779ZM23.006 12.6206C23.6553 12.6206 24.0527 12.3013 24.0527 11.6533C24.0551 11.5227 24.029 11.393 23.9765 11.2734C23.924 11.1537 23.8462 11.0469 23.7485 10.9602C23.6507 10.8735 23.5353 10.809 23.4103 10.7712C23.2852 10.7335 23.1534 10.7233 23.024 10.7413H22.4007V12.6206H23.006Z" fill="#2FC36E"/>
<path d="M30.6085 15.9785L30.2973 15.0025H28.0747L27.7373 15.9785H25.9813L28.5506 9.22656H29.8393L32.382 15.9785H30.6085ZM29.2086 11.3346L29.1826 11.3252L28.5246 13.6339H29.8652L29.2086 11.3346Z" fill="#2FC36E"/>
<path d="M33.5932 15.9783V10.741H32.3305V9.22363H36.4825V10.7383H35.2286V15.9756L33.5932 15.9783Z" fill="#2FC36E"/>
<path d="M37.1392 15.9783V9.22363H40.6946V10.7383H38.7053V11.7876H40.6347V13.3022H38.7053V14.4609H40.6946V15.9756L37.1392 15.9783Z" fill="#2FC36E"/>
<path d="M41.62 15.9783V9.22364H43.8C44.451 9.19377 45.0983 9.33536 45.6773 9.63428C46.1634 9.95424 46.5561 10.3971 46.8158 10.9179C47.0755 11.4387 47.1929 12.0188 47.156 12.5996C47.156 14.8256 45.9106 15.9756 43.9126 15.9756L41.62 15.9783ZM43.99 14.4636C44.9333 14.4636 45.5233 13.8429 45.5233 12.6109C45.5233 11.4063 44.9439 10.7403 44.0005 10.7403H43.2566V14.463L43.99 14.4636Z" fill="#2FC36E"/>
<path d="M54.75 15.9785L54.4386 15.0025H52.216L51.8786 15.9785H50.1226L52.6919 9.22656H53.9813L56.5239 15.9785H54.75ZM53.3499 11.3346L53.3239 11.3252L52.6667 13.6339H54.0073L53.3499 11.3346Z" fill="#2FC36E"/>
<path d="M59.6893 11.1968C59.6227 10.7134 59.4299 10.5401 59.1099 10.5401C59.0383 10.5379 58.967 10.5498 58.9 10.5752C58.8329 10.6005 58.7715 10.6389 58.7193 10.688C58.6671 10.7371 58.6252 10.796 58.5958 10.8613C58.5663 10.9266 58.5501 10.9971 58.5479 11.0687C58.5479 11.4687 58.894 11.6527 59.5946 11.9721C61.0046 12.6107 61.3593 13.1487 61.3593 14.0341C61.3593 15.3387 60.512 16.1054 59.1273 16.1054C57.7427 16.1054 56.8179 15.3387 56.8179 13.8881V13.7421H58.4446C58.4532 14.2987 58.7112 14.6641 59.1185 14.6641C59.2016 14.6623 59.2835 14.644 59.3594 14.6104C59.4354 14.5768 59.5039 14.5285 59.5611 14.4682C59.6182 14.408 59.6629 14.337 59.6924 14.2594C59.722 14.1818 59.7359 14.0991 59.7333 14.0161C59.7333 13.4781 59.0239 13.2408 58.4446 12.9941C57.3979 12.5474 56.9219 11.9628 56.9219 11.0875C56.9563 10.5285 57.2102 10.0059 57.6283 9.63336C58.0464 9.26085 58.5947 9.06869 59.1539 9.09877C59.5495 9.09538 59.9396 9.19262 60.2873 9.3814C60.619 9.54796 60.8934 9.80979 61.0753 10.1334C61.2571 10.4569 61.3382 10.8275 61.308 11.1974L59.6893 11.1968Z" fill="#2FC36E"/>
<path d="M7.974 25.5617V18.055H10.2533C10.6333 18.0438 11.0133 18.0744 11.3866 18.1463C11.8124 18.236 12.1934 18.4717 12.4639 18.8126C12.7344 19.1534 12.8774 19.578 12.868 20.013C12.586 20.2004 12.3607 20.4615 12.2167 20.768C12.0726 21.0744 12.0153 21.4145 12.051 21.7512C12.0866 22.0879 12.2139 22.4084 12.419 22.6779C12.624 22.9474 12.899 23.1555 13.2141 23.2797C13.2257 23.6199 13.1568 23.9579 13.0131 24.2664C12.8693 24.5749 12.6545 24.8451 12.3866 25.055C11.8286 25.471 11.4633 25.5623 10.3379 25.5623L7.974 25.5617ZM10.4361 20.9057C10.8881 20.9057 11.1286 20.7057 11.1286 20.3057C11.1286 19.9057 10.8973 19.7377 10.446 19.7377H9.71261V20.9044L10.4361 20.9057ZM10.6473 23.8777C11.1573 23.8777 11.4746 23.6444 11.4746 23.1577C11.4746 22.7217 11.1959 22.5084 10.6573 22.5084H9.71472V23.8777H10.6473Z" fill="#2FC36E"/>
<path d="M14.3779 25.5614V18.0547H18.3307V19.7387H16.1187V20.9054H18.2627V22.5894H16.1187V23.878H18.3307V25.562L14.3779 25.5614Z" fill="#2FC36E"/>
<path d="M22.4267 20.2459C22.3501 19.7079 22.138 19.5126 21.7827 19.5126C21.703 19.5101 21.6237 19.5233 21.5491 19.5515C21.4746 19.5797 21.4062 19.6223 21.3481 19.6769C21.29 19.7316 21.2433 19.797 21.2106 19.8697C21.1778 19.9424 21.1598 20.0208 21.1573 20.1005C21.1573 20.5472 21.5421 20.7499 22.3214 21.1046C23.8887 21.8146 24.2833 22.4132 24.2833 23.3972C24.2833 24.8479 23.3407 25.6999 21.802 25.6999C20.2634 25.6999 19.234 24.8479 19.234 23.2333V23.0706H21.042C21.052 23.6892 21.34 24.0952 21.792 24.0952C21.8842 24.0932 21.975 24.0729 22.0594 24.0355C22.1437 23.9981 22.2199 23.9444 22.2833 23.8775C22.3468 23.8105 22.3963 23.7316 22.4292 23.6454C22.462 23.5592 22.4776 23.4674 22.4747 23.3752C22.4747 22.7752 21.686 22.5126 21.042 22.2419C19.878 21.7446 19.3494 21.0953 19.3494 20.1219C19.3876 19.5006 19.6696 18.9196 20.1342 18.5054C20.5989 18.0912 21.2085 17.8774 21.83 17.9106C22.2699 17.9067 22.7034 18.0147 23.09 18.2245C23.4584 18.41 23.7631 18.7012 23.965 19.0608C24.1669 19.4205 24.2568 19.8321 24.2233 20.2432L22.4267 20.2459Z" fill="#2FC36E"/>
<path d="M26.186 25.5614V19.7387H24.782V18.0547H29.3979V19.7387H28.004V25.5614H26.186Z" fill="#2FC36E"/>
<path d="M33.4627 25.5617V18.055H35.7414C36.1213 18.0438 36.5014 18.0744 36.8747 18.1463C37.3004 18.236 37.6815 18.4717 37.952 18.8126C38.2224 19.1534 38.3653 19.578 38.3559 20.013C38.0737 20.2003 37.8483 20.4613 37.7041 20.7678C37.5599 21.0743 37.5026 21.4145 37.5382 21.7513C37.5739 22.0881 37.7012 22.4087 37.9064 22.6782C38.1116 22.9477 38.3868 23.1557 38.702 23.2797C38.7136 23.6198 38.6447 23.9579 38.501 24.2664C38.3572 24.5749 38.1426 24.8451 37.8747 25.055C37.3173 25.471 36.9513 25.5623 35.8266 25.5623L33.4627 25.5617ZM35.9246 20.9057C36.3766 20.9057 36.6173 20.7056 36.6173 20.3056C36.6173 19.9056 36.3867 19.7377 35.9347 19.7377H35.2013V20.9044L35.9246 20.9057ZM36.136 23.8777C36.646 23.8777 36.9627 23.6444 36.9627 23.1577C36.9627 22.7217 36.6847 22.5084 36.1453 22.5084H35.2026V23.8777H36.136Z" fill="#2FC36E"/>
<path d="M39.8687 25.5614V18.0547H41.6859V25.5614H39.8687Z" fill="#2FC36E"/>
<path d="M44.0127 25.5614V19.7387H42.6087V18.0547H47.2246V19.7387H45.8301V25.5614H44.0127Z" fill="#2FC36E"/>
<path d="M53.1479 20.9052C53.0323 20.5354 52.8045 20.2107 52.496 19.9762C52.1876 19.7417 51.8138 19.609 51.4265 19.5965C51.1568 19.613 50.8932 19.6832 50.6508 19.8027C50.4085 19.9223 50.1923 20.0889 50.0151 20.2929C49.8378 20.4969 49.703 20.7341 49.6184 20.9908C49.5339 21.2475 49.5012 21.5184 49.5226 21.7878C49.4985 22.0607 49.5294 22.3356 49.6131 22.5964C49.6968 22.8571 49.8317 23.0985 50.01 23.3064C50.1883 23.5143 50.4063 23.6844 50.6513 23.8068C50.8963 23.9292 51.1633 24.0014 51.4366 24.0192C51.8169 24.0072 52.1846 23.8796 52.4905 23.6532C52.7964 23.4269 53.0259 23.1127 53.1485 22.7525H55.0525C54.8788 23.5812 54.4271 24.3256 53.7724 24.8624C53.1176 25.3992 52.2992 25.696 51.4526 25.7039C50.9565 25.7089 50.4647 25.6115 50.0081 25.4177C49.5514 25.224 49.1397 24.9381 48.7986 24.5779C48.4306 24.1968 48.1437 23.745 47.9552 23.2498C47.7667 22.7547 47.6805 22.2265 47.7019 21.6972C47.7006 20.7134 48.0829 19.7678 48.7675 19.0613C49.4521 18.3547 50.3852 17.9428 51.3686 17.9132C52.2343 17.9076 53.0751 18.203 53.747 18.7489C54.4189 19.2949 54.8801 20.0573 55.0519 20.9058L53.1479 20.9052Z" fill="#2FC36E"/>
<path d="M55.8654 21.9804C55.8654 19.657 57.452 17.9137 59.616 17.9137C60.3849 17.8857 61.145 18.0858 61.8003 18.489C62.4555 18.8922 62.9768 19.4803 63.2983 20.1793C63.6198 20.8783 63.7273 21.6568 63.6071 22.4167C63.4868 23.1767 63.1441 23.884 62.6225 24.4496C62.1009 25.0152 61.4237 25.4137 60.6759 25.5949C59.9281 25.7761 59.1435 25.7318 58.4209 25.4678C57.6982 25.2037 57.0698 24.7316 56.615 24.111C56.1603 23.4904 55.8994 22.749 55.8654 21.9804V21.9804ZM61.5587 21.8177C61.578 21.544 61.5429 21.2692 61.4555 21.0092C61.3682 20.7491 61.2303 20.5089 61.0498 20.3024C60.8692 20.0959 60.6495 19.9271 60.4034 19.8058C60.1574 19.6845 59.8898 19.6131 59.616 19.5957C59.1662 19.5368 58.7093 19.6163 58.3058 19.8236C57.9023 20.0309 57.5714 20.3561 57.3574 20.7561C57.1434 21.1561 57.0563 21.6117 57.1077 22.0624C57.1591 22.5131 57.3466 22.9375 57.6451 23.279C57.9437 23.6205 58.3393 23.863 58.7791 23.9741C59.2189 24.0852 59.6821 24.0597 60.1071 23.901C60.532 23.7424 60.8985 23.458 61.1578 23.0858C61.4172 22.7137 61.557 22.2713 61.5587 21.8177Z" fill="#2FC36E"/>
<path d="M64.542 25.5614V18.0547H66.3592V25.5614H64.542Z" fill="#2FC36E"/>
<path d="M72.2547 25.5614L69.5213 20.976L69.5693 25.5614H67.8287V18.0547H69.3966L72.166 22.802L72.0893 18.0547H73.83V25.5614H72.2547Z" fill="#2FC36E"/>
<path d="M26.7479 30.0223C26.6323 29.6525 26.4045 29.3279 26.0961 29.0934C25.7876 28.8589 25.4138 28.7262 25.0266 28.7136C24.7569 28.7302 24.4932 28.8003 24.2509 28.9198C24.0085 29.0393 23.7925 29.2058 23.6153 29.4098C23.438 29.6137 23.3032 29.8509 23.2186 30.1075C23.134 30.3641 23.1014 30.635 23.1226 30.9043C23.0986 31.1772 23.1292 31.4521 23.2129 31.7129C23.2966 31.9737 23.4316 32.2152 23.6099 32.4231C23.7882 32.631 24.0063 32.8012 24.2513 32.9237C24.4963 33.0462 24.7633 33.1185 25.0367 33.1363C25.417 33.1244 25.7845 32.9967 26.0904 32.7704C26.3963 32.544 26.6259 32.2298 26.7486 31.8696H28.6525C28.479 32.6984 28.0274 33.443 27.3726 33.9799C26.7178 34.5168 25.8993 34.8138 25.0526 34.8216C24.5566 34.8266 24.0648 34.7292 23.6081 34.5354C23.1515 34.3417 22.7398 34.0558 22.3986 33.6957C22.0306 33.3145 21.7437 32.8628 21.5552 32.3677C21.3667 31.8726 21.2806 31.3443 21.302 30.815C21.3008 29.8312 21.6831 28.8857 22.3677 28.1792C23.0523 27.4727 23.9853 27.0609 24.9686 27.031C25.8845 27.0023 26.7751 27.3338 27.4493 27.9544C28.0772 28.483 28.5015 29.2137 28.6493 30.021L26.7479 30.0223Z" fill="#2FC36E"/>
<path d="M33.9799 34.6785L33.6341 33.5933H31.1627L30.7874 34.6785H28.8354L31.6913 27.1719H33.124L35.9513 34.6785H33.9799ZM32.4226 29.5152L32.394 29.5052L31.6606 32.0712H33.1513L32.4226 29.5152Z" fill="#2FC36E"/>
<path d="M39.6526 29.3645C39.5759 28.8265 39.364 28.6312 39.008 28.6312C38.9283 28.6287 38.8488 28.6419 38.7742 28.6701C38.6995 28.6984 38.6314 28.7411 38.5733 28.7958C38.5152 28.8505 38.4685 28.9161 38.4358 28.9888C38.4031 29.0616 38.385 29.14 38.3827 29.2198C38.3827 29.6665 38.7673 29.8691 39.5466 30.2238C41.1139 30.9338 41.5087 31.5325 41.5087 32.5165C41.5087 33.9672 40.5659 34.8191 39.0272 34.8191C37.4886 34.8191 36.46 33.9671 36.46 32.3524V32.1898H38.268C38.278 32.8084 38.566 33.2145 39.018 33.2145C39.1102 33.2124 39.2011 33.1921 39.2854 33.1547C39.3697 33.1173 39.4459 33.0637 39.5093 32.9967C39.5728 32.9298 39.6223 32.8509 39.6552 32.7647C39.688 32.6785 39.7034 32.5866 39.7006 32.4944C39.7006 31.8944 38.912 31.6325 38.268 31.3611C37.1046 30.8638 36.5753 30.2144 36.5753 29.2411C36.6134 28.6197 36.8956 28.0385 37.3604 27.6243C37.8252 27.2101 38.435 26.9964 39.0567 27.0298C39.4966 27.0261 39.9301 27.1345 40.3166 27.3445C40.6851 27.5298 40.9899 27.821 41.1918 28.1806C41.3937 28.5403 41.4836 28.952 41.4499 29.3631L39.6526 29.3645Z" fill="#2FC36E"/>
<path d="M42.5559 34.6785V27.1719H44.372V34.6785H42.5559Z" fill="#2FC36E"/>
<path d="M50.2688 34.6785L47.5354 30.0933L47.5834 34.6785H45.8427V27.1719H47.4107L50.1807 31.9193L50.1034 27.1719H51.8439V34.6785H50.2688Z" fill="#2FC36E"/>
<path d="M53.0187 31.0976C53.0187 28.7742 54.6053 27.0309 56.7693 27.0309C57.5382 27.0028 58.2983 27.203 58.9536 27.6062C59.6089 28.0094 60.1301 28.5976 60.4516 29.2965C60.7732 29.9955 60.8806 30.774 60.7604 31.5339C60.6401 32.2939 60.2975 33.0012 59.7758 33.5668C59.2542 34.1324 58.577 34.5309 57.8292 34.7121C57.0815 34.8933 56.2968 34.849 55.5742 34.5849C54.8515 34.3209 54.2231 33.8488 53.7684 33.2282C53.3136 32.6076 53.0528 31.8662 53.0187 31.0976V31.0976ZM58.712 30.9355C58.7313 30.6619 58.6962 30.3872 58.6088 30.1272C58.5215 29.8672 58.3837 29.627 58.2031 29.4206C58.0225 29.2141 57.8028 29.0454 57.5568 28.9241C57.3107 28.8029 57.0431 28.7316 56.7693 28.7143C56.3197 28.6555 55.8629 28.735 55.4596 28.9424C55.0563 29.1497 54.7257 29.475 54.5118 29.8748C54.298 30.2747 54.211 30.7302 54.2625 31.1807C54.314 31.6313 54.5014 32.0554 54.7999 32.3967C55.0984 32.7381 55.4939 32.9804 55.9336 33.0915C56.3732 33.2025 56.8362 33.177 57.261 33.0183C57.6858 32.8596 58.0521 32.5753 58.3113 32.2033C58.5705 31.8312 58.7104 31.389 58.712 30.9355V30.9355Z" fill="#2FC36E"/>
</g>
<defs>
<clipPath id="clip0_155_890">
<rect width="80" height="40" fill="white" transform="translate(-6.10352e-05 0.798828)"/>
</clipPath>
</defs>
</svg>
