<svg width="131" height="41" viewBox="0 0 131 41" fill="none" xmlns="http://www.w3.org/2000/svg">
<g clip-path="url(#clip0_155_692)">
<path d="M67.6345 21.4094C67.6345 21.5119 67.6159 21.6005 67.5789 21.675C67.5415 21.7402 67.4528 21.7962 67.3132 21.8428C67.1732 21.8894 66.9685 21.922 66.698 21.9406C66.4276 21.9593 66.0598 21.9686 65.5937 21.9686C65.2024 21.9686 64.8898 21.9593 64.6572 21.9406C64.4241 21.922 64.2376 21.8894 64.0976 21.8428C63.9672 21.7869 63.8741 21.7216 63.818 21.6471C63.7624 21.5632 63.7159 21.4653 63.6785 21.3535L62.0567 17.3133C61.8611 16.8567 61.6698 16.4512 61.4837 16.0971C61.2972 15.7429 61.0876 15.4494 60.8545 15.2164C60.6306 14.9741 60.3698 14.7923 60.0715 14.6712C59.7732 14.55 59.4285 14.4894 59.0372 14.4894H57.8906V21.3815C57.8906 21.4746 57.858 21.5585 57.7928 21.6331C57.7372 21.7076 57.6393 21.7682 57.4993 21.8148C57.3593 21.8614 57.1732 21.8987 56.9402 21.9267C56.7072 21.9546 56.4089 21.9686 56.0454 21.9686C55.6915 21.9686 55.3932 21.9546 55.1506 21.9267C54.9176 21.8987 54.7315 21.8614 54.5915 21.8148C54.4519 21.7682 54.3541 21.7076 54.298 21.6331C54.2419 21.5585 54.2141 21.4746 54.2141 21.3815V4.95524C54.2141 4.54516 54.3167 4.2516 54.5215 4.07452C54.7359 3.88812 54.9972 3.79492 55.3045 3.79492H59.9876C60.4632 3.79492 60.8545 3.80424 61.1619 3.82288C61.4698 3.84152 61.7493 3.86482 62.0006 3.89278C62.7276 3.9953 63.3802 4.17237 63.958 4.42403C64.545 4.67564 65.0389 5.0065 65.4398 5.41659C65.8498 5.81733 66.1619 6.29729 66.3763 6.8565C66.5906 7.40637 66.698 8.04011 66.698 8.75772C66.698 9.3635 66.6189 9.91807 66.4602 10.4213C66.3111 10.9153 66.0876 11.358 65.7893 11.7494C65.4911 12.1409 65.1228 12.481 64.685 12.7699C64.2467 13.0589 63.7485 13.2919 63.1889 13.4689C63.4593 13.5994 63.7111 13.7578 63.9441 13.9442C64.1863 14.1306 64.4102 14.3589 64.615 14.6292C64.8293 14.8902 65.0298 15.1931 65.2163 15.5379C65.4024 15.8734 65.5841 16.2555 65.7615 16.6842L67.285 20.2491C67.425 20.6032 67.518 20.8642 67.565 21.0319C67.6115 21.1904 67.6345 21.3162 67.6345 21.4094ZM62.8954 9.1352C62.8954 8.53872 62.7602 8.03546 62.4902 7.62537C62.2198 7.21529 61.7772 6.92637 61.1619 6.75864C60.9759 6.71203 60.7611 6.67477 60.5189 6.64681C60.2859 6.61885 59.9598 6.60485 59.5402 6.60485H57.8906V11.7354H59.7641C60.2858 11.7354 60.7428 11.6749 61.1341 11.5537C61.5254 11.4232 61.8515 11.2461 62.1128 11.0225C62.3737 10.7895 62.5693 10.5145 62.6998 10.1976C62.8302 9.88077 62.8954 9.52663 62.8954 9.1352Z" fill="#EEA403"/>
<path d="M82.8228 21.409C82.8228 21.5022 82.7994 21.5861 82.7528 21.6606C82.7063 21.7259 82.6224 21.7818 82.5015 21.8284C82.3894 21.875 82.2359 21.9076 82.0398 21.9263C81.8537 21.9542 81.6159 21.9682 81.3272 21.9682C81.0194 21.9682 80.7676 21.9542 80.572 21.9263C80.3859 21.9076 80.2368 21.875 80.1246 21.8284C80.0129 21.7818 79.9337 21.7259 79.8872 21.6606C79.8407 21.5861 79.8172 21.5022 79.8172 21.409V19.9691C79.1276 20.7147 78.4237 21.2739 77.7063 21.6467C76.9981 22.0194 76.2616 22.2058 75.4976 22.2058C74.6402 22.2058 73.9176 22.0661 73.3307 21.7864C72.7529 21.5069 72.282 21.1248 71.9185 20.6401C71.5646 20.1555 71.3081 19.5963 71.1498 18.9625C71.0007 18.3195 70.9259 17.5226 70.9259 16.572V8.93906C70.9259 8.84588 70.9494 8.76667 70.9959 8.7014C71.052 8.62684 71.145 8.56627 71.2755 8.51967C71.4155 8.47306 71.5972 8.44045 71.8207 8.4218C72.0537 8.39384 72.3381 8.37988 72.6737 8.37988C73.0185 8.37988 73.3029 8.39384 73.5263 8.4218C73.7498 8.44045 73.9272 8.47306 74.0576 8.51967C74.1972 8.56627 74.295 8.62684 74.3511 8.7014C74.4072 8.76667 74.435 8.84588 74.435 8.93906V15.9849C74.435 16.6372 74.4768 17.1358 74.5607 17.4807C74.6446 17.8255 74.7707 18.1238 74.9385 18.3754C75.1155 18.6177 75.3346 18.8088 75.5955 18.9486C75.8655 19.0791 76.1776 19.1443 76.532 19.1443C76.9794 19.1443 77.4268 18.9812 77.8742 18.655C78.3307 18.3288 78.8155 17.8535 79.3281 17.2291V8.93906C79.3281 8.84588 79.3511 8.76667 79.3976 8.7014C79.4537 8.62684 79.5468 8.56627 79.6776 8.51967C79.8172 8.47306 79.9989 8.44045 80.2224 8.4218C80.4463 8.39384 80.7307 8.37988 81.0755 8.37988C81.4202 8.37988 81.7046 8.39384 81.9281 8.4218C82.152 8.44045 82.3289 8.47306 82.4594 8.51967C82.5898 8.56627 82.6833 8.62684 82.7389 8.7014C82.795 8.76667 82.8228 8.84588 82.8228 8.93906V21.409Z" fill="#EEA403"/>
<path d="M99.7864 14.9927C99.7864 16.1017 99.6655 17.1036 99.4229 17.9983C99.1899 18.8837 98.8451 19.6386 98.3886 20.263C97.932 20.8874 97.3633 21.3674 96.6829 21.7029C96.0025 22.0384 95.2246 22.2062 94.3486 22.2062C93.9851 22.2062 93.6494 22.1689 93.342 22.0944C93.0438 22.0291 92.7499 21.9266 92.4612 21.7868C92.1816 21.6377 91.902 21.456 91.6225 21.2416C91.3429 21.0272 91.0538 20.7756 90.7555 20.4867V26.3582C90.7555 26.4514 90.7277 26.5353 90.6716 26.6098C90.616 26.6844 90.5181 26.745 90.3781 26.7915C90.2477 26.8475 90.0707 26.8894 89.8468 26.9174C89.6233 26.9453 89.339 26.9593 88.9942 26.9593C88.6494 26.9593 88.3651 26.9453 88.1412 26.9174C87.9177 26.8894 87.7359 26.8475 87.5959 26.7915C87.4655 26.745 87.3725 26.6844 87.3164 26.6098C87.2607 26.5353 87.2329 26.4514 87.2329 26.3582V8.9394C87.2329 8.84623 87.256 8.76701 87.3025 8.70175C87.349 8.62719 87.4286 8.56662 87.5403 8.52001C87.6616 8.4734 87.8151 8.4408 88.0016 8.42214C88.1973 8.39419 88.4394 8.38023 88.7286 8.38023C89.0081 8.38023 89.2412 8.39419 89.4277 8.42214C89.6233 8.4408 89.7768 8.4734 89.889 8.52001C90.0099 8.56662 90.0938 8.62719 90.1403 8.70175C90.1873 8.76701 90.2103 8.84623 90.2103 8.9394V10.4073C90.5738 10.0345 90.9281 9.70832 91.2729 9.42871C91.6268 9.1398 91.986 8.90214 92.3494 8.71575C92.7129 8.52001 93.0855 8.37558 93.4677 8.28236C93.859 8.18919 94.2738 8.14258 94.712 8.14258C95.6251 8.14258 96.4033 8.32432 97.0464 8.6878C97.6894 9.04193 98.2116 9.53123 98.612 10.1557C99.0225 10.7801 99.3207 11.507 99.5068 12.3365C99.6933 13.166 99.7864 14.0514 99.7864 14.9927ZM96.1238 15.2443C96.1238 14.7131 96.082 14.2051 95.9981 13.7205C95.9233 13.2265 95.7881 12.7885 95.5925 12.4064C95.4064 12.0243 95.1546 11.7214 94.8377 11.4977C94.5303 11.2647 94.1433 11.1482 93.6773 11.1482C93.4442 11.1482 93.2112 11.1855 92.9786 11.2601C92.7546 11.3253 92.5216 11.4371 92.2794 11.5956C92.0464 11.754 91.8042 11.9591 91.5525 12.2107C91.3007 12.4623 91.0351 12.7745 90.7555 13.1473V17.2574C91.2494 17.8818 91.7203 18.3664 92.1677 18.7113C92.6151 19.0468 93.0807 19.2145 93.5655 19.2145C94.022 19.2145 94.409 19.098 94.7259 18.8651C95.052 18.6321 95.3177 18.3291 95.5225 17.9564C95.7277 17.5742 95.8768 17.1455 95.9699 16.6702C96.0725 16.1949 96.1238 15.7196 96.1238 15.2443Z" fill="#EEA403"/>
<path d="M114.989 14.8109C114.989 15.2396 114.891 15.5565 114.695 15.7615C114.509 15.9666 114.248 16.0691 113.912 16.0691H106.321C106.321 16.6003 106.382 17.085 106.503 17.523C106.633 17.9517 106.834 18.3198 107.104 18.6274C107.384 18.9256 107.738 19.154 108.166 19.3124C108.605 19.4708 109.126 19.5501 109.732 19.5501C110.347 19.5501 110.888 19.5081 111.354 19.4242C111.82 19.331 112.221 19.2332 112.556 19.1307C112.901 19.0188 113.185 18.921 113.409 18.8371C113.632 18.7439 113.814 18.6973 113.954 18.6973C114.038 18.6973 114.108 18.7159 114.164 18.7532C114.22 18.7811 114.266 18.8371 114.304 18.921C114.341 19.0048 114.364 19.126 114.373 19.2844C114.392 19.4335 114.402 19.6246 114.402 19.8576C114.402 20.0626 114.397 20.2397 114.388 20.3888C114.378 20.5286 114.364 20.6498 114.345 20.7523C114.327 20.8548 114.299 20.9434 114.262 21.0179C114.224 21.0831 114.173 21.1484 114.108 21.2136C114.052 21.2789 113.889 21.3674 113.619 21.4792C113.349 21.5911 113.003 21.7029 112.584 21.8148C112.165 21.9173 111.685 22.0058 111.144 22.0804C110.604 22.1643 110.026 22.2062 109.411 22.2062C108.302 22.2062 107.328 22.0664 106.489 21.7868C105.659 21.5072 104.965 21.0831 104.406 20.5147C103.847 19.9461 103.427 19.2285 103.148 18.3618C102.878 17.495 102.742 16.4791 102.742 15.3142C102.742 14.2051 102.887 13.2079 103.176 12.3225C103.465 11.4278 103.884 10.6729 104.434 10.0578C104.984 9.43336 105.65 8.95806 106.433 8.63184C107.225 8.30567 108.115 8.14258 109.103 8.14258C110.147 8.14258 111.037 8.29636 111.773 8.60388C112.519 8.91145 113.129 9.34019 113.605 9.89006C114.08 10.4306 114.429 11.0737 114.653 11.8192C114.877 12.5648 114.989 13.3757 114.989 14.2517V14.8109ZM111.578 13.8044C111.605 12.8164 111.405 12.0429 110.976 11.4837C110.557 10.9152 109.905 10.631 109.019 10.631C108.572 10.631 108.18 10.7148 107.845 10.8826C107.519 11.0504 107.244 11.2787 107.02 11.5676C106.806 11.8472 106.638 12.1827 106.517 12.5741C106.405 12.9563 106.34 13.3663 106.321 13.8044H111.578Z" fill="#EEA403"/>
<path d="M130.275 14.8109C130.275 15.2396 130.177 15.5565 129.981 15.7615C129.795 15.9666 129.534 16.0691 129.198 16.0691H121.607C121.607 16.6003 121.668 17.085 121.789 17.523C121.919 17.9517 122.12 18.3198 122.39 18.6274C122.67 18.9256 123.024 19.154 123.452 19.3124C123.891 19.4708 124.412 19.5501 125.018 19.5501C125.633 19.5501 126.174 19.5081 126.64 19.4242C127.106 19.331 127.507 19.2332 127.842 19.1307C128.187 19.0188 128.471 18.921 128.695 18.8371C128.919 18.7439 129.1 18.6973 129.24 18.6973C129.324 18.6973 129.394 18.7159 129.45 18.7532C129.506 18.7811 129.552 18.8371 129.59 18.921C129.627 19.0048 129.65 19.126 129.659 19.2844C129.678 19.4335 129.688 19.6246 129.688 19.8576C129.688 20.0626 129.683 20.2397 129.673 20.3888C129.664 20.5286 129.65 20.6498 129.632 20.7523C129.613 20.8548 129.585 20.9434 129.548 21.0179C129.51 21.0831 129.459 21.1484 129.394 21.2136C129.338 21.2789 129.175 21.3674 128.905 21.4792C128.634 21.5911 128.289 21.7029 127.87 21.8148C127.451 21.9173 126.971 22.0058 126.43 22.0804C125.89 22.1643 125.312 22.2062 124.697 22.2062C123.588 22.2062 122.614 22.0664 121.775 21.7868C120.946 21.5072 120.251 21.0831 119.692 20.5147C119.133 19.9461 118.713 19.2285 118.434 18.3618C118.163 17.495 118.029 16.4791 118.029 15.3142C118.029 14.2051 118.173 13.2079 118.462 12.3225C118.751 11.4278 119.17 10.6729 119.72 10.0578C120.27 9.43336 120.936 8.95806 121.719 8.63184C122.511 8.30567 123.401 8.14258 124.389 8.14258C125.433 8.14258 126.323 8.29636 127.059 8.60388C127.805 8.91145 128.416 9.34019 128.891 9.89006C129.366 10.4306 129.716 11.0737 129.939 11.8192C130.163 12.5648 130.275 13.3757 130.275 14.2517V14.8109ZM126.864 13.8044C126.892 12.8164 126.691 12.0429 126.262 11.4837C125.843 10.9152 125.191 10.631 124.306 10.631C123.858 10.631 123.466 10.7148 123.131 10.8826C122.805 11.0504 122.53 11.2787 122.306 11.5676C122.092 11.8472 121.924 12.1827 121.803 12.5741C121.691 12.9563 121.626 13.3663 121.607 13.8044H126.864Z" fill="#EEA403"/>
<path d="M62.5685 28.2666C62.5685 28.8625 62.4611 29.39 62.2472 29.8492C62.0333 30.3084 61.7215 30.6966 61.312 31.0136C60.9028 31.3252 60.3989 31.563 59.8006 31.727C59.2089 31.891 58.5098 31.973 57.7037 31.973H56.6837V35.3597C56.6837 35.4144 56.6615 35.4636 56.6176 35.5073C56.5798 35.551 56.5137 35.5866 56.4189 35.6139C56.3246 35.6412 56.1989 35.6631 56.0411 35.6795C55.8837 35.6959 55.6824 35.7041 55.4367 35.7041C55.1976 35.7041 54.9959 35.6959 54.8324 35.6795C54.675 35.6631 54.5489 35.6412 54.4546 35.6139C54.3598 35.5866 54.2937 35.551 54.2559 35.5073C54.218 35.4636 54.1993 35.4144 54.1993 35.3597V25.8148C54.1993 25.5578 54.275 25.3665 54.4259 25.2408C54.5837 25.1096 54.788 25.0439 55.0402 25.0439H57.9211C58.2106 25.0439 58.4846 25.0549 58.7428 25.0768C59.0072 25.0932 59.322 25.1342 59.6872 25.1998C60.0524 25.2599 60.4211 25.3747 60.7924 25.5442C61.1702 25.7136 61.4915 25.9296 61.7559 26.1919C62.0206 26.4489 62.2219 26.7523 62.3606 27.1022C62.4989 27.4466 62.5685 27.8347 62.5685 28.2666ZM59.9706 28.4224C59.9706 28.0506 59.895 27.7445 59.7441 27.504C59.5928 27.2635 59.4072 27.0858 59.1867 26.971C58.9663 26.8562 58.7333 26.7851 58.4876 26.7578C58.2485 26.725 57.9998 26.7086 57.7415 26.7086H56.6837V30.3084H57.798C58.195 30.3084 58.5254 30.2619 58.7902 30.169C59.0606 30.0761 59.2811 29.9476 59.4511 29.7836C59.6211 29.6142 59.7502 29.4146 59.8385 29.185C59.9267 28.9499 59.9706 28.6957 59.9706 28.4224Z" fill="#298CED"/>
<path d="M71.1546 35.4002C71.1546 35.4768 71.1228 35.5369 71.0602 35.5807C70.9972 35.6244 70.8963 35.6544 70.7576 35.6708C70.6254 35.6927 70.4272 35.7037 70.1628 35.7037C69.8794 35.7037 69.6715 35.6927 69.5393 35.6708C69.4133 35.6544 69.322 35.6244 69.2654 35.5807C69.215 35.5369 69.1898 35.4768 69.1898 35.4002V34.8181C68.8433 35.1406 68.4467 35.3921 67.9998 35.5724C67.5589 35.7528 67.0676 35.8431 66.5259 35.8431C66.0789 35.8431 65.6663 35.7911 65.2885 35.6872C64.9172 35.5888 64.5928 35.4412 64.3159 35.2444C64.045 35.0422 63.8341 34.7934 63.6828 34.4982C63.5319 34.203 63.4563 33.8586 63.4563 33.465C63.4563 33.0386 63.5507 32.6696 63.7398 32.358C63.935 32.0409 64.2215 31.7813 64.5993 31.579C64.9833 31.3713 65.4589 31.2182 66.0254 31.1198C66.5924 31.0214 67.2502 30.9722 67.9998 30.9722H68.8215V30.5294C68.8215 30.2998 68.7933 30.1002 68.7363 29.9308C68.6859 29.7558 68.598 29.611 68.472 29.4961C68.3524 29.3814 68.1885 29.2966 67.9807 29.242C67.7793 29.1873 67.5272 29.16 67.225 29.16C66.8285 29.16 66.4724 29.1982 66.1576 29.2747C65.8493 29.3513 65.575 29.436 65.3359 29.529C65.0967 29.6219 64.895 29.7066 64.7315 29.7831C64.5741 29.8597 64.445 29.898 64.3441 29.898C64.275 29.898 64.212 29.8788 64.155 29.8406C64.105 29.8023 64.0607 29.7476 64.0228 29.6766C63.9915 29.6055 63.9663 29.518 63.9472 29.4141C63.9285 29.3103 63.9189 29.1955 63.9189 29.0698C63.9189 28.9003 63.935 28.7664 63.9663 28.668C63.9976 28.5695 64.0576 28.4821 64.1459 28.4055C64.2337 28.3235 64.388 28.2361 64.6085 28.1431C64.8289 28.0447 65.0872 27.9545 65.3833 27.8725C65.6789 27.7905 66.0002 27.7249 66.3467 27.6758C66.6993 27.6211 67.0615 27.5938 67.4328 27.5938C68.0941 27.5938 68.6576 27.6511 69.1237 27.7659C69.5959 27.8753 69.9833 28.0475 70.2854 28.2825C70.5876 28.5121 70.808 28.8101 70.9467 29.1764C71.0854 29.5426 71.1546 29.9772 71.1546 30.4802V35.4002ZM68.8215 32.2678H67.9146C67.5307 32.2678 67.2028 32.2924 66.9324 32.3416C66.6615 32.3908 66.4411 32.4646 66.2711 32.563C66.1011 32.6614 65.975 32.7817 65.8933 32.9238C65.8176 33.0605 65.7798 33.219 65.7798 33.3994C65.7798 33.7055 65.8902 33.9461 66.1106 34.121C66.3372 34.296 66.6489 34.3834 67.0454 34.3834C67.3793 34.3834 67.6846 34.3096 67.962 34.162C68.245 34.0144 68.5315 33.7985 68.8215 33.5142V32.2678Z" fill="#298CED"/>
<path d="M78.0594 35.6547L77.0394 38.246C76.9824 38.3826 76.8281 38.481 76.5763 38.5411C76.3246 38.6013 75.9563 38.6314 75.4711 38.6314C75.2194 38.6314 75.0176 38.6204 74.8668 38.5985C74.7155 38.5821 74.6024 38.5521 74.5268 38.5084C74.4511 38.4646 74.4102 38.41 74.4037 38.3444C74.3976 38.2787 74.4163 38.1995 74.4607 38.1065L75.5846 35.6547C75.5029 35.6219 75.4272 35.5727 75.3581 35.5071C75.295 35.4361 75.2476 35.3622 75.2163 35.2857L72.3163 28.5616C72.2346 28.3703 72.1937 28.2254 72.1937 28.127C72.1937 28.0231 72.2315 27.9439 72.3068 27.8892C72.3824 27.829 72.5085 27.788 72.6846 27.7662C72.8672 27.7443 73.1068 27.7334 73.4024 27.7334C73.6733 27.7334 73.8876 27.7389 74.045 27.7498C74.2024 27.7553 74.325 27.7744 74.4133 27.8072C74.5016 27.84 74.5676 27.8919 74.6115 27.963C74.6559 28.0286 74.6998 28.1243 74.7437 28.25L76.7276 33.1455H76.7559L78.5694 28.1516C78.6072 28.0094 78.6546 27.9165 78.7111 27.8728C78.7742 27.8236 78.875 27.788 79.0133 27.7662C79.152 27.7443 79.3946 27.7334 79.7407 27.7334C80.0116 27.7334 80.235 27.7443 80.4116 27.7662C80.5942 27.788 80.7263 27.829 80.8081 27.8892C80.8963 27.9493 80.9402 28.0313 80.9402 28.1352C80.9402 28.2336 80.915 28.3511 80.8646 28.4878L78.0594 35.6547Z" fill="#298CED"/>
<path d="M95.742 35.3757C95.742 35.4303 95.7229 35.4795 95.685 35.5232C95.6472 35.5615 95.5846 35.5943 95.4963 35.6217C95.4081 35.649 95.2885 35.6681 95.1372 35.6791C94.9863 35.6954 94.7942 35.7037 94.5611 35.7037C94.322 35.7037 94.1268 35.6954 93.9755 35.6791C93.8242 35.6681 93.7015 35.649 93.6072 35.6217C93.5189 35.5943 93.4559 35.5615 93.4181 35.5232C93.3868 35.4795 93.3711 35.4303 93.3711 35.3757V31.0378C93.3711 30.7918 93.3424 30.5676 93.2859 30.3654C93.2355 30.1631 93.1537 29.9909 93.0402 29.8488C92.9333 29.7011 92.7946 29.5891 92.6246 29.5126C92.4611 29.4306 92.2629 29.3896 92.0298 29.3896C91.7463 29.3896 91.4598 29.4852 91.1702 29.6766C90.8802 29.8679 90.5655 30.1467 90.2255 30.513V35.3757C90.2255 35.4303 90.2068 35.4795 90.1689 35.5232C90.1311 35.5615 90.065 35.5943 89.9707 35.6217C89.8824 35.649 89.7628 35.6681 89.6115 35.6791C89.4602 35.6954 89.2715 35.7037 89.0446 35.7037C88.812 35.7037 88.6198 35.6954 88.4685 35.6791C88.3176 35.6681 88.1946 35.649 88.1002 35.6217C88.012 35.5943 87.9489 35.5615 87.9111 35.5232C87.8737 35.4795 87.8546 35.4303 87.8546 35.3757V31.0378C87.8546 30.7918 87.8263 30.5676 87.7698 30.3654C87.7194 30.1631 87.6407 29.9909 87.5333 29.8488C87.4263 29.7011 87.2881 29.5891 87.1181 29.5126C86.9476 29.4306 86.7494 29.3896 86.5229 29.3896C86.2333 29.3896 85.9433 29.4852 85.6537 29.6766C85.3642 29.8679 85.0524 30.1467 84.7185 30.513V35.3757C84.7185 35.4303 84.6998 35.4795 84.662 35.5232C84.6242 35.5615 84.5581 35.5943 84.4637 35.6217C84.3755 35.649 84.2559 35.6681 84.1046 35.6791C83.9537 35.6954 83.7615 35.7037 83.5285 35.7037C83.2955 35.7037 83.1033 35.6954 82.9524 35.6791C82.8011 35.6681 82.6785 35.649 82.5837 35.6217C82.4959 35.5943 82.4329 35.5615 82.395 35.5232C82.3572 35.4795 82.3385 35.4303 82.3385 35.3757V28.0611C82.3385 28.0065 82.3542 27.96 82.3855 27.9217C82.4172 27.878 82.4737 27.8424 82.5555 27.8151C82.6376 27.7878 82.7411 27.7687 82.8672 27.7578C82.9994 27.7413 83.1633 27.7331 83.3585 27.7331C83.5598 27.7331 83.7268 27.7413 83.8589 27.7578C83.9911 27.7687 84.092 27.7878 84.1615 27.8151C84.2368 27.8424 84.2902 27.878 84.322 27.9217C84.3533 27.96 84.3689 28.0065 84.3689 28.0611V28.9058C84.835 28.4684 85.2981 28.1404 85.7576 27.9217C86.2237 27.7031 86.7085 27.5938 87.2124 27.5938C87.5585 27.5938 87.8702 27.6265 88.1476 27.6921C88.4246 27.7523 88.6702 27.8424 88.8842 27.9628C89.1046 28.0775 89.2937 28.2169 89.4511 28.3809C89.6085 28.5449 89.7407 28.7281 89.8476 28.9304C90.0994 28.6953 90.345 28.493 90.5846 28.3235C90.8302 28.1541 91.0694 28.0174 91.3024 27.9135C91.5415 27.8042 91.7776 27.7249 92.0107 27.6758C92.2502 27.6211 92.4924 27.5938 92.7381 27.5938C93.2985 27.5938 93.7707 27.6757 94.155 27.8397C94.5389 28.0037 94.8476 28.2279 95.0807 28.5121C95.3198 28.791 95.4898 29.119 95.5907 29.4961C95.6915 29.8734 95.742 30.2724 95.742 30.6934V35.3757Z" fill="#298CED"/>
<path d="M105.858 31.5052C105.858 31.7567 105.792 31.9425 105.66 32.0628C105.534 32.1831 105.358 32.2432 105.131 32.2432H100.002C100.002 32.5548 100.043 32.8391 100.125 33.096C100.213 33.3475 100.348 33.5634 100.531 33.7438C100.72 33.9187 100.959 34.0527 101.249 34.1456C101.545 34.2386 101.897 34.285 102.307 34.285C102.722 34.285 103.088 34.2604 103.402 34.2112C103.717 34.1566 103.988 34.0991 104.215 34.039C104.448 33.9734 104.64 33.916 104.791 33.8668C104.942 33.8121 105.065 33.7848 105.159 33.7848C105.216 33.7848 105.263 33.7957 105.301 33.8176C105.339 33.834 105.37 33.8668 105.395 33.916C105.421 33.9652 105.436 34.0363 105.442 34.1292C105.455 34.2167 105.462 34.3288 105.462 34.4654C105.462 34.5857 105.459 34.6896 105.452 34.7771C105.446 34.8591 105.436 34.9301 105.424 34.9902C105.411 35.0504 105.392 35.1023 105.367 35.1461C105.342 35.1843 105.307 35.2226 105.263 35.2608C105.225 35.2991 105.115 35.3511 104.932 35.4167C104.75 35.4822 104.517 35.5478 104.234 35.6134C103.95 35.6736 103.626 35.7255 103.261 35.7692C102.895 35.8184 102.505 35.8431 102.089 35.8431C101.34 35.8431 100.682 35.7611 100.115 35.5971C99.5546 35.4331 99.0855 35.1843 98.7077 34.8508C98.3298 34.5174 98.0468 34.0964 97.8577 33.588C97.675 33.0796 97.5837 32.4838 97.5837 31.8004C97.5837 31.1498 97.6816 30.5649 97.8768 30.0456C98.072 29.5208 98.3551 29.078 98.7268 28.7171C99.0981 28.3509 99.5485 28.0721 100.078 27.8807C100.613 27.6894 101.214 27.5938 101.882 27.5938C102.587 27.5938 103.188 27.6839 103.686 27.8643C104.189 28.0448 104.602 28.2962 104.923 28.6188C105.244 28.9358 105.48 29.313 105.632 29.7504C105.783 30.1877 105.858 30.6633 105.858 31.1772V31.5052ZM103.553 30.9148C103.572 30.3353 103.437 29.8816 103.147 29.5536C102.864 29.2201 102.423 29.0534 101.825 29.0534C101.523 29.0534 101.258 29.1025 101.032 29.201C100.811 29.2994 100.625 29.4333 100.474 29.6028C100.329 29.7668 100.216 29.9636 100.134 30.1932C100.059 30.4173 100.015 30.6578 100.002 30.9148H103.553Z" fill="#298CED"/>
<path d="M115.871 35.3757C115.871 35.4303 115.852 35.4795 115.814 35.5232C115.776 35.5615 115.713 35.5943 115.625 35.6217C115.537 35.649 115.414 35.6681 115.257 35.6791C115.105 35.6954 114.917 35.7037 114.69 35.7037C114.457 35.7037 114.262 35.6954 114.105 35.6791C113.953 35.6681 113.834 35.649 113.745 35.6217C113.657 35.5943 113.594 35.5615 113.556 35.5232C113.519 35.4795 113.5 35.4303 113.5 35.3757V31.2018C113.5 30.8464 113.469 30.5676 113.405 30.3654C113.349 30.1631 113.264 29.9909 113.15 29.8488C113.037 29.7011 112.889 29.5891 112.706 29.5126C112.53 29.4306 112.322 29.3896 112.083 29.3896C111.781 29.3896 111.475 29.4852 111.167 29.6766C110.858 29.8679 110.537 30.1467 110.203 30.513V35.3757C110.203 35.4303 110.185 35.4795 110.147 35.5232C110.109 35.5615 110.043 35.5943 109.948 35.6217C109.86 35.649 109.74 35.6681 109.589 35.6791C109.438 35.6954 109.246 35.7037 109.013 35.7037C108.78 35.7037 108.588 35.6954 108.437 35.6791C108.286 35.6681 108.163 35.649 108.069 35.6217C107.98 35.5943 107.917 35.5615 107.88 35.5232C107.842 35.4795 107.823 35.4303 107.823 35.3757V28.0611C107.823 28.0065 107.839 27.96 107.87 27.9217C107.902 27.878 107.959 27.8424 108.04 27.8151C108.122 27.7878 108.226 27.7687 108.352 27.7578C108.484 27.7413 108.648 27.7331 108.843 27.7331C109.045 27.7331 109.212 27.7413 109.344 27.7578C109.476 27.7687 109.577 27.7878 109.646 27.8151C109.722 27.8424 109.775 27.878 109.807 27.9217C109.838 27.96 109.854 28.0065 109.854 28.0611V28.9058C110.32 28.4684 110.792 28.1404 111.271 27.9217C111.755 27.7031 112.259 27.5938 112.782 27.5938C113.355 27.5938 113.837 27.6757 114.227 27.8397C114.624 28.0037 114.942 28.2279 115.181 28.5121C115.427 28.791 115.603 29.119 115.71 29.4961C115.817 29.8734 115.871 30.3271 115.871 30.8574V35.3757Z" fill="#298CED"/>
<path d="M123.012 34.6546C123.012 34.8951 122.993 35.081 122.955 35.2122C122.924 35.3379 122.879 35.4281 122.823 35.4828C122.766 35.532 122.681 35.5785 122.568 35.6222C122.461 35.6605 122.332 35.6933 122.181 35.7206C122.036 35.7534 121.875 35.778 121.699 35.7944C121.529 35.8108 121.355 35.819 121.179 35.819C120.707 35.819 120.298 35.7671 119.951 35.6632C119.605 35.5593 119.318 35.4008 119.092 35.1876C118.865 34.9689 118.698 34.6956 118.591 34.3676C118.484 34.0396 118.431 33.6514 118.431 33.2032V29.4557H117.42C117.3 29.4557 117.209 29.3928 117.146 29.2671C117.083 29.1359 117.052 28.9199 117.052 28.6193C117.052 28.4608 117.058 28.3268 117.07 28.2175C117.089 28.1082 117.115 28.0234 117.146 27.9633C117.177 27.8977 117.215 27.8512 117.259 27.8239C117.31 27.7966 117.366 27.7829 117.429 27.7829H118.431V26.151C118.431 26.0964 118.446 26.0472 118.478 26.0035C118.515 25.9597 118.578 25.9242 118.667 25.8969C118.761 25.864 118.884 25.8422 119.035 25.8312C119.192 25.8149 119.385 25.8066 119.611 25.8066C119.844 25.8066 120.036 25.8149 120.188 25.8312C120.345 25.8422 120.468 25.864 120.556 25.8969C120.644 25.9242 120.707 25.9597 120.745 26.0035C120.782 26.0472 120.802 26.0964 120.802 26.151V27.7829H122.634C122.697 27.7829 122.75 27.7966 122.795 27.8239C122.845 27.8512 122.886 27.8977 122.917 27.9633C122.949 28.0234 122.971 28.1082 122.983 28.2175C123.002 28.3268 123.012 28.4608 123.012 28.6193C123.012 28.9199 122.98 29.1359 122.917 29.2671C122.854 29.3928 122.763 29.4557 122.643 29.4557H120.802V32.8916C120.802 33.2906 120.874 33.5913 121.018 33.7936C121.164 33.9904 121.422 34.0888 121.793 34.0888C121.919 34.0888 122.032 34.0806 122.133 34.0642C122.234 34.0423 122.322 34.0204 122.398 33.9986C122.48 33.9713 122.546 33.9494 122.596 33.9329C122.653 33.9111 122.703 33.9002 122.747 33.9002C122.785 33.9002 122.82 33.9111 122.851 33.9329C122.889 33.9494 122.917 33.9876 122.936 34.0478C122.955 34.1024 122.971 34.179 122.983 34.2774C123.002 34.3758 123.012 34.5015 123.012 34.6546Z" fill="#298CED"/>
<path d="M130.663 33.3092C130.663 33.7247 130.572 34.091 130.389 34.408C130.212 34.7251 129.961 34.9902 129.633 35.2034C129.306 35.4167 128.918 35.5752 128.472 35.6791C128.024 35.7884 127.539 35.8431 127.017 35.8431C126.702 35.8431 126.4 35.8212 126.11 35.7774C125.827 35.7392 125.572 35.69 125.345 35.6298C125.118 35.5642 124.929 35.4987 124.778 35.4331C124.627 35.3674 124.517 35.3073 124.448 35.2527C124.378 35.1925 124.325 35.1023 124.287 34.9821C124.249 34.8563 124.23 34.6732 124.23 34.4326C124.23 34.2741 124.236 34.1484 124.249 34.0554C124.262 33.957 124.281 33.8805 124.306 33.8258C124.331 33.7657 124.362 33.7274 124.4 33.711C124.438 33.6891 124.485 33.6782 124.542 33.6782C124.611 33.6782 124.712 33.7137 124.844 33.7848C124.983 33.8504 125.153 33.9242 125.354 34.0062C125.556 34.0882 125.789 34.1647 126.053 34.2358C126.324 34.3069 126.629 34.3424 126.969 34.3424C127.184 34.3424 127.372 34.3233 127.536 34.285C127.706 34.2468 127.851 34.1921 127.971 34.121C128.097 34.05 128.191 33.9597 128.254 33.8504C128.317 33.7411 128.348 33.6154 128.348 33.4732C128.348 33.3092 128.289 33.1698 128.169 33.055C128.056 32.9348 127.902 32.8309 127.706 32.7434C127.517 32.6559 127.3 32.5739 127.055 32.4974C126.815 32.4209 126.566 32.3361 126.308 32.2432C126.056 32.1503 125.808 32.0437 125.562 31.9234C125.323 31.8031 125.105 31.6555 124.91 31.4806C124.722 31.3057 124.567 31.0952 124.448 30.8492C124.334 30.6032 124.278 30.308 124.278 29.9636C124.278 29.6137 124.356 29.2939 124.514 29.0041C124.671 28.709 124.898 28.4575 125.194 28.2498C125.49 28.042 125.848 27.8807 126.271 27.7659C126.699 27.6511 127.177 27.5938 127.706 27.5938C127.971 27.5938 128.226 27.6101 128.472 27.6429C128.723 27.6758 128.95 27.7167 129.152 27.7659C129.353 27.8151 129.523 27.8698 129.662 27.9299C129.8 27.9846 129.898 28.0338 129.955 28.0775C130.017 28.1158 130.062 28.1568 130.087 28.2005C130.112 28.2388 130.131 28.288 130.143 28.3481C130.156 28.4028 130.165 28.4739 130.172 28.5614C130.184 28.6434 130.191 28.7472 130.191 28.873C130.191 29.0205 130.184 29.1408 130.172 29.2337C130.165 29.3267 130.149 29.4005 130.125 29.4551C130.105 29.5098 130.077 29.5481 130.039 29.57C130.002 29.5864 129.958 29.5946 129.907 29.5946C129.851 29.5946 129.762 29.5672 129.643 29.5126C129.523 29.4524 129.372 29.3896 129.189 29.324C129.013 29.2584 128.805 29.1982 128.566 29.1435C128.333 29.0834 128.065 29.0534 127.763 29.0534C127.549 29.0534 127.363 29.0725 127.205 29.1108C127.048 29.149 126.919 29.2037 126.818 29.2747C126.718 29.3458 126.642 29.4306 126.592 29.529C126.541 29.6219 126.516 29.723 126.516 29.8324C126.516 30.0018 126.576 30.144 126.695 30.2588C126.815 30.3736 126.973 30.4747 127.168 30.5622C127.363 30.6496 127.583 30.7317 127.829 30.8082C128.081 30.8847 128.333 30.9694 128.585 31.0624C128.843 31.1498 129.095 31.2537 129.34 31.374C129.592 31.4943 129.816 31.6418 130.011 31.8168C130.206 31.9917 130.364 32.2022 130.483 32.4482C130.603 32.6888 130.663 32.9758 130.663 33.3092Z" fill="#298CED"/>
<path d="M34.8807 7.29608C38.3726 8.1683 40.7544 11.3642 39.7639 14.9966C38.8248 18.1894 36.3831 19.692 32.9085 19.692C27.0862 19.598 21.2639 19.598 15.4414 19.692C11.4972 19.692 10.4644 20.8189 10.5581 24.669C10.5581 25.3577 10.5687 26.0464 10.579 26.7352C10.5998 28.1126 10.6207 29.4899 10.5581 30.8671C10.5581 31.9002 10.1826 32.7453 8.96171 32.7453C7.74088 32.7453 7.85836 31.8062 7.85836 30.8671C7.85836 30.1144 7.84667 29.3617 7.83497 28.6104C7.79967 26.3624 7.76458 24.1277 8.0461 21.9457C8.51567 18.6589 10.3704 17.0625 13.6572 16.8747C16.7562 16.7807 19.949 16.6867 23.0481 16.7807C28.9644 16.7807 33.1903 14.1515 35.538 8.61069C33.0599 8.61069 29.9254 8.61069 27.274 8.61069C26.0531 9.83156 24.4567 10.0193 22.7663 10.0193C19.5735 10.0193 16.4744 9.92534 13.2816 10.0193C6.9748 10.0193 1.37872 15.371 1.37872 19.4102C1.37863 23.981 1.37872 28.9828 1.37872 33.121C2.11782 37.1454 5.13767 39.7331 8.96171 39.628C13.7384 39.4966 16.8297 35.8564 17.6013 31.3366C20.1308 33.5851 22.5666 35.8333 25.0024 38.0815L25.0202 38.098C26.8044 39.8824 28.8704 40.5397 30.7485 38.4738C32.439 36.5956 31.9694 34.5296 29.9034 32.8393C27.8375 31.1489 25.9593 29.1766 24.2689 26.5474H33.0963C40.8908 26.4534 46.8073 20.9129 46.8073 13.4939C46.8073 5.88743 41.0785 0.34668 33.1903 0.34668C25.7278 0.34668 6.64475 0.346251 0.228149 0.628451C1.82478 5.13613 3.98451 6.9203 8.67997 7.0143C17.4135 7.20217 26.1471 7.20191 34.8807 7.29608Z" fill="#EEA403"/>
</g>
<defs>
<clipPath id="clip0_155_692">
<rect width="130.87" height="40" fill="white" transform="translate(0.00634766 0.0546875)"/>
</clipPath>
</defs>
</svg>
